<?xml version="1.0" encoding="UTF-8"?><svg id="_層_2" xmlns="http://www.w3.org/2000/svg" viewBox="0 0 1139.11 901.31"><defs><style>.cls-1{fill:#eaa294;}.cls-2{fill:#e8948b;}.cls-3{fill:#eab3ac;}.cls-4{fill:#d8bdb4;}.cls-5{fill:#9b536d;}.cls-6{fill:#56568c;}.cls-7{fill:#3d3d59;}.cls-8{fill:#7981a5;}.cls-9{fill:none;stroke:#3d3d59;stroke-width:23px;}</style></defs><path class="cls-7" d="M908.01,723.78c6.58,3.3,13.63,5.85,20.63,8.09,14.67,4.68,30.18,7.67,45.62,7.16,17.53-.58,34.74-6.26,47.42-18.75,7.94-7.82,13.7-17.68,16.28-28.55,2.66-11.23,1.99-23.18-1.78-34.08-.97-2.79-2.16-5.47-3.45-8.13-1.51-3.12-2.65-6.4-3.43-9.77-1.31-5.67-1.5-11.55-.82-17.32,.88-7.5,3.25-15.04,6.87-21.68,.2-.36,.4-.72,.61-1.08,1.01-1.65-1.58-3.16-2.59-1.51-2.82,4.6-4.76,9.94-6.15,15.12-2.95,10.99-3,22.86,1.1,33.57,1.13,2.94,2.65,5.7,3.84,8.62,1.09,2.68,1.99,5.44,2.68,8.25,1.37,5.53,1.93,11.24,1.66,16.93-.55,11.42-4.61,22.62-11.69,31.61-5.56,7.06-12.6,12.83-20.67,16.8-7.47,3.68-15.7,5.75-23.97,6.56-15.55,1.53-31.31-.97-46.24-5.3-5.55-1.61-11.02-3.49-16.39-5.63-1.91-.76-3.07-1.25-4.93-2.08-.92-.41-1.83-.84-2.75-1.27-.12-.06-.24-.12-.37-.18-1.72-.86-3.24,1.73-1.51,2.59h0l.03,.03h0Z"/><path class="cls-7" d="M503.76,738.84c.51,.1,1.02,.27,1.52,.44,.26,.09,.51,.18,.76,.28,.14,.05,.27,.11,.41,.16-.32-.13-.06-.03,.18,.08,.69,.31,1.36,.66,2.01,1.04,.37,.22,.74,.44,1.09,.68,.2,.13,.39,.26,.58,.4,.12,.09,.66,.49,.37,.27,.8,.62,1.56,1.3,2.26,2.04,1.6,1.67,2.81,3.49,3.86,5.82,.09,.21,.14,.31,.29,.69,.13,.34,.26,.69,.37,1.04,.24,.71,.44,1.42,.62,2.14,.39,1.61,.61,3.08,.72,4.7,.29,4.22-.18,8.46-1.07,12.59-1.25,5.83-3.26,11.5-5.65,16.95-1.51,3.45-3.17,6.84-4.93,10.17-1.66,3.14-3.55,6.16-5.19,9.31-3.04,5.82-4.53,12.65-2.31,19.01,2.08,5.96,6.77,10.5,12.08,13.71,6.26,3.79,13.48,5.98,20.67,7.14,8.12,1.31,16.39,1.36,24.53,.2s15.88-3.53,22.89-7.55,12.49-9.27,16.12-16.1c.92-1.73,1.7-3.54,2.34-5.39s-2.26-2.61-2.89-.8c-2.45,7.01-7.22,12.95-13.25,17.24-6.35,4.51-13.76,7.31-21.35,8.89s-15.94,1.95-23.88,1.11c-7.18-.76-14.45-2.53-20.91-5.8-5.34-2.71-10.22-6.46-12.81-11.87-1.11-2.31-1.68-5.04-1.62-7.71,.06-3.09,.92-6.22,2.28-9.13,1.2-2.59,2.76-5,4.14-7.49,1.91-3.45,3.72-6.95,5.38-10.53,2.64-5.69,4.97-11.56,6.56-17.63,1.98-7.61,2.99-16.03,.53-23.65-1.52-4.72-4.38-8.83-8.38-11.77-2.1-1.55-4.58-2.85-7.13-3.48-.13-.03-.26-.07-.39-.09-1.89-.37-2.69,2.52-.8,2.89h0Z"/><path class="cls-7" d="M867.58,162.51c-5.87-15.13-15.1-29.59-25.84-41.67-8.82-9.93-19.43-18.52-31.79-23.61-14.26-5.87-29.94-6.13-44.64-1.69-4.33,1.31-8.56,2.99-12.65,4.92-2.91,1.38-5.62,3-8.75,3.83-5.51,1.46-11.39,1.37-17.03,.93-15.71-1.23-31.22-5.63-46.24-10.19-17.06-5.18-33.87-11.16-50.68-17.1-13.91-4.92-27.83-10.1-42.11-13.85-15.01-3.94-31.07-3.56-46.44-2.48-17.29,1.22-34.47,4.56-50.74,10.61-26.55,9.89-49.02,26.82-69.2,46.38-16.33,15.83-31.38,34.19-50.88,46.29-8.8,5.46-18.6,9.24-28.97,10.17-15.22,1.37-29.81-3.91-44.83-5.38-18.2-1.78-36.94-.23-54.1,6.39-15.11,5.83-28.49,15.39-39.2,27.52-23.41,26.51-33.88,62.32-37.82,96.82-1.08,9.47-1.64,19-1.79,28.53-.03,1.93,2.97,1.93,3,0,.56-36.32,7.03-74.38,26.07-105.87,8.44-13.95,19.54-26.37,33.28-35.28,14.61-9.47,31.56-14.51,48.88-15.57,10.07-.62,20.2,0,30.16,1.52,7.93,1.22,15.69,3.46,23.69,4.23,10.39,1.01,20.91-.33,30.63-4.17,20-7.91,35.33-24.24,50.13-39.24,18.48-18.72,37.43-37.04,60.68-49.8,31.4-17.23,67.26-22.39,102.7-20.23,11.54,.7,22.82,4.85,33.7,8.5,15.82,5.31,31.47,11.08,47.26,16.48,16.35,5.59,32.84,10.99,49.7,14.87,12.26,2.82,25.71,5.59,38.3,3.37,6.62-1.17,12.22-5.03,18.43-7.4,7.94-3.03,16.34-4.9,24.86-4.96,14.29-.1,27.79,5.13,39.19,13.55,17.21,12.7,30,31.62,38.72,50.96,.58,1.29,.98,2.17,1.45,3.39,.69,1.78,3.59,1.01,2.89-.8h0l-.02,.03h0Z"/><path class="cls-7" d="M1058.96,497.92c-.38-3.92-.87-7.83-1.37-11.73-1.36-10.56-2.96-21.08-4.74-31.58-2.61-15.35-5.62-30.64-9.03-45.83-4.17-18.57-8.93-37-14.39-55.24-5.94-19.86-12.7-39.49-20.51-58.69s-17.17-39.14-27.82-57.65c-5.26-9.13-10.89-18.06-16.95-26.67-4.54-6.45-9.5-12.43-15.24-17.83-13.33-12.54-29.26-22.28-45.97-29.61-20.37-8.94-42.16-14.4-64.29-16.44-25.68-2.37-51.72,.03-76.65,6.59-6.74,1.78-13.4,3.86-19.97,6.21-1.8,.65-1.03,3.55,.8,2.89,25.2-9.02,51.82-13.87,78.61-13.58,22.88,.25,45.71,4.21,67.28,11.89,17.91,6.38,35.17,15.34,50.06,27.24,6.11,4.88,11.84,10.28,16.86,16.28,6,7.18,11.1,15.24,16.05,23.17,11.18,17.9,20.77,36.77,29.2,56.11,8.35,19.15,15.54,38.79,21.88,58.69,5.85,18.36,10.95,36.96,15.43,55.7,3.79,15.86,7.14,31.83,10.05,47.88,2.11,11.64,4,23.32,5.62,35.04,.75,5.42,1.46,10.97,2.03,16.47,.02,.24,.05,.47,.07,.71,.18,1.9,3.18,1.92,3,0h0v-.02h-.01Z"/><path class="cls-6" d="M1060.92,573.75s-52.13,116.21-173.84-4.8c15.32-121.39,173.84,4.8,173.84,4.8Z"/><path class="cls-3" d="M863.77,377.93c12.69,14.15-79.88-58.77-140.46-48.98-54.1,8.75-41.18-13.42-37.34-19.64-4.24,7.02-38.96-5.12-3.99-23.21-40.62-4.16-.65-50.12,116.41-28.73,94.26,23.94,106.54,38.2,110.03,48.34s-44.65,72.22-44.65,72.22h0Z"/><path class="cls-7" d="M454.89,528.39c-1.33,0-2.51-.21-3.55-.63-1.04-.41-1.86-1.04-2.45-1.9-.59-.85-.88-1.93-.88-3.26,0-.29,.01-.72,.04-1.31,.02-.58,.05-1.23,.09-1.93s.07-1.4,.09-2.08c.04-.68,.06-1.28,.07-1.79,.02-.51,.04-.86,.04-1.04,0-.97-.19-1.61-.56-1.93-.37-.33-.87-.5-1.5-.5h-.79v-3.08h.79c.63,0,1.13-.16,1.5-.48s.56-.97,.56-1.95c0-.18-.01-.52-.04-1.02-.01-.51-.04-1.11-.07-1.79-.02-.68-.05-1.37-.09-2.08-.04-.7-.07-1.35-.09-1.93-.01-.58-.02-1.03-.02-1.34,0-1.34,.29-2.43,.88-3.28,.6-.85,1.41-1.48,2.44-1.88,1.04-.42,2.22-.63,3.55-.63v1.56c-.78,0-1.47,.19-2.08,.56-.61,.36-1.09,.85-1.43,1.49-.35,.63-.52,1.36-.52,2.19,0,.26,0,.65,.02,1.16,.02,.5,.05,1.06,.07,1.68,.04,.62,.07,1.24,.09,1.85,.04,.61,.06,1.16,.07,1.65,.02,.48,.04,.84,.04,1.07,0,1.19-.24,2.19-.72,2.99-.47,.79-1.15,1.27-2.06,1.45v.57c.91,.17,1.59,.65,2.06,1.45,.48,.8,.72,1.79,.72,2.97,0,.23-.01,.58-.04,1.07-.01,.49-.04,1.04-.07,1.65-.02,.61-.05,1.22-.09,1.85-.02,.62-.05,1.18-.07,1.68-.01,.51-.02,.9-.02,1.16,0,.82,.17,1.55,.52,2.19,.35,.63,.82,1.13,1.43,1.49,.61,.37,1.3,.56,2.08,.56v1.54h-.01Zm26.75-6.91c-1.9,0-3.3-.38-4.19-1.15-.88-.76-1.34-2.03-1.36-3.8-.02-1.76-.04-3.42-.05-5-.01-1.59-.02-3.14-.02-4.66s0-3.06,.02-4.64c.01-1.58,.03-3.24,.05-5,.02-1.73,.48-2.98,1.36-3.74,.9-.78,2.29-1.16,4.19-1.16s3.3,.39,4.19,1.16,1.38,2.02,1.45,3.74c.02,.62,.04,1.22,.04,1.79,.01,.56,.01,1.12,0,1.68s-.04,1.16-.07,1.79h-2.83c.02-.64,.04-1.25,.04-1.83,.01-.57,.02-1.15,.02-1.72s-.01-1.18-.04-1.81c-.04-.91-.26-1.53-.68-1.86-.42-.35-1.12-.52-2.11-.52s-1.66,.17-2.08,.52c-.41,.33-.62,.96-.64,1.86-.04,1.87-.07,3.6-.09,5.18-.02,1.56-.04,3.09-.04,4.57s.01,2.99,.04,4.57c.02,1.56,.05,3.29,.09,5.18,.02,.91,.24,1.53,.66,1.88s1.1,.52,2.06,.52c1.05,0,1.79-.17,2.22-.52,.44-.35,.68-.97,.72-1.88,.02-.55,.04-1.09,.04-1.61s0-1.13-.02-1.79c-.01-.67-.03-1.46-.05-2.36h2.85c.05,1.15,.07,2.16,.07,3.05,.01,.87,0,1.74-.04,2.62-.07,1.77-.56,3.03-1.47,3.8-.9,.76-2.34,1.15-4.32,1.15h-.01Zm14.99-.29v-28.66h2.85v26.1h6.65v2.56h-9.5Zm22.48,.25c-1.95,0-3.34-.38-4.19-1.15-.84-.76-1.27-2.01-1.31-3.73-.05-4.04-.07-8.04-.07-12.02s.02-7.98,.07-12.02h2.85c-.02,2.69-.04,5.38-.05,8.08s-.01,5.4,0,8.1,.02,5.39,.02,8.08c0,.79,.2,1.35,.59,1.68,.41,.32,1.1,.48,2.1,.48s1.67-.16,2.06-.48c.39-.33,.59-.9,.59-1.68,.01-2.69,.02-5.38,.04-8.08,.01-2.7,.02-5.4,.02-8.1s-.02-5.39-.05-8.08h2.83c.05,4.04,.07,8.04,.07,12.02,.01,3.98-.01,7.98-.07,12.02-.01,1.72-.45,2.96-1.31,3.73-.85,.76-2.24,1.15-4.17,1.15h-.02Zm14.92-.25v-28.66h5.37c1.9,0,3.27,.37,4.12,1.11,.86,.73,1.3,1.94,1.31,3.64,.01,1.19,.02,2.22,.02,3.08s-.01,1.7-.04,2.53c-.06,1.01-.28,1.82-.66,2.4-.38,.58-1.01,.99-1.88,1.22v.54c.91,.25,1.56,.67,1.97,1.25s.63,1.39,.68,2.42c.05,1.05,.07,2.01,.05,2.87-.01,.86-.03,1.81-.05,2.85-.06,1.7-.51,2.91-1.34,3.65-.84,.74-2.2,1.11-4.08,1.11h-5.47Zm2.85-2.64h2.62c.96,0,1.62-.16,1.99-.48,.38-.33,.58-.9,.59-1.68,.04-1.01,.05-1.95,.05-2.79s-.02-1.8-.05-2.81c-.01-1.04-.2-1.76-.57-2.15-.36-.39-1-.59-1.92-.59h-2.7v10.5h-.01Zm-.01-13.11h2.79c.85,0,1.44-.2,1.77-.59,.35-.41,.53-1.08,.54-2.02,.04-1.03,.05-1.98,.04-2.85,0-.87-.01-1.82-.04-2.83-.01-.76-.21-1.3-.59-1.61-.37-.31-1.03-.47-1.99-.47h-2.53v10.37h.01Zm28.99,22.91v-1.56c.79,0,1.48-.19,2.08-.56,.61-.36,1.09-.85,1.43-1.49,.35-.63,.52-1.36,.52-2.19,0-.26-.01-.65-.04-1.16-.01-.5-.03-1.06-.05-1.68-.02-.62-.05-1.24-.09-1.85-.04-.61-.07-1.16-.09-1.65-.01-.49-.02-.85-.02-1.07,0-1.18,.23-2.17,.7-2.97,.48-.8,1.17-1.28,2.08-1.45v-.57c-.91-.18-1.6-.66-2.08-1.45-.47-.8-.7-1.8-.7-2.99,0-.24,0-.6,.02-1.07,.02-.49,.05-1.04,.09-1.65,.04-.61,.07-1.22,.09-1.85,.02-.62,.04-1.18,.05-1.68,.02-.51,.04-.9,.04-1.16,0-.82-.17-1.55-.52-2.19-.35-.63-.82-1.13-1.43-1.49-.6-.37-1.29-.56-2.08-.56v-1.56c1.33,0,2.5,.21,3.53,.63,1.04,.41,1.85,1.03,2.44,1.88,.6,.85,.9,1.94,.9,3.28,0,.31-.01,.76-.04,1.34-.01,.58-.04,1.23-.07,1.93-.02,.7-.05,1.4-.09,2.08-.04,.68-.07,1.28-.09,1.79-.01,.5-.02,.84-.02,1.02,0,.98,.19,1.63,.56,1.95s.87,.48,1.5,.48h.79v3.08h-.79c-.63,0-1.13,.17-1.5,.5-.37,.32-.56,.97-.56,1.93,0,.18,0,.53,.02,1.04,.02,.51,.05,1.11,.09,1.79,.04,.68,.07,1.37,.09,2.08,.04,.7,.07,1.35,.09,1.93s.04,1.02,.04,1.31c0,1.33-.3,2.41-.9,3.26-.58,.86-1.4,1.49-2.44,1.9-1.04,.42-2.22,.63-3.55,.63v.02h0Z"/><g><path class="cls-8" d="M417.31,368.46v-16.19h20.6v16.19h-20.6Zm0,98.45v-85.99h20.6v85.99h-20.6Z"/><path class="cls-8" d="M569.57,468.28c-9.22-.48-15.81-2.96-19.78-7.45-3.92-4.49-6.07-11.58-6.45-21.28-.05-1.53-.07-3.2-.07-5.02s.05-3.7,.14-5.52c.1-1.86,.26-3.56,.5-5.09h20.21c-.19,3.49-.31,6.93-.36,10.32s.07,6.5,.36,9.32c.19,1.77,.72,3.25,1.58,4.44,.91,1.15,2.2,1.96,3.87,2.44v17.84h0Zm7.17,0v-17.84c1.53-.53,2.7-1.36,3.51-2.51s1.31-2.6,1.5-4.37c.19-1.62,.31-3.22,.36-4.8,.1-1.62,.1-3.22,0-4.8-.05-1.62-.17-3.25-.36-4.87-.19-2.01-.81-3.82-1.86-5.45-1.05-1.62-2.72-2.72-5.02-3.3l-11.75-3.01c-4.97-1.29-8.91-3.13-11.82-5.52-2.91-2.44-5.04-5.45-6.38-9.03-1.29-3.58-2.01-7.76-2.15-12.54-.05-2.1-.07-3.96-.07-5.59s.02-3.39,.07-5.16c.38-9.7,2.58-16.77,6.59-21.21s10.75-6.9,20.21-7.38v17.84c-1.62,.48-2.87,1.29-3.73,2.44-.81,1.1-1.34,2.53-1.58,4.3-.29,2.44-.43,4.9-.43,7.38s.14,4.94,.43,7.38c.24,1.91,.91,3.65,2.01,5.23,1.1,1.58,2.87,2.65,5.3,3.22l10.17,2.44c5.35,1.29,9.55,3.2,12.61,5.73,3.11,2.48,5.33,5.59,6.66,9.32,1.39,3.68,2.17,7.98,2.36,12.9,.05,1.1,.07,2.25,.07,3.44s-.02,2.39-.07,3.58c-.05,1.19-.1,2.34-.14,3.44-.38,9.7-2.58,16.79-6.59,21.28s-10.65,6.97-19.92,7.45h.02Zm5.16-73c.14-3.3,.24-6.59,.29-9.89,.05-3.3,0-6.59-.14-9.89-.05-1.72-.55-3.13-1.5-4.23-.91-1.15-2.17-1.96-3.8-2.44v-17.91c8.89,.48,15.36,2.96,19.42,7.45,4.06,4.44,6.28,11.49,6.66,21.14,.1,2.05,.1,4.56,0,7.52-.05,2.96-.14,5.71-.29,8.24h-20.64Z"/><path class="cls-9" d="M516.73,401.53v-17.34c0-3.98-3.67-6.96-7.57-6.13l-16.91,3.58c-.88,.19-1.79,.18-2.67-.02l-15.37-3.45c-3.92-.88-7.64,2.1-7.64,6.12v8.86c.18,22.81,3.53,67.68,15.43,64.67,10.38-2.62,19.55-1.62,24.17-.5,1.15,.28,2.32,.2,2.86-.85,3.1-6.08,7.69-31.24,7.69-47.77"/><path class="cls-7" d="M493.71,349.72c.81-5.24,5.32-9.1,10.62-9.1h8.81l-3.63,14.29c-1.21,4.77-5.5,8.1-10.42,8.1h-7.45l2.06-13.29h.01Z"/><rect class="cls-8" x="417.31" y="375.55" width="20.6" height="17.02"/></g><path class="cls-8" d="M379.66,682.67c7.47-49.44,175.31-26.7,135.5,54.73-30.01,61.39-144.63,5.65-135.5-54.73h0Z"/><path class="cls-3" d="M284.35,348.29c-23.36,16.35,51.39-143.65,142.48-152.99-3.61-25.49,42.73-34.91,26.36-2.65,16.01-5.17,26.51,27.85,12.63,36.3,19.89,17.62,12.06,34.28-22.64,44.6,38.29,18.33-4.67,38.54-29.2,15.18-34.33,14.01-76.94,122.94-76.94,122.94l-52.69-63.38h0Z"/><path class="cls-6" d="M347.42,447.56c64.19,44.77-28.88,234.67-139.27,143.9-145.66-119.77,139.27-143.9,139.27-143.9h0Z"/><path class="cls-3" d="M347.42,405.9c37.41-18.39,67.53,91.53-65.55,120.43-138.97,30.18-158.97-26.22-141.95-38.56-48.92,44.65-149.57-63.24,89.9-205.53,117.6-7.35,117.6,123.66,117.6,123.66h0Z"/><path class="cls-3" d="M194.32,528.17c-58.03,4.26-46.12,267.49,146.31,224.08,71.57,32.21,132.49,.55,80.62-19.54,26.98,3.36,61.29-14.17,10.9-34.43,48.05,21.96,38.23-29.92,10.56-34.03,26.82-20.7-31.5-59.11-70-20.29-5.99,6.04-14.16,9.47-22.66,9.79-45.31,1.75-50.83-10.24-87.93-36.2s-37.78-91.58-67.8-89.38h0Z"/><circle class="cls-6" cx="491.76" cy="720.99" r="9"/><path class="cls-2" d="M227.37,446.87c4.78,24.38-12.56,36.09-27.83,37.86-21.43,2.48-37.83-7.44-41.32-26.66-2.75-15.12,6.84-39.98,41.32-39.03,15.37,.42,24.87,12.75,27.83,27.83h0Z"/><path class="cls-2" d="M378.02,427.52c0,16.43-11.87,26.55-27.82,26.55s-28.85-13.32-28.87-29.74c-.03-23.62,26.42-28.46,26.08-18.42,23.81-9.71,30.61,21.61,30.61,21.61h0Z"/><ellipse class="cls-7" cx="251.94" cy="409.74" rx="5.51" ry="7.56"/><ellipse class="cls-7" cx="295.3" cy="409.74" rx="5.27" ry="7.56"/><path class="cls-7" d="M252.34,366.13c-5.74-1.39-12.13,.99-16.54,4.57-2.57,2.09-4.65,4.74-6.36,7.57-1,1.66,1.59,3.17,2.59,1.51,2.48-4.11,5.88-7.78,10.38-9.65,2.58-1.07,5.12-1.49,7.87-1.29l.66,.06c.33,.03-.31-.07,.16,.03,.15,.03,.29,.05,.44,.08,1.88,.45,2.68-2.44,.8-2.89h0Z"/><path class="cls-7" d="M286.4,370.11c5.55-.62,12.26,1.04,15.61,5.99,1.08,1.59,3.68,.09,2.59-1.51-3.68-5.44-10.26-7.61-16.61-7.55-.53,0-1.07,.02-1.59,.08-.81,.09-1.5,.63-1.5,1.5,0,.74,.69,1.59,1.5,1.5h0Z"/><path class="cls-7" d="M908.6,395.17c70.67-42.47,195.86,82.72,152.32,178.58-84.44,82.95-319.16-78.31-152.32-178.58h0Z"/><path class="cls-6" d="M768.07,420.59c-24.89-10.12,9.6,125.82,42.31,176.09,39.76,19.25,2.91-153.98-42.31-176.09h0Z"/><path class="cls-1" d="M774.31,464.26v-6.41c0-2.5,2.79-3.98,4.86-2.58l4.72,3.2c1.94,1.31,4.59,.61,5.62-1.5l3.94-8.09s-10.09-17.28-14.97-20.51c0,0-2.09,12.46-18.91,6.86,0,0,0,17.58,4.01,32.59l5.16,1.02c2.89,.57,5.58-1.64,5.58-4.59h-.01Z"/><path class="cls-4" d="M425.68,241.39c11.01,21.92,94.86,76.91,174.4,37.13,52.59,12.31,56.48,53,56.48,53l101.4-23.3s-27.36-48.28,44.9-40.05c19.1,2.18,38.46-2.92,53.4-15.02,25.4-20.57,27.64-49.13,27.64-49.13,0,0-27.35-8.74-93.31,1.88-17.84,2.87-35.41-6.77-42.34-23.46C721.26,117.35,688.38,1.5,645.04,0c-52.79-.04,15.87,88.47-12.51,98.55-39.78,14.11-44.98-79.22-84.72-70.34-68.93,15.41,74.65,193.44,12.72,209.54-40.05,10.41-134.84,3.63-134.84,3.63h0Z"/><path class="cls-5" d="M417.75,184.79c-39.78-31.41-111.39,31.9,32.95,81.29,167.51-16.66,132.68-62.05,115.59-92.48-4.76,45.3-44.43-34.97-74.26-31.52-23.34,2.71-21.43,22.46-21.43,22.46,0,0-11.41-16.2-37.09-12.5-6.88,.99-13.12,4.89-16.53,10.95-8.3,14.75,.77,21.79,.77,21.79h0Z"/><path class="cls-5" d="M737.23,154.38s.23,73.72,76.46,52.95c67.39-18.37,70.2,3.08,70.2,3.08,0,0,66.14-110.9,.04-128.18-24.12,0-28.71,28.15-28.71,28.15,0,0-23.23-35.68-42.48,17.58-20.84-49.44-45.11-12.9-44.72,2.03,.48,18.11-9.94,27.34-30.81,24.39h.02Z"/><path class="cls-6" d="M651.67,316.1c-.12-10.02,50.1-22.77,102.42-17.73,4.2,21.96,30.48,80.69-33.66,110.05-1.4-44.21-54.23-27.49-53.41-25.63,2.67-15.33,.7-17.4-15.36-66.69h0Z"/><path class="cls-5" d="M667.03,382.79c8.11-9.81,55.43-11.51,53.41,25.63-33.96,27.18-59.24,21.73-59.87,21.31s-9.14-.85-2.13-17.22,8.59-29.72,8.59-29.72Z"/><path class="cls-7" d="M708.62,359.37c-.78,3.53-5.07,6.54-8.68,6.54s-5.24-3.03-4.4-6.54c1.1-4.64,5.28-8.16,8.81-7.39,3.89,.85,5.08,3.72,4.27,7.39Z"/><path class="cls-3" d="M979.52,477.57c-36.7,3.37-11.03,70.48-89.38,65.27-40.01-15.61-64.54-35.83-64.54-35.83,0,0,12.88-14.15,4.33-23.92-4.75-5.43-13.02-6.46-18.95-2.35-8.29,5.75-7.33,17.18-7.33,17.18,0,0-72.19-9.19-44.35,30.19-11.86,27.79,14.5,37.46,14.5,37.46,0,0,2.39,21.29,46.58,13.66,0,21.63,95.14,117.73,182.93-10.52-6.85-110.91-23.79-91.14-23.79-91.14h0Z"/><path class="cls-7" d="M921.93,522.7c-4.61,6.78,55.41-12.45,90.5,63.38,37.53-20.51,0-82.29,0-82.29,0,0-24.49-78.11-90.5,18.91h0Z"/><path class="cls-3" d="M1031.44,272.61c-97.86-29.49-130.8,6.81-178.29,76.08-42.36,61.79,82.99,194.43,155.56,115.84,76.12,13.05,131.51-159.13,22.73-191.92h0Z"/><path class="cls-8" d="M981.46,228.95c-34.22-20.54-136.84,41.34-35.48,58.36-64.75,29.02,11.2,78.6,35.48,44.41-33.97,36.96,29.79,69.25,36.82,57.44,6.13,10.9,1.89,25.57,1.89,25.57,0,0,28.03-8.3,29.55,14.66s-11.94,33.03-21.1,34.4,46.88,12.42,82.71-38.8c11.98-17.12,31.11-45.23,5.03-84.28,34.58-3.64,25.78-37.88,0-38.41,28.29-33.22-73.01-139.88-134.89-73.35h-.01Z"/><path class="cls-5" d="M658.77,702.68c-13.13-19.21-36.94-61.78-45.68-86.43-3.14-8.85,.15-18.71,8.05-23.79,11.18-7.18,25.18-15.04,45.12-16.63,4.85-.39,9.83,1.37,12.77,5.25,20.69,27.39,39.13,65.81,42.3,95.75,.49,4.58-1.39,9.09-4.95,12.02-8.91,7.32-22.76,18.82-36.84,22.02-7.93,1.8-16.17-1.48-20.76-8.19h0Z"/><path class="cls-8" d="M664.83,695.05c-11.73-15.48-35.17-55.14-42.75-75.68-2.23-6.04-.49-12.88,4.25-16.77,8.99-7.37,20.48-15.91,38.31-17.96,4.57-.52,9.07,1.55,11.96,5.46,13.34,18.12,28.81,56.49,35.9,75.06,2.4,6.27,.48,13.43-4.62,17.34-8.19,6.27-20.59,14.95-29.35,17.41-5.02,1.41-10.37-.48-13.69-4.87h-.01Z"/><path class="cls-3" d="M666.67,772.59c-30.66-2.25-42.94-36.92-19.49-61.16,14.09-9.78,3.52-23.13,3.52-23.13,0,0,20.94-17.4,11.82-28.17s-21.54,3.33-24.03,6.64l-21.81-40.42s-73.8,96.5-50.03,172.12,100.01-25.88,100.01-25.88h0Z"/><path class="cls-3" d="M716.82,660.47c-23.32,10.39-50.14-28.1-5.89-22.13l-17.94-37s49.74-12.82,76.99,20.74c2.08,2.56,5.21,4.02,8.51,3.9,54.45-1.94,143.61,50.04,138.19,100.44-5.61,52.08-105.96-12.39-105.96-12.39,0,0-50.46-54.35-89.7-41.19l-4.2-12.36h0Z"/><path class="cls-5" d="M566.66,798.47c-8.12-3.31,45.42,113.45,132.92,55.16,70.38-46.89-29.73-85.88-29.73-85.88,0,0-35.97,58.12-103.19,30.73h0Z"/><path class="cls-5" d="M833.65,719.62c0,15.84,56.8,8.54,74.23-21.28,9.03-15.46,33.01,123.29-23.86,120-58.28-3.38-50.37-98.72-50.37-98.72Z"/><path class="cls-1" d="M878.82,731.69c9.89-17.97,45.39,9,12.51,27.28-35.41,19.69-12.51-27.28-12.51-27.28Z"/><path class="cls-3" d="M891.33,758.97s-67.07,197.96-237.28,65.52c-49.17-123.83,179.66-229.24,237.28-65.52h0Z"/><path class="cls-3" d="M655.43,772.59s-36.16-.75-29.14,29.99c5.83,25.49,32.78,12.38,32.78,12.38l-3.64-42.37h0Z"/><path class="cls-6" d="M816.51,890.15s-106.45,43.83-158.18-42.22c-5.55-9.23-4.9-20.9,1.6-29.49,57.83-76.45,214.45-89.57,231.41-59.47,17.57,31.19,35.72,83.02-74.82,131.18h0Z"/><ellipse class="cls-7" cx="875.22" cy="360.44" rx="6.75" ry="3.75" transform="translate(125.46 938.18) rotate(-60)"/><ellipse class="cls-7" cx="924.78" cy="402.49" rx="6.75" ry="4.77" transform="translate(-50.65 658.93) rotate(-38.25)"/><g><path class="cls-5" d="M210.95,459.03c-.35-4.26,1.42-8.47,4.77-11.13,24.86-19.76,95.11-11.2,100.52-1.42,4.51,8.14,5.15,34.48-24.6,50.65-16.16,8.78-35.51,10.14-52.26,2.53-23.02-10.46-27.61-30.63-28.43-40.63h0Z"/><path class="cls-7" d="M212.45,459.03c-.21-3.19,.72-6.38,2.92-8.76,1.35-1.46,3.09-2.59,4.79-3.61,3.41-2.05,7.12-3.55,10.91-4.73,8.75-2.73,17.95-3.87,27.07-4.3,9.47-.44,18.99-.08,28.41,1.03,7.25,.86,14.63,2.09,21.53,4.54,1.29,.46,2.14,.79,3.31,1.37,.48,.24,.95,.49,1.4,.76,.21,.12,.41,.25,.61,.39,.09,.06,.19,.13,.28,.19,.35,.24-.06-.06,.13,.09,.28,.23,.53,.47,.78,.73,.06,.06,.12,.13,.17,.2,.2,.24-.2-.29-.03-.04,.12,.18,.22,.36,.32,.54,.49,.91,.75,1.65,1.08,2.85,1.78,6.41,.88,13.64-1.41,19.92-3.55,9.75-10.95,17.58-19.59,23.11-11.57,7.4-25.35,10.99-39.05,9.44-12.41-1.41-24.62-7.24-32.79-16.8-5.5-6.43-8.9-14.43-10.31-22.74-.24-1.42-.4-2.74-.52-4.19-.16-1.91-3.16-1.93-3,0,.67,8.04,3.02,15.97,7.23,22.88,6.36,10.45,16.71,17.8,28.28,21.5,13.83,4.42,28.95,3.24,42.22-2.46,11.08-4.76,21.36-12.67,27.37-23.28,3.99-7.04,6.16-15.39,5.32-23.5-.29-2.77-.86-5.58-2.14-8.08-.92-1.8-2.65-2.97-4.4-3.88-6.03-3.15-13.12-4.48-19.76-5.56-9.53-1.55-19.22-2.25-28.88-2.18s-19.89,.9-29.52,3.23c-4.31,1.04-8.54,2.42-12.57,4.29s-8.28,4.27-10.77,7.97c-1.79,2.65-2.59,5.91-2.38,9.08,.13,1.92,3.13,1.93,3,0h0Z"/></g><path class="cls-7" d="M411.61,658.2c4.35,.12,8.68,.72,12.94,1.49,8.73,1.58,17.51,4.17,25.12,8.83s13.76,11.68,15.13,20.41c.45,2.88,.05,5.66-1.68,7.94s-4.7,3.63-7.6,4.34c-4.38,1.07-9.03,.93-13.48,.43-6.3-.71-12.51-2.34-18.53-4.32-1.78-.58-3.54-1.21-5.29-1.86l-.8,2.89c9.58,1.58,19.49,3.61,28.3,7.86,2.59,1.25,5.16,2.72,7.31,4.65,.8,.73,1.65,1.62,2.13,2.32,.27,.39,.52,.78,.75,1.2,.11,.2,.21,.4,.3,.6,0,.02,.07,.16,.19,.48,.56,1.61,.58,2.75,.1,4.28-.15,.5-.22,.64-.3,.82-.2,.41-.41,.81-.66,1.2-.52,.82-.84,1.2-1.62,1.97-3.13,3.14-7.64,5.07-12.04,6.28-6.7,1.84-13.77,2.09-20.64,1.19-1.46-.19-2.07,2.2-.76,2.8,5.56,2.5,11.69,5.37,15.8,10.04,1.07,1.22,1.85,2.53,2.2,4.01,.09,.38,.08,.28,.1,.73,.01,.34,.01,.68-.02,1.02,0,.03-.06,.4-.15,.73-.04,.14-.08,.27-.12,.41-.02,.07-.2,.55-.11,.31-1.07,2.54-3.37,4.36-5.68,5.84-2.51,1.61-5.31,2.92-7.89,3.92-1.55,.6-3.13,1.17-4.74,1.62-1.86,.52-1.07,3.41,.8,2.89,4.53-1.26,9.07-3.16,13.05-5.65,2.72-1.7,5.51-3.89,6.93-6.84,1.53-3.17,1.02-6.62-.96-9.47-4.07-5.87-11.39-9.32-17.69-12.15l-.76,2.8c6.6,.86,13.39,.63,19.88-.9,5.04-1.19,10.14-3.21,14.09-6.66,3.07-2.69,5.19-6.5,4.43-10.66-.9-4.97-5.52-8.53-9.63-10.89-9.58-5.51-21.01-7.85-31.79-9.62-1.9-.31-2.63,2.21-.8,2.89,6.68,2.48,13.54,4.57,20.58,5.73,5.17,.85,10.47,1.27,15.68,.52,3.67-.53,7.35-1.73,10.18-4.19,2.5-2.17,3.86-5.26,4.06-8.53,.25-3.99-1.17-7.97-2.94-11.49-2.23-4.42-5.41-8.23-9.29-11.3-7.63-6.04-17.08-9.45-26.49-11.53-3.76-.83-7.57-1.45-11.4-1.88-1.96-.22-3.97-.49-5.94-.49h-.27c-1.93-.05-1.93,2.95,0,3h.02Z"/><path class="cls-2" d="M225.42,560.85s-33.19,28.63-58.73,2.02c17.37-47.99,45.01-44.69,58.73-2.02Z"/><path class="cls-7" d="M648.28,769.9c-10.03,.01-20.06,5.89-23.73,15.37-2.02,5.22-2.1,11.03-1.37,16.51,.11,.81,.61,1.49,1.5,1.5,.73,0,1.61-.7,1.5-1.5-1.05-7.95-.27-16.68,5.82-22.52,3.65-3.5,8.38-5.33,13.32-6.1,.11-.02,.22-.03,.33-.05,.44-.07-.14,.01,.12-.02,.19-.02,.38-.05,.57-.07,.34-.04,.67-.07,1.01-.09,.3-.02,.61-.04,.92-.04,1.93,0,1.93-3,0-3h0Z"/><path class="cls-7" d="M630.19,684.84c1-6.61,3.66-12.95,8.05-18.04,3.29-3.82,7.59-7.23,12.56-8.47,1.77-.44,3.59-.56,5.25-.03,1.39,.44,2.44,1.5,3.54,2.72,2.16,2.39,3.57,5.35,3.1,8.7-.39,2.8-1.82,5.37-3.43,7.65-2.66,3.75-6.11,6.94-9.61,9.89-1.48,1.25,.65,3.36,2.12,2.12,5.46-4.6,11.68-10.35,13.54-17.54,1.1-4.26,.02-8.4-2.66-11.81-1.13-1.44-2.47-2.96-4.07-3.86-1.83-1.03-4-1.33-6.07-1.14-5.5,.52-10.53,3.77-14.4,7.55-5.86,5.72-9.59,13.42-10.81,21.48-.29,1.89,2.61,2.7,2.89,.8h0v-.02h0Z"/><path class="cls-7" d="M723.59,655.64c-1.88,1.95-3.87,3.41-6.42,4.52-.09,.04-.34,.14-.66,.26-.29,.11-.59,.21-.89,.31-.59,.19-1.19,.35-1.8,.49-.3,.07-.6,.13-.91,.18-.14,.02-.28,.05-.42,.07-.08,.01-.5,.07-.23,.03-.61,.08-1.21,.12-1.82,.15-2.59,.11-4.5-.14-6.92-.77-1.15-.3-2.28-.68-3.38-1.12-.08-.03-.38-.15-.14-.06-.15-.06-.29-.12-.43-.19-.27-.12-.53-.24-.79-.37-.52-.25-1.03-.52-1.53-.8-.98-.55-1.92-1.15-2.82-1.81-.1-.07-.2-.15-.3-.23-.21-.16,.15,.12-.14-.11-.21-.17-.41-.33-.62-.51-.4-.34-.78-.69-1.15-1.05s-.7-.71-1.04-1.09c-.16-.18-.32-.37-.47-.56-.03-.04-.25-.31-.12-.15s-.11-.14-.15-.2c-.53-.73-.99-1.49-1.38-2.3l-.12-.27c.11,.25,.05,.14-.01-.04s-.14-.38-.2-.58c-.12-.38-.2-.76-.28-1.15-.05-.22-.02-.16,0,.05-.01-.1-.03-.2-.03-.31-.01-.19-.02-.38-.02-.56s.02-.37,.02-.56c.01-.42-.07,.23,.03-.24,.08-.37,.18-.72,.3-1.07,.08-.25-.13,.28-.02,.04,.04-.09,.09-.19,.13-.28,.09-.17,.18-.34,.29-.51,.05-.08,.1-.15,.15-.23,.03-.05,.25-.35,.1-.15s.05-.07,.09-.11c.08-.08,.15-.17,.22-.25,.3-.33,.63-.62,.98-.91-.29,.24,.26-.18,.37-.26,.21-.14,.43-.28,.65-.4,.48-.28,.97-.52,1.48-.75,.26-.11-.12,.04,.15-.06,.15-.06,.31-.12,.46-.18,.3-.11,.6-.22,.91-.31,.66-.21,1.34-.39,2.01-.55,3.51-.81,7.13-.99,10.74-.97,1.17,0,2.33,.04,3.5,.09,1.93,.09,1.93-2.91,0-3-4.32-.19-8.66-.12-12.94,.58-2.77,.45-5.61,1.21-8.03,2.69-3.53,2.15-5.41,5.91-4.2,9.98,1.24,4.18,4.7,7.47,8.24,9.8,4.29,2.83,9.41,4.55,14.55,4.76,5.69,.23,11.22-1.64,15.54-5.35,.57-.48,1.1-1,1.62-1.54,1.34-1.39-.78-3.52-2.12-2.12h0l-.03,.03h0Z"/><path class="cls-7" d="M511.3,147c-3.12-2.67-7.16-4.55-11.11-5.58-8.22-2.14-16.82-.06-23.43,5.23-5.23,4.19-7.56,10.49-5.9,17.03,1.97,7.75,8.02,14.14,14.05,19.04,.89,.72,1.79,1.42,2.71,2.1s1.88,1.61,2.97,1.9c1.89,.51,3.78-1.33,3.29-3.24-.27-1.06-1.21-1.75-1.97-2.48-.88-.84-1.75-1.68-2.63-2.52-1.77-1.69-3.56-3.37-5.36-5.03-6.91-6.37-14.16-12.6-22.37-17.26-7.37-4.18-15.77-7.05-24.34-6.24-4.73,.45-9.48,1.85-13.54,4.36-6.51,4.01-10.69,10.93-10.17,18.69,.71,10.72,8.51,19.78,16.28,26.48,6.39,5.5,13.53,10.09,20.92,14.12,2.26,1.23,4.54,2.41,6.85,3.54,1.15,.56,2.29,1.13,3.46,1.66,.98,.45,1.98,.59,2.88-.14,.68-.55,1.03-1.41,.89-2.28-.15-.92-.85-1.51-1.49-2.12-1.21-1.15-2.44-2.28-3.69-3.38-11.66-10.31-24.82-19.29-38.82-26.11-6.64-3.23-13.59-6.04-20.82-7.63-5.94-1.3-12.34-1.88-18.26-.16s-11.24,5.41-14.56,10.49c-3.89,5.94-4.27,13.28-2.53,20.01,1.18,4.57,3.25,8.89,5.66,12.93,.99,1.66,3.58,.15,2.59-1.51-3.91-6.55-7.22-14.36-6.07-22.16,.82-5.57,4.07-10.37,8.7-13.51s9.46-4.39,14.81-4.31c6.07,.09,12.06,1.67,17.75,3.68,13.61,4.82,26.28,12.53,37.87,21.07,5.25,3.87,10.31,8.01,15.04,12.5,.11,.11,.7,.8,.81,.78l.26-.43c.41-.35,.35-.57-.18-.64-.16-.15-.71-.34-.87-.41-1.14-.54-2.27-1.1-3.39-1.66-2-1.01-3.99-2.05-5.95-3.13-3.65-2.01-7.23-4.16-10.69-6.49-5.5-3.7-10.73-7.87-15.19-12.79-3.15-3.47-6-7.41-7.7-11.8-1.28-3.3-1.93-6.98-1.47-10.23s1.75-5.99,3.65-8.25c5.56-6.63,15.22-9.12,23.74-8.1,7.91,.95,15.21,4.83,21.68,9.29,7.22,4.97,13.72,10.92,20.07,16.93,.78,.74,1.56,1.48,2.34,2.23,.83,.8,1.67,1.86,2.62,2.51l.15,.15c.15,.22,.2,.2,.16-.06v-.2c.36-.04,.39-.11,.11-.23-.17-.34-.97-.68-1.28-.91-.96-.69-1.9-1.41-2.81-2.16-3.12-2.54-6.09-5.36-8.54-8.56-3.51-4.59-6.5-10.66-4.62-16.52,2.14-6.67,10.01-10.81,16.51-11.77,5.76-.85,11.67,.79,16.57,3.81,.61,.38,1.2,.78,1.79,1.2,.04,.03,.41,.31,.19,.14-.2-.15,.02,.02,.07,.06l.18,.15c1.46,1.25,3.59-.86,2.12-2.12h0v.04h.01Z"/><path class="cls-7" d="M769.54,129.99c.04-.33-.06,.42-.02,.12,.04-.27,.08-.54,.12-.8,.14-.86,.32-1.71,.51-2.56,.62-2.72,1.45-5.41,2.56-7.96,2.77-6.41,7.61-12.69,14.8-14.21,2.14-.45,4.49,.21,6.53,1.39,2.61,1.51,4.77,3.71,6.65,6.04,4.73,5.86,7.93,13.07,9.92,20.29s2.95,14.92,1.03,22.12c-.41,1.55-.97,3.06-1.72,4.48-.28,.52-.57,1.02-.9,1.51-.13,.19-.58,.77-.28,.41-.13,.15-.25,.3-.39,.44-.06,.07-.13,.12-.19,.18-.22,.24,.23-.08,.05-.04-.4,.09,0,.03,0,.03-.06,0,.34,0,.44,.02,.09,.02,.26,.12,.38,.23-.23-.2,.25,.36,0-.03-.2-.3,.06,.37-.03-.09-.03-.18-.09-.37-.13-.55-.02-.1-.03-.2-.05-.3,.04,.2,.03,.32,0,0-.02-.26-.05-.51-.06-.77-.03-.61-.03-1.23,0-1.85,.11-3.66,.6-6.51,1.29-10.1,1.8-9.36,4.59-18.76,8.48-27.38,1.91-4.24,4.12-8.4,6.91-12.13,2.14-2.87,4.84-5.67,8.12-7.27,1.13-.55,2.97-1.06,4.24-1.12,1.79-.08,3,.15,4.82,.86,.52,.2,1.61,.76,2.37,1.23,1.01,.62,1.78,1.2,2.64,1.93,2.09,1.79,3.94,3.86,5.6,6.05,.78,1.03,.99,2.17,1.28,3.42,.34,1.47,.63,2.95,.86,4.44,.42,2.72,.62,5.49,.55,8.25-.1,4.16-.84,8.33-2.45,12.17-.62,1.48-1.39,2.91-2.26,4.26-.64,1-1.51,2.59-2.54,3.25-.53,.34-1.25,.22-1.67-.26-.51-.58-.24-1.3-.1-1.97,.34-1.63,.7-3.25,1.08-4.87,1.94-8.32,4.28-16.57,7.28-24.57,3.01-8.01,6.69-16.26,12.34-22.8,2.13-2.46,4.6-4.83,7.62-6.15,2.63-1.14,5.54-1.5,8.39-1.31,7.4,.51,13.98,4.92,18.66,10.45,3.13,3.69,5.5,8.02,7.28,12.5,.7,1.77,3.61,1,2.89-.8-3.56-8.97-9.39-17.46-18.12-22.04-6.24-3.27-13.84-4.37-20.43-1.48-3.31,1.45-6.08,3.99-8.42,6.7-2.95,3.41-5.36,7.26-7.44,11.25-4.52,8.63-7.72,17.94-10.35,27.3-1.12,3.98-2.12,7.99-3.03,12.02-.37,1.62-1.06,3.54-.96,5.21,.13,2.2,2.05,3.98,4.24,4.01s3.38-1.54,4.56-3.08c1-1.31,1.88-2.71,2.64-4.17,1.97-3.8,3.08-7.93,3.55-12.17,.64-5.81-.05-11.73-1.4-17.39-.34-1.41-.6-2.53-1.47-3.68-.54-.71-1.08-1.41-1.65-2.09-.96-1.16-1.97-2.28-3.05-3.32-3.3-3.19-7.4-5.86-12.1-6.13-8.79-.5-15.23,7.73-19.23,14.5-5.36,9.08-8.84,19.37-11.32,29.57-1.05,4.34-1.92,8.73-2.42,13.17-.29,2.52-.71,5.53,.06,8.01s3.23,2.43,4.73,.6c4.2-5.11,5.05-12.66,4.73-19.03-.43-8.53-2.93-16.99-6.74-24.6-3.11-6.22-7.53-12.98-13.88-16.3-2.55-1.33-5.39-1.96-8.24-1.36-3.92,.83-7.54,3.11-10.31,5.95-4.82,4.94-7.63,11.68-9.15,18.32-.31,1.34-.57,2.69-.73,4.05-.23,1.91,2.78,1.9,3,0h.03Z"/><path class="cls-7" d="M826,505.57c-13.41-5.49-27.75-10.03-42.35-10.51-8.23-.27-17.32,.81-24.25,5.65-4.68,3.27-8.08,8.3-8.18,14.14-.1,5.84,2.85,10.61,7.19,13.92,5.57,4.25,12.94,5.41,19.78,4.79,1.11-.1,2.22-.25,3.32-.42s1.46-1.81,.66-2.51c-4.32-3.78-9.97-7.26-15.95-6.01-4.59,.95-7.8,4.75-9.51,8.91-4,9.76-.89,22.27,7.91,28.32,6.8,4.69,15.59,4.61,23.35,2.9,1.63-.36,1.3-3.09-.4-2.95-2.66,.22-5.34,.5-7.93,1.13-1.53,.37-3.14,.85-4.44,1.76-2.07,1.44-2.54,3.78-1.12,5.88s3.92,3.71,6.14,5.02c2.55,1.51,5.22,2.8,7.93,3.99,1.62,.71,3.25,1.41,4.91,2.03,1.81,.68,2.59-2.22,.8-2.89-3.41-1.29-6.61-2.72-10.04-4.55-2.2-1.17-4.5-2.49-6.18-4.07-.2-.19-.39-.38-.58-.58-.06-.07-.46-.55-.25-.27-.14-.18-.26-.37-.38-.57-.04-.06-.07-.13-.1-.19-.2-.38,.06,.12-.05-.11s-.14-.49-.07-.19c-.02-.09-.06-.72-.02-.18-.02-.37,0-.08,.03-.16s.09-.19,.15-.25c.16-.18-.2,.21,.1-.1s.06-.11,.36-.31c.25-.16,.5-.31,.76-.44,.64-.32,1.4-.56,2.17-.76,2.55-.69,5.2-.98,7.82-1.19l-.4-2.95c-6.34,1.4-13.46,1.64-19.27-1.51-4.3-2.33-7.35-6.31-8.79-10.85s-1.48-8.99-.17-13.31c.35-1.16,.6-1.79,1.09-2.75,.22-.44,.47-.87,.73-1.29,.12-.19,.24-.37,.36-.55,.19-.27,.38-.52,.39-.53,.29-.36,.6-.71,.93-1.04,.15-.15,.3-.29,.46-.43,.11-.1,.7-.57,.46-.4,.36-.27,.74-.52,1.13-.74,.18-.1,.36-.19,.54-.29,.11-.06,.22-.11,.33-.16,.22-.1-.17,.06,.21-.08,2.19-.78,4.02-.75,6.26-.1,3.01,.87,5.79,2.8,8.22,4.93l.66-2.51c-1.91,.31-3.88,.47-5.84,.48-1.7,0-3.52-.13-4.97-.37-3.14-.53-5.75-1.42-8.33-3.03-2.01-1.25-3.91-3.05-5.14-4.96-.32-.5-.61-1.01-.87-1.54-.36-.74-.3-.59-.59-1.4-.19-.56-.35-1.13-.48-1.7-.06-.27-.11-.54-.15-.81-.03-.15-.05-.4-.02-.09-.02-.16-.04-.33-.05-.49-.05-.58-.07-1.17-.05-1.75,0-.28,.03-.55,.05-.82,.01-.15,.03-.29,.05-.44-.04,.34,0,0,.03-.15,.11-.59,.23-1.17,.4-1.74,.08-.27,.17-.54,.27-.81,.05-.14,.11-.29,.16-.43,.13-.32-.08,.16,.09-.23,1.16-2.54,2.49-4.14,4.65-5.93s5.36-3.32,8.28-4.21c4.06-1.25,8.3-1.74,12.54-1.79,13.16-.16,26.25,3.52,38.47,8.09,2.01,.75,4,1.53,5.98,2.34,1.79,.73,2.56-2.17,.8-2.89h0Z"/><path class="cls-7" d="M897.57,292.73s-58.24,54.84-52.25,75.94l-10.63-6.04s3.58-31.93,62.88-69.9h0Z"/><path class="cls-7" d="M609.45,93.56s-49.4,3.68-50.89,56.66c0,0-51.12-102.57-18.2-119.28,34.55-21.27,56.96,56.39,69.09,62.62h0Z"/><path class="cls-7" d="M639.55,88.74s.94-12.67-10.76-46.06C616.2,6.73,631.05,.02,645.03,.02c40.4,0,73.04,103.87,73.04,103.87,0,0-29.99-39.2-78.52-15.16h0Z"/><path class="cls-7" d="M203.69,234.79c-9.46-10.32-187.55,9.92-142.98,170.95,2.15,7.78,1.6,16.97-4.19,22.59-21.93,21.28-100.77,67.87-22.9,127.47,29.41,19.54,15.98,44.28-9.44,58.42-29.11,15.3-8.15,73.35,64.67,42.89,5.49-2.3,11.91,1.55,14.4,6.95,6.29,13.65-12.6,29.64-14.36,38.42-2.13,10.63,38.27,25.51,61.65-38.27,6.49-23.64-21.26-23.38-25.51-31.89s16.66-29.53,33.67-23.15-.3-63.06,35.62-81.02c-34.72,9.58-57.12-22.32-54.41-40.39,.98-1.8-5.06,5.01-24.4,4.43-17.19-.51-29.44-17.11-25.35-33.82,7.24-29.62,30.4-25.94,45.5-21.64,22.49,6.41,53.15-21.26,53.15-46.77s10.63-104.17,48.9-87.16c21.26-61.65,97.79,42.52,99.92,91.41,.66,15.11,12.79,19.47,14.97-2.54,4.88-49.24-48.52-193.38-148.9-156.9v.02h-.01Z"/><path class="cls-2" d="M217.51,483.83c24.42-20.45,90.39,.61,81.64,10.24-11.79,12.98-59.81,24.35-81.64-10.24h0Z"/><path class="cls-2" d="M687.61,782.61c-.5,.16-1.01,.29-1.52,.4-6.67,1.44-15.75,2.02-25.06-2.58-8.2-4.05-12.01-14.61-8.48-23.05,6.29-15.05,18.25-32.93,24.89-37.26,11.28-2.27,22.22,4.92,28.18,20.88,7.89,21.1-5.25,37.61-18.01,41.61Z"/><ellipse class="cls-7" cx="718.51" cy="741.78" rx="6.07" ry="4.14" transform="translate(-309.26 842.68) rotate(-51.52)"/><path class="cls-2" d="M796.08,717.81c-.2-.48-.38-.98-.53-1.48-2.02-6.52-3.38-15.51,.39-25.19,3.32-8.53,13.51-13.23,22.22-10.46,15.54,4.95,34.4,15.31,39.29,21.55,3.25,11.04-2.96,22.56-18.34,29.9-20.34,9.7-37.92-1.95-43.02-14.32h0Z"/><ellipse class="cls-7" cx="778.83" cy="725.38" rx="5.79" ry="3.95" transform="translate(-273.64 883.71) rotate(-51.52)"/><path class="cls-7" d="M686.1,760.55c2.55-11.48,7.73-22.26,15.18-31.37,7.1-8.68,15.97-15.78,25.75-21.23s19.91-9.07,30.6-11.22c9.72-1.95,19.86-2.59,29.71-1.25,8.22,1.12,16.56,3.66,23.25,8.72,.67,.5,1.38,1.1,2.03,1.69,1.43,1.29,3.56-.83,2.12-2.12-6.4-5.77-14.71-9-23.08-10.6-10.07-1.92-20.44-1.69-30.54-.1-11.03,1.74-21.81,5.24-31.78,10.26-10.31,5.19-19.83,12.13-27.58,20.71-8.05,8.9-14.08,19.52-17.38,31.07-.44,1.54-.83,3.08-1.17,4.64-.42,1.88,2.47,2.68,2.89,.8h0Z"/><path class="cls-7" d="M760.76,677.29c2.88-.32,5.78-.44,8.67-.54,7.3-.24,14.62-.03,21.89,.59,9.59,.83,19.14,2.42,28.41,5.04,10.2,2.87,20.08,7.01,28.91,12.89s17.09,14.3,22.57,24c.74,1.3,1.43,2.63,2.08,3.98,.84,1.74,3.43,.22,2.59-1.51-5.09-10.47-12.69-19.42-21.98-26.4-8.66-6.51-18.62-11.19-28.91-14.5-9.63-3.1-19.62-5.01-29.68-6.1-7.79-.85-15.64-1.19-23.47-1.04-3.65,.07-7.33,.18-10.96,.58-.05,0-.1,.01-.15,.02-1.9,.21-1.92,3.21,0,3h.03Z"/><path class="cls-2" d="M999,443.53c5.2,26.51-13.66,39.25-30.27,41.17-23.3,2.7-41.14-8.1-44.94-29-2.99-16.45,7.44-43.47,44.94-42.44,16.71,.46,27.05,13.86,30.27,30.27h0Z"/><path class="cls-7" d="M855.89,379.76c.09,3.23,1.1,6.58,4.84,6.75,2.85,.13,5.61-1.28,8.48-.8,.6,.1,1.2,.29,1.73,.59,.13,.08,.26,.16,.38,.24,.07,.05-.1-.12,.16,.13,.1,.1,.2,.21,.31,.31,.28,.29,.01-.02,.1,.11,.18,.26,.33,.52,.47,.8,.16,.31-.08-.25,.06,.16,.05,.13,.09,.26,.13,.4,.11,.35,.18,.7,.25,1.06,.03,.14,.07,.51,.03,.17,.02,.18,.04,.35,.06,.53,.03,.39,.05,.78,.06,1.18,.14,7.24-2.71,14.85-.23,21.95,3.99,11.45,19.43,9.21,28.64,7.49,4.85-.91,7.5,3.46,8.85,7.41,1.27,3.72,2.95,7.35,5.31,10.51,3.59,4.81,8.59,8.31,14.49,9.59,7.45,1.61,16.07,.15,22.85-3.32,.13-.07,.26-.13,.39-.19,1.71-.89,.2-3.48-1.51-2.59-.49,.26-1,.48-1.51,.7-.38,.16,.23-.09-.11,.05-.14,.06-.29,.12-.43,.17-.32,.13-.64,.25-.97,.37-.77,.28-1.54,.55-2.33,.79-4.16,1.28-8.36,1.92-12.71,1.56-5.27-.44-10.16-2.73-13.81-6.57-2.43-2.56-4.26-5.66-5.65-8.9-.85-1.99-1.36-4.13-2.29-6.09s-2.32-3.66-4.06-4.92-3.76-1.87-5.82-1.7-4.3,.77-6.46,1.04c-3.31,.42-6.7,.64-10.03,.29-2.15-.23-4.3-.76-6.08-1.8-1.4-.82-2.43-1.85-3.2-3.23-.45-.81-.57-1.11-.85-2.06-.11-.38-.21-.77-.29-1.16l-.12-.63c-.04-.23-.08-.55-.07-.46-.22-1.81-.2-3.65-.09-5.47,.22-3.65,.87-7.25,1.06-10.9,.15-2.87,.05-6.26-2.04-8.49-1.64-1.75-4.2-2.31-6.52-2.18-1.52,.08-3.01,.41-4.51,.67-.94,.16-2.22,.38-2.88,.02-1-.54-1.04-2.47-1.07-3.58-.05-1.93-3.05-1.93-3,0h0Z"/><path class="cls-6" d="M440.93,564.61c-1.54,0-2.65-.31-3.34-.92-.68-.62-1.04-1.64-1.09-3.05,0-.54-.02-1.05-.03-1.52,0-.48,0-.96,.01-1.43,0-.49,.02-1.01,.04-1.58h2.19c-.04,.85-.06,1.67-.07,2.45,0,.77,.02,1.56,.07,2.36,.03,.64,.21,1.09,.53,1.35,.33,.25,.89,.37,1.68,.37,.74,0,1.26-.12,1.58-.37,.32-.26,.51-.71,.54-1.35,.04-.41,.06-.86,.06-1.33s0-.97-.01-1.45c0-.48-.02-.93-.04-1.35-.02-.76-.17-1.34-.46-1.72-.29-.38-.75-.65-1.4-.82l-1.59-.39c-.78-.19-1.4-.47-1.85-.83-.45-.37-.77-.87-.96-1.49s-.3-1.41-.33-2.36c0-.62-.01-1.27-.01-1.93s.02-1.36,.03-2.05c.03-.95,.2-1.71,.5-2.28,.31-.57,.78-.99,1.42-1.25,.65-.27,1.5-.4,2.54-.4,1.49,0,2.57,.31,3.24,.92,.67,.61,1.03,1.62,1.07,3.04,.02,.59,.02,1.25,.01,1.96,0,.71-.02,1.45-.04,2.24h-2.21c.03-.88,.04-1.68,.04-2.39s0-1.41-.03-2.09c-.03-.64-.2-1.08-.52-1.33-.32-.26-.85-.39-1.61-.39s-1.29,.13-1.62,.39c-.32,.25-.49,.69-.53,1.33-.04,.73-.06,1.43-.06,2.11s.02,1.39,.06,2.14c.02,.82,.13,1.43,.34,1.82,.21,.38,.57,.64,1.09,.76l1.5,.34c.9,.21,1.61,.5,2.12,.87,.53,.37,.9,.87,1.13,1.49,.24,.62,.37,1.39,.4,2.32,.02,.4,.03,.83,.03,1.28s0,.88-.01,1.32c0,.44-.02,.86-.03,1.25-.06,1.41-.43,2.43-1.1,3.05-.67,.61-1.77,.92-3.3,.92h.02Zm12.46-.22l-1.92-17.2h2.32l.7,8.67,.56,6.78h.9l.42-6.78,.82-8.6h4.2l.73,8.6,.46,6.78h.89l.56-6.78,.76-8.67h2.29l-1.96,17.2h-4.23l-.54-6.62-.59-8.76h-.96l-.6,8.76-.53,6.62h-4.28Zm19.71-20.64v-2.29h3.01v2.29h-3.01Zm.37,20.64v-17.2h2.28v17.2h-2.28Zm10.19,0v-15.42h-1.53v-1.78h1.53v-2.24c0-1.34,.32-2.29,.97-2.87,.66-.58,1.72-.87,3.17-.87,.29,0,.62,.02,.99,.06,.37,.03,.71,.07,1.02,.11v1.73c-.28-.02-.58-.04-.92-.06-.32-.02-.67-.03-1.05-.03-.65,0-1.13,.12-1.45,.37-.31,.25-.45,.71-.44,1.39v2.39h3.32v1.78h-3.32v15.42h-2.29v.02h0Zm15.85,.21c-1.54,0-2.62-.29-3.24-.86s-.93-1.55-.93-2.92v-11.85h-1.36v-1.78h1.42v-4.87h2.29v4.87h2.98v1.78h-3.05v12.11c.01,.69,.14,1.16,.39,1.4,.26,.24,.77,.36,1.55,.36,.29,0,.53,0,.73-.01,.21-.02,.45-.04,.73-.07v1.71c-.23,.04-.47,.07-.72,.1-.24,.03-.5,.04-.79,.04h0Zm7.85,2.87l1.38-3.11h-2.18v-2.81h4.07v2.55l-1.73,3.37h-1.54Zm20.55-3.11v-22.93h4.66l1.28,7.27,1.92,13.6h1.22l-.29-12.75-.13-8.11h2.29v22.93h-4.8l-1.39-8.23-1.62-12.67h-1.26l.26,12.31,.16,8.58h-2.3Zm20.68,0v-20.88h-3.5v-2.05h9.24v2.05h-3.48v20.88h-2.26Zm16.19,.2c-1.56,0-2.67-.31-3.35-.92-.67-.61-1.02-1.61-1.05-2.98-.04-3.23-.06-6.43-.06-9.62s.02-6.39,.06-9.62h2.28c-.02,2.15-.03,4.3-.04,6.46v6.48c0,2.16,.01,4.31,.01,6.46,0,.63,.16,1.08,.47,1.35,.33,.26,.88,.39,1.68,.39s1.33-.13,1.65-.39c.32-.27,.47-.72,.47-1.35,0-2.15,.02-4.3,.03-6.46,0-2.16,.01-4.32,.01-6.48s-.01-4.31-.04-6.46h2.26c.04,3.23,.06,6.43,.06,9.62s0,6.39-.06,9.62c0,1.38-.36,2.37-1.05,2.98-.68,.61-1.79,.92-3.34,.92h0Zm11.94-.2v-22.93h7.61v2.05h-5.33v8.33h5.04v2.05h-5.04v8.46h5.33v2.05h-7.61Z"/><path class="cls-7" d="M204.85,298.15c.49,9.06-.14,18.27-1.05,27.28-2.05,20.32-6.62,40.51-14.45,59.39-5.22,12.58-11.97,24.52-20.4,35.24-1.2,1.53,1.3,3.19,2.49,1.67,14.68-18.66,24.2-40.94,29.84-63.89,4.02-16.36,6.26-33.23,6.63-50.07,.07-3.14,.11-6.3-.06-9.43-.11-1.9-3.1-2.12-2.99-.19h0Z"/><path class="cls-7" d="M259.69,236.32c2.98,.56,5.91,1.48,8.78,2.44,7.17,2.4,13.71,5.37,20.38,9.26,8.93,5.21,17.09,11.69,24.03,19.36,8.5,9.4,14.97,20.54,19.09,32.52,5.39,15.7,6.82,32.47,5.79,48.97-.16,2.48-.37,4.96-.63,7.43-.2,1.92,2.8,1.9,3,0,1.83-17.45,1.18-35.36-3.71-52.29-3.71-12.84-9.89-24.86-18.36-35.21-6.88-8.41-15.22-15.58-24.4-21.37-6.96-4.4-14.43-8.01-22.18-10.8-3.51-1.26-7.15-2.5-10.83-3.17-.05,0-.1-.02-.15-.03-1.89-.36-2.7,2.53-.8,2.89h-.01Z"/><path class="cls-7" d="M67.62,572.9c-8.12,3.59-15.95,8.13-23.26,13.14-6.02,4.12-11.84,8.71-16.74,14.15-4.41,4.89-8.37,10.76-9.47,17.38-1.39,8.32,2.22,15.84,7.94,21.73,1.35,1.39,3.47-.73,2.12-2.12-4.7-4.85-8-10.95-7.29-17.86,.62-6.05,4.16-11.63,8.08-16.16,8.62-9.96,20.21-17.34,31.74-23.5,2.75-1.47,5.54-2.91,8.4-4.17,1.76-.78,.24-3.36-1.51-2.59h0Z"/><path class="cls-8" d="M1118.63,372.89c.58,2.49,1.03,5.4,1.34,7.65,.77,5.7,1.17,12.22,.94,18.24-.27,7.15-1.33,14.25-4.05,20.98-2.67,6.59-7.25,12.45-13.59,15.98-8.51,4.74-18.82,4.98-28.24,3.67-1.58-.22-3.15-.49-4.72-.79-1.89-.36-2.69,2.53-.8,2.89,10.53,2.03,21.96,2.66,32.04-1.61,7.29-3.09,13.03-8.74,16.59-15.78,3.45-6.81,5-14.41,5.58-21.97,.5-6.57,.25-13.19-.52-19.73-.39-3.34-.7-6.93-1.64-10.18-.01-.05-.02-.09-.03-.14-.44-1.88-3.33-1.08-2.89,.8h0Z"/></svg>