<?xml version="1.0" encoding="UTF-8" standalone="no"?>
<!DOCTYPE svg PUBLIC "-//W3C//DTD SVG 1.1//EN" "http://www.w3.org/Graphics/SVG/1.1/DTD/svg11.dtd">
<svg width="100%" height="100%" viewBox="0 0 616 167" version="1.1" xmlns="http://www.w3.org/2000/svg" xmlns:xlink="http://www.w3.org/1999/xlink" xml:space="preserve" xmlns:serif="http://www.serif.com/" style="fill-rule:evenodd;clip-rule:evenodd;">
    <g id="Artboard1" transform="matrix(0.998379,0,0,1.03086,-529.141,0)">
        <rect x="530" y="0" width="617" height="162" style="fill:none;"/>
        <clipPath id="_clip1">
            <rect x="530" y="0" width="617" height="162"/>
        </clipPath>
        <g clip-path="url(#_clip1)">
            <g transform="matrix(2.39556,0,0,2.32007,125.101,-95.7553)">
                <path d="M292.447,96.9C290.947,96.9 289.647,96.7 288.447,96.2C287.247,95.7 286.347,95 285.747,94.1C285.047,93.2 284.747,91.9 284.747,90.5L284.747,89C284.747,88.3 284.847,87.6 284.847,86.8C284.847,86 284.947,85.2 284.947,84.5C284.947,83.7 285.047,83.1 285.047,82.5L285.047,81.3C285.047,80.2 284.847,79.5 284.447,79.1C284.047,78.7 283.447,78.5 282.747,78.5L281.847,78.5L281.847,75.1L282.747,75.1C283.447,75.1 284.047,74.9 284.447,74.6C284.847,74.2 285.047,73.5 285.047,72.4L285.047,71.3C285.047,70.7 285.047,70.1 284.947,69.3C284.947,68.5 284.847,67.8 284.847,67C284.847,66.2 284.747,65.5 284.747,64.8L284.747,63.3C284.747,61.8 285.047,60.6 285.747,59.6C286.447,58.7 287.347,58 288.447,57.5C289.647,57 290.947,56.8 292.447,56.8L292.447,58.5C291.547,58.5 290.847,58.7 290.147,59.1C289.447,59.5 288.947,60.1 288.547,60.8C288.147,61.5 287.947,62.3 287.947,63.2L287.947,64.5C287.947,65.1 288.047,65.7 288.047,66.4C288.047,67.1 288.147,67.8 288.147,68.5C288.147,69.2 288.247,69.8 288.247,70.3L288.247,71.5C288.247,72.8 287.947,73.9 287.447,74.8C286.947,75.7 286.147,76.2 285.147,76.4L285.147,77C286.147,77.2 286.947,77.7 287.447,78.6C287.947,79.5 288.247,80.6 288.247,81.9L288.247,83.1C288.247,83.6 288.247,84.3 288.147,84.9C288.147,85.6 288.047,86.3 288.047,87C288.047,87.7 287.947,88.3 287.947,88.9L287.947,90.2C287.947,91.1 288.147,91.9 288.547,92.6C288.947,93.3 289.447,93.9 290.147,94.3C290.847,94.7 291.647,94.9 292.447,94.9L292.447,96.9ZM315.6,93.2C313.5,93.2 311.9,92.8 310.9,91.9C309.9,91 309.4,89.6 309.4,87.7C309.4,85.7 309.4,83.9 309.3,82.1L309.3,71.7C309.3,69.9 309.3,68.1 309.4,66.1C309.4,64.2 309.9,62.8 310.9,61.9C311.9,61 313.5,60.6 315.6,60.6C317.7,60.6 319.3,61 320.3,61.9C321.3,62.8 321.8,64.2 321.9,66.1L321.9,70C321.9,70.6 321.9,71.3 321.8,72L318.6,72L318.6,66.1C318.6,65.1 318.3,64.4 317.8,64C317.3,63.6 316.5,63.4 315.4,63.4C314.3,63.4 313.5,63.6 313.1,64C312.6,64.4 312.4,65.1 312.4,66.1C312.4,68.2 312.3,70.1 312.3,71.9L312.3,82.1C312.3,83.8 312.4,85.8 312.4,87.9C312.4,88.9 312.7,89.6 313.1,90C313.6,90.4 314.3,90.6 315.4,90.6C316.6,90.6 317.4,90.4 317.9,90C318.4,89.6 318.7,88.9 318.7,87.9L318.7,84.1C318.7,83.4 318.7,82.5 318.6,81.5L321.8,81.5C321.9,82.8 321.9,83.9 321.9,84.9L321.9,87.8C321.8,89.8 321.3,91.2 320.3,92C319.4,92.8 317.8,93.2 315.6,93.2ZM332.3,92.9L332.3,60.9L335.5,60.9L335.5,90L342.9,90L342.9,92.9L332.3,92.9ZM357.4,93.2C355.2,93.2 353.7,92.8 352.7,91.9C351.8,91 351.3,89.7 351.2,87.7C351.1,83.2 351.1,78.7 351.1,74.3C351.1,69.9 351.1,65.4 351.2,60.9L354.4,60.9C354.4,63.9 354.4,66.9 354.3,69.9L354.3,87.9C354.3,88.8 354.5,89.4 355,89.8C355.5,90.2 356.2,90.3 357.3,90.3C358.4,90.3 359.2,90.1 359.6,89.8C360,89.4 360.3,88.8 360.3,87.9L360.3,69.9C360.3,66.9 360.3,63.9 360.2,60.9L363.4,60.9C363.5,65.4 363.5,69.9 363.5,74.3C363.5,78.7 363.5,83.2 363.4,87.7C363.4,89.6 362.9,91 361.9,91.9C361.1,92.8 359.6,93.2 357.4,93.2ZM374.1,92.9L374.1,60.9L380.1,60.9C382.2,60.9 383.8,61.3 384.7,62.1C385.7,62.9 386.1,64.3 386.2,66.2L386.2,72.4C386.1,73.5 385.9,74.4 385.5,75.1C385.1,75.8 384.4,76.2 383.4,76.5L383.4,77.1C384.4,77.4 385.1,77.8 385.6,78.5C386.1,79.2 386.3,80.1 386.4,81.2C386.5,82.4 386.5,83.4 386.5,84.4C386.5,85.4 386.5,86.4 386.4,87.6C386.3,89.5 385.8,90.9 384.9,91.7C384,92.5 382.4,92.9 380.3,92.9L374.1,92.9ZM377.3,90L380.2,90C381.3,90 382,89.8 382.4,89.5C382.8,89.1 383,88.5 383.1,87.6C383.1,86.5 383.2,85.4 383.2,84.5C383.2,83.5 383.2,82.5 383.1,81.4C383.1,80.2 382.9,79.4 382.5,79C382.1,78.6 381.4,78.3 380.4,78.3L377.4,78.3L377.4,90L377.3,90ZM377.3,75.3L380.4,75.3C381.3,75.3 382,75.1 382.4,74.6C382.8,74.1 383,73.4 383,72.3C383,71.2 383.1,70.1 383,69.1L383,65.9C383,65 382.8,64.4 382.3,64.1C381.9,63.8 381.1,63.6 380.1,63.6L377.3,63.6L377.3,75.3ZM402.853,96.9L402.853,95.2C403.753,95.2 404.553,95 405.153,94.6C405.853,94.2 406.353,93.6 406.753,92.9C407.153,92.2 407.353,91.4 407.353,90.5L407.353,89.2C407.353,88.6 407.353,88 407.253,87.3C407.153,86.6 407.153,85.9 407.153,85.2C407.153,84.5 407.053,83.9 407.053,83.4L407.053,82.2C407.053,80.9 407.353,79.8 407.853,78.9C408.353,78 409.153,77.5 410.153,77.3L410.153,76.7C409.153,76.5 408.353,76 407.853,75.1C407.353,74.2 407.053,73.1 407.053,71.8L407.053,70.6C407.053,70.1 407.153,69.4 407.153,68.8C407.153,68.1 407.253,67.4 407.253,66.7C407.253,66 407.253,65.4 407.353,64.8L407.353,63.5C407.353,62.6 407.153,61.8 406.753,61.1C406.353,60.4 405.853,59.8 405.153,59.4C404.453,59 403.753,58.8 402.853,58.8L402.853,56.9C404.353,56.9 405.653,57.1 406.753,57.6C407.953,58.1 408.853,58.8 409.453,59.7C410.153,60.6 410.453,61.9 410.453,63.4L410.453,64.9C410.453,65.6 410.453,66.3 410.353,67.1C410.353,67.9 410.253,68.7 410.253,69.4C410.253,70.2 410.153,70.8 410.153,71.4L410.153,72.5C410.153,73.6 410.353,74.3 410.753,74.7C411.153,75.1 411.753,75.2 412.453,75.2L413.353,75.2L413.353,78.6L412.453,78.6C411.753,78.6 411.153,78.8 410.753,79.2C410.353,79.6 410.153,80.3 410.153,81.4L410.153,82.6C410.153,83.2 410.253,83.8 410.253,84.6C410.253,85.4 410.353,86.1 410.353,86.9C410.353,87.7 410.453,88.4 410.453,89.1L410.453,90.6C410.453,92.1 410.153,93.3 409.453,94.2C408.753,95.2 407.853,95.9 406.753,96.3C405.653,96.7 404.353,96.9 402.853,96.9Z" style="fill-rule:nonzero;"/>
            </g>
            <g transform="matrix(0.813638,0,0,0.787999,447.277,-87.5869)">
                <path d="M318,281.5C307.7,281 300.3,278.2 295.9,273.2C291.5,268.2 289.1,260.3 288.7,249.4C288.6,247.7 288.6,245.8 288.6,243.8C288.6,241.7 288.7,239.7 288.8,237.6C288.9,235.5 289.1,233.6 289.4,231.9L312,231.9C311.8,235.8 311.7,239.6 311.6,243.4C311.5,247.2 311.7,250.7 312,253.8C312.2,255.8 312.8,257.4 313.8,258.8C314.8,260.1 316.3,261 318.1,261.5L318.1,281.5L318,281.5ZM326,281.5L326,261.6C327.7,261 329,260.1 329.9,258.8C330.8,257.5 331.4,255.9 331.6,253.9C331.8,252.1 331.9,250.3 332,248.5C332.1,246.7 332.1,244.9 332,243.1C331.9,241.3 331.8,239.5 331.6,237.7C331.4,235.5 330.7,233.4 329.5,231.6C328.3,229.8 326.5,228.6 323.9,227.9L310.8,224.5C305.3,223.1 300.9,221 297.6,218.3C294.3,215.6 292,212.2 290.5,208.2C289.1,204.2 288.3,199.5 288.1,194.2C288,191.9 288,189.8 288,188C288,186.1 288,184.2 288.1,182.2C288.5,171.4 291,163.5 295.5,158.5C300,153.5 307.5,150.8 318.1,150.3L318.1,170.2C316.3,170.7 314.9,171.6 313.9,172.9C313,174.1 312.4,175.7 312.1,177.7C311.8,180.4 311.6,183.2 311.6,185.9C311.6,188.7 311.8,191.4 312.1,194.1C312.4,196.2 313.1,198.2 314.3,199.9C315.5,201.7 317.5,202.9 320.2,203.5L331.6,206.2C337.6,207.6 342.3,209.8 345.7,212.6C349.2,215.4 351.6,218.8 353.1,223C354.6,227.1 355.5,231.9 355.7,237.4C355.8,238.6 355.8,239.9 355.8,241.2C355.8,242.5 355.8,243.9 355.7,245.2C355.6,246.5 355.6,247.8 355.5,249C355.1,259.8 352.6,267.7 348.1,272.8C343.8,278.2 336.3,281 326,281.5ZM331.8,200C332,196.3 332.1,192.6 332.1,189C332.2,185.3 332.1,181.6 331.9,178C331.8,176.1 331.3,174.5 330.2,173.3C329.2,172 327.8,171.1 326,170.6L326,150.6C335.9,151.1 343.1,153.9 347.7,158.9C352.2,163.9 354.7,171.7 355.1,182.5C355.2,184.8 355.2,187.6 355.1,190.9C355,194.2 354.9,197.3 354.8,200.1L331.8,200.1L331.8,200Z" style="fill-rule:nonzero;"/>
            </g>
            <g transform="matrix(0.813638,0,0,0.787999,447.277,-87.5869)">
                <path d="M259,207L259,187.6C259,183.2 254.9,179.8 250.6,180.8L231.7,184.8C230.7,185 229.7,185 228.7,184.8L211.5,181C207.1,180 203,183.3 203,187.8L203,197.7C203.2,223.2 206.9,273.3 220.2,269.9C231.8,267 242,268.1 247.2,269.3C248.5,269.6 249.8,269.5 250.4,268.4C253.9,261.6 259,233.5 259,215.1" style="fill:none;fill-rule:nonzero;stroke:black;stroke-width:23px;"/>
            </g>
            <g transform="matrix(0.813638,0,0,0.787999,447.277,-87.5869)">
                <path d="M233.3,149.2C234.2,143.4 239.2,139 245.2,139L255,139L250.9,155C249.5,160.3 244.8,164 239.3,164L231,164L233.3,149.2Z" style="fill-rule:nonzero;stroke:black;stroke-width:1.23px;stroke-linejoin:round;stroke-miterlimit:2;"/>
            </g>
            <g transform="matrix(0.813638,0,0,0.787999,447.277,-87.5869)">
                <path d="M148,170.1L148,152L171,152L171,170.1L148,170.1ZM148,280L148,184L171,184L171,280L148,280Z" style="fill-rule:nonzero;"/>
            </g>
        </g>
    </g>
</svg>
