<?xml version="1.0" encoding="UTF-8" standalone="no"?>
<!DOCTYPE svg PUBLIC "-//W3C//DTD SVG 1.1//EN" "http://www.w3.org/Graphics/SVG/1.1/DTD/svg11.dtd">
<svg width="100%" height="100%" viewBox="0 0 550 150" version="1.1" xmlns="http://www.w3.org/2000/svg" xmlns:xlink="http://www.w3.org/1999/xlink" xml:space="preserve" xmlns:serif="http://www.serif.com/" style="fill-rule:evenodd;clip-rule:evenodd;">
    <g id="Artboard1" transform="matrix(0.89141,0,0,0.925926,-472.447,0)">
        <rect x="530" y="0" width="617" height="162" style="fill:none;"/>
        <clipPath id="_clip1">
            <rect x="530" y="0" width="617" height="162"/>
        </clipPath>
        <g clip-path="url(#_clip1)">
            <g transform="matrix(2.68303,0,0,2.58301,38.3719,-114.708)">
                <path d="M291.61,97.736C290.11,97.736 288.81,97.536 287.61,97.036C286.41,96.536 285.51,95.836 284.91,94.936C284.21,94.036 283.91,92.736 283.91,91.336L283.91,89.836C283.91,89.136 284.01,88.436 284.01,87.636C284.01,86.836 284.11,86.036 284.11,85.336C284.11,84.536 284.21,83.936 284.21,83.336L284.21,82.136C284.21,81.036 284.01,80.336 283.61,79.936C283.21,79.536 282.61,79.336 281.91,79.336L281.01,79.336L281.01,75.936L281.91,75.936C282.61,75.936 283.21,75.736 283.61,75.436C284.01,75.036 284.21,74.336 284.21,73.236L284.21,72.136C284.21,71.536 284.21,70.936 284.11,70.136C284.11,69.336 284.01,68.636 284.01,67.836C284.01,67.036 283.91,66.336 283.91,65.636L283.91,64.136C283.91,62.636 284.21,61.436 284.91,60.436C285.61,59.536 286.51,58.836 287.61,58.336C288.81,57.836 290.11,57.636 291.61,57.636L291.61,59.336C290.71,59.336 290.01,59.536 289.31,59.936C288.61,60.336 288.11,60.936 287.71,61.636C287.31,62.336 287.11,63.136 287.11,64.036L287.11,65.336C287.11,65.936 287.21,66.536 287.21,67.236C287.21,67.936 287.31,68.636 287.31,69.336C287.31,70.036 287.41,70.636 287.41,71.136L287.41,72.336C287.41,73.636 287.11,74.736 286.61,75.636C286.11,76.536 285.31,77.036 284.31,77.236L284.31,77.836C285.31,78.036 286.11,78.536 286.61,79.436C287.11,80.336 287.41,81.436 287.41,82.736L287.41,83.936C287.41,84.436 287.41,85.136 287.31,85.736C287.31,86.436 287.21,87.136 287.21,87.836C287.21,88.536 287.11,89.136 287.11,89.736L287.11,91.036C287.11,91.936 287.31,92.736 287.71,93.436C288.11,94.136 288.61,94.736 289.31,95.136C290.01,95.536 290.81,95.736 291.61,95.736L291.61,97.736ZM314.764,94.036C312.664,94.036 311.064,93.636 310.064,92.736C309.064,91.836 308.564,90.436 308.564,88.536C308.564,86.536 308.564,84.736 308.464,82.936L308.464,72.536C308.464,70.736 308.464,68.936 308.564,66.936C308.564,65.036 309.064,63.636 310.064,62.736C311.064,61.836 312.664,61.436 314.764,61.436C316.864,61.436 318.464,61.836 319.464,62.736C320.464,63.636 320.964,65.036 321.064,66.936L321.064,70.836C321.064,71.436 321.064,72.136 320.964,72.836L317.764,72.836L317.764,66.936C317.764,65.936 317.464,65.236 316.964,64.836C316.464,64.436 315.664,64.236 314.564,64.236C313.464,64.236 312.664,64.436 312.264,64.836C311.764,65.236 311.564,65.936 311.564,66.936C311.564,69.036 311.464,70.936 311.464,72.736L311.464,82.936C311.464,84.636 311.564,86.636 311.564,88.736C311.564,89.736 311.864,90.436 312.264,90.836C312.764,91.236 313.464,91.436 314.564,91.436C315.764,91.436 316.564,91.236 317.064,90.836C317.564,90.436 317.864,89.736 317.864,88.736L317.864,84.936C317.864,84.236 317.864,83.336 317.764,82.336L320.964,82.336C321.064,83.636 321.064,84.736 321.064,85.736L321.064,88.636C320.964,90.636 320.464,92.036 319.464,92.836C318.564,93.636 316.964,94.036 314.764,94.036ZM331.464,93.736L331.464,61.736L334.664,61.736L334.664,90.836L342.064,90.836L342.064,93.736L331.464,93.736ZM356.564,94.036C354.364,94.036 352.864,93.636 351.864,92.736C350.964,91.836 350.464,90.536 350.364,88.536C350.264,84.036 350.264,79.536 350.264,75.136C350.264,70.736 350.264,66.236 350.364,61.736L353.564,61.736C353.564,64.736 353.564,67.736 353.464,70.736L353.464,88.736C353.464,89.636 353.664,90.236 354.164,90.636C354.664,91.036 355.364,91.136 356.464,91.136C357.564,91.136 358.364,90.936 358.764,90.636C359.164,90.236 359.464,89.636 359.464,88.736L359.464,70.736C359.464,67.736 359.464,64.736 359.364,61.736L362.564,61.736C362.664,66.236 362.664,70.736 362.664,75.136C362.664,79.536 362.664,84.036 362.564,88.536C362.564,90.436 362.064,91.836 361.064,92.736C360.264,93.636 358.764,94.036 356.564,94.036ZM373.264,93.736L373.264,61.736L379.264,61.736C381.364,61.736 382.964,62.136 383.864,62.936C384.864,63.736 385.264,65.136 385.364,67.036L385.364,73.236C385.264,74.336 385.064,75.236 384.664,75.936C384.264,76.636 383.564,77.036 382.564,77.336L382.564,77.936C383.564,78.236 384.264,78.636 384.764,79.336C385.264,80.036 385.464,80.936 385.564,82.036C385.664,83.236 385.664,84.236 385.664,85.236C385.664,86.236 385.664,87.236 385.564,88.436C385.464,90.336 384.964,91.736 384.064,92.536C383.164,93.336 381.564,93.736 379.464,93.736L373.264,93.736ZM376.464,90.836L379.364,90.836C380.464,90.836 381.164,90.636 381.564,90.336C381.964,89.936 382.164,89.336 382.264,88.436C382.264,87.336 382.364,86.236 382.364,85.336C382.364,84.336 382.364,83.336 382.264,82.236C382.264,81.036 382.064,80.236 381.664,79.836C381.264,79.436 380.564,79.136 379.564,79.136L376.564,79.136L376.564,90.836L376.464,90.836ZM376.464,76.136L379.564,76.136C380.464,76.136 381.164,75.936 381.564,75.436C381.964,74.936 382.164,74.236 382.164,73.136C382.164,72.036 382.264,70.936 382.164,69.936L382.164,66.736C382.164,65.836 381.964,65.236 381.464,64.936C381.064,64.636 380.264,64.436 379.264,64.436L376.464,64.436L376.464,76.136ZM401.181,97.736L401.181,96.036C402.081,96.036 402.881,95.836 403.481,95.436C404.181,95.036 404.681,94.436 405.081,93.736C405.481,93.036 405.681,92.236 405.681,91.336L405.681,90.036C405.681,89.436 405.681,88.836 405.581,88.136C405.481,87.436 405.481,86.736 405.481,86.036C405.481,85.336 405.381,84.736 405.381,84.236L405.381,83.036C405.381,81.736 405.681,80.636 406.181,79.736C406.681,78.836 407.481,78.336 408.481,78.136L408.481,77.536C407.481,77.336 406.681,76.836 406.181,75.936C405.681,75.036 405.381,73.936 405.381,72.636L405.381,71.436C405.381,70.936 405.481,70.236 405.481,69.636C405.481,68.936 405.581,68.236 405.581,67.536C405.581,66.836 405.581,66.236 405.681,65.636L405.681,64.336C405.681,63.436 405.481,62.636 405.081,61.936C404.681,61.236 404.181,60.636 403.481,60.236C402.781,59.836 402.081,59.636 401.181,59.636L401.181,57.736C402.681,57.736 403.981,57.936 405.081,58.436C406.281,58.936 407.181,59.636 407.781,60.536C408.481,61.436 408.781,62.736 408.781,64.236L408.781,65.736C408.781,66.436 408.781,67.136 408.681,67.936C408.681,68.736 408.581,69.536 408.581,70.236C408.581,71.036 408.481,71.636 408.481,72.236L408.481,73.336C408.481,74.436 408.681,75.136 409.081,75.536C409.481,75.936 410.081,76.036 410.781,76.036L411.681,76.036L411.681,79.436L410.781,79.436C410.081,79.436 409.481,79.636 409.081,80.036C408.681,80.436 408.481,81.136 408.481,82.236L408.481,83.436C408.481,84.036 408.581,84.636 408.581,85.436C408.581,86.236 408.681,86.936 408.681,87.736C408.681,88.536 408.781,89.236 408.781,89.936L408.781,91.436C408.781,92.936 408.481,94.136 407.781,95.036C407.081,96.036 406.181,96.736 405.081,97.136C403.981,97.536 402.681,97.736 401.181,97.736Z" style="fill-rule:nonzero;"/>
            </g>
            <g transform="matrix(0.911275,0,0,0.877305,399.209,-104.533)">
                <path d="M318,281.5C307.7,281 300.3,278.2 295.9,273.2C291.5,268.2 289.1,260.3 288.7,249.4C288.6,247.7 288.6,245.8 288.6,243.8C288.6,241.7 288.7,239.7 288.8,237.6C288.9,235.5 289.1,233.6 289.4,231.9L312,231.9C311.8,235.8 311.7,239.6 311.6,243.4C311.5,247.2 311.7,250.7 312,253.8C312.2,255.8 312.8,257.4 313.8,258.8C314.8,260.1 316.3,261 318.1,261.5L318.1,281.5L318,281.5ZM326,281.5L326,261.6C327.7,261 329,260.1 329.9,258.8C330.8,257.5 331.4,255.9 331.6,253.9C331.8,252.1 331.9,250.3 332,248.5C332.1,246.7 332.1,244.9 332,243.1C331.9,241.3 331.8,239.5 331.6,237.7C331.4,235.5 330.7,233.4 329.5,231.6C328.3,229.8 326.5,228.6 323.9,227.9L310.8,224.5C305.3,223.1 300.9,221 297.6,218.3C294.3,215.6 292,212.2 290.5,208.2C289.1,204.2 288.3,199.5 288.1,194.2C288,191.9 288,189.8 288,188C288,186.1 288,184.2 288.1,182.2C288.5,171.4 291,163.5 295.5,158.5C300,153.5 307.5,150.8 318.1,150.3L318.1,170.2C316.3,170.7 314.9,171.6 313.9,172.9C313,174.1 312.4,175.7 312.1,177.7C311.8,180.4 311.6,183.2 311.6,185.9C311.6,188.7 311.8,191.4 312.1,194.1C312.4,196.2 313.1,198.2 314.3,199.9C315.5,201.7 317.5,202.9 320.2,203.5L331.6,206.2C337.6,207.6 342.3,209.8 345.7,212.6C349.2,215.4 351.6,218.8 353.1,223C354.6,227.1 355.5,231.9 355.7,237.4C355.8,238.6 355.8,239.9 355.8,241.2C355.8,242.5 355.8,243.9 355.7,245.2C355.6,246.5 355.6,247.8 355.5,249C355.1,259.8 352.6,267.7 348.1,272.8C343.8,278.2 336.3,281 326,281.5ZM331.8,200C332,196.3 332.1,192.6 332.1,189C332.2,185.3 332.1,181.6 331.9,178C331.8,176.1 331.3,174.5 330.2,173.3C329.2,172 327.8,171.1 326,170.6L326,150.6C335.9,151.1 343.1,153.9 347.7,158.9C352.2,163.9 354.7,171.7 355.1,182.5C355.2,184.8 355.2,187.6 355.1,190.9C355,194.2 354.9,197.3 354.8,200.1L331.8,200.1L331.8,200Z" style="fill-rule:nonzero;"/>
            </g>
            <g transform="matrix(0.911275,0,0,0.877305,399.209,-104.533)">
                <path d="M259,207L259,187.6C259,183.2 254.9,179.8 250.6,180.8L231.7,184.8C230.7,185 229.7,185 228.7,184.8L211.5,181C207.1,180 203,183.3 203,187.8L203,197.7C203.2,223.2 206.9,273.3 220.2,269.9C231.8,267 242,268.1 247.2,269.3C248.5,269.6 249.8,269.5 250.4,268.4C253.9,261.6 259,233.5 259,215.1" style="fill:none;fill-rule:nonzero;stroke:black;stroke-width:23px;"/>
            </g>
            <g transform="matrix(0.911275,0,0,0.877305,399.209,-104.533)">
                <path d="M233.3,149.2C234.2,143.4 239.2,139 245.2,139L255,139L250.9,155C249.5,160.3 244.8,164 239.3,164L231,164L233.3,149.2Z" style="fill-rule:nonzero;stroke:black;stroke-width:1.23px;stroke-linejoin:round;stroke-miterlimit:2;"/>
            </g>
            <g transform="matrix(0.911275,0,0,0.877305,399.209,-104.533)">
                <path d="M148,170.1L148,152L171,152L171,170.1L148,170.1ZM148,280L148,184L171,184L171,280L148,280Z" style="fill-rule:nonzero;"/>
            </g>
        </g>
    </g>
</svg>
