<?xml version="1.0" encoding="UTF-8"?><svg id="_層_1" xmlns="http://www.w3.org/2000/svg" xmlns:xlink="http://www.w3.org/1999/xlink" viewBox="0 0 1059.6 797.22"><defs><style>.cls-1{fill:#56575b;stroke:#fff;stroke-width:5px;}.cls-1,.cls-2,.cls-3{stroke-miterlimit:10;}.cls-4{fill:#fff;}.cls-5{fill:#93a7bc;}.cls-6{fill:#c1d7e8;}.cls-7{fill:#33333f;}.cls-8{fill:#333;}.cls-9{fill:#b9c0c6;}.cls-10{fill:#8e4360;}.cls-11{fill:#b1c9e0;}.cls-12{fill:#bcc1cc;}.cls-13{fill:#dda9a2;}.cls-14{fill:#212121;}.cls-15{fill:#413f72;}.cls-16,.cls-17{fill:#a1b5ce;}.cls-18{fill:#95adc1;}.cls-19{fill:#8097ad;}.cls-20{fill:#5b6b99;}.cls-21{fill:#645991;}.cls-22{fill:#3d3d59;}.cls-23{stroke:#c1d7e8;stroke-linecap:round;stroke-linejoin:round;}.cls-23,.cls-24,.cls-2,.cls-3{fill:none;}.cls-23,.cls-2,.cls-3{stroke-width:2px;}.cls-24{stroke:#33333f;stroke-width:9px;}.cls-25{fill:url(#_命名漸層);}.cls-2{stroke:#3d3d59;}.cls-3{stroke:#b1c9e0;}.cls-17{fill-rule:evenodd;}.cls-26{fill:url(#_命名漸層_2);}</style><linearGradient id="_命名漸層" x1="396.31" y1="725.79" x2="521.94" y2="246.9" gradientTransform="translate(0 935.52) scale(1 -1)" gradientUnits="userSpaceOnUse"><stop offset="0" stop-color="#5b6b99"/><stop offset=".8" stop-color="#5b6b99"/></linearGradient><linearGradient id="_命名漸層_2" x1="702.74" y1="1106.01" x2="996.45" y2="703.85" gradientTransform="translate(0 1191.52) scale(1 -1)" gradientUnits="userSpaceOnUse"><stop offset="0" stop-color="#b58697"/><stop offset=".8" stop-color="#585593"/></linearGradient></defs><path class="cls-11" d="M413.38,227.75c-19.56-31.9,61.12-101.46,112.95-69.86,12.99,7.92,29.61,5.77,39.95-5.38,37.91-40.88,89.43-18.76,106.83,5.69,6.24,8.77,16.38,14.03,27.13,13.46,47.2-2.51,91.91,37.96,99.74,85.07,2.63,15.84,16.68,27.13,32.7,25.93,51.97-3.88,104.42,49.39,108.01,99.48,.09,1.19,.2,2.39,.42,3.56,13.99,74.4,97.04,21.65,116.78,75.23,19.9,54-133.1,75-510.1,23.5S413.38,227.75,413.38,227.75"/><path class="cls-18" d="M445.67,268.38c-16.64-28.73,51.99-91.39,96.07-62.92,11.05,7.13,25.19,5.19,33.98-4.84,32.24-36.82,76.07-16.9,90.87,5.13,5.31,7.9,13.93,12.63,23.08,12.13,40.15-2.26,78.18,34.19,84.84,76.62,2.24,14.27,14.19,24.44,27.81,23.35,44.2-3.5,88.82,44.49,91.87,89.6,.08,1.07,.17,2.16,.36,3.2,11.9,67.01,82.54,19.5,99.33,67.76,16.93,48.64-113.21,67.55-433.87,21.17-320.66-46.38-114.32-231.19-114.32-231.19"/><path class="cls-19" d="M484.71,282.65c-12.24-23.03,38.23-73.24,70.65-50.42,8.12,5.72,18.52,4.17,24.99-3.88,23.71-29.51,55.94-13.54,66.82,4.11,3.9,6.33,10.25,10.13,16.97,9.72,29.53-1.81,57.49,27.4,62.39,61.4,1.64,11.44,10.43,19.58,20.45,18.72,32.51-2.8,65.32,35.65,67.56,71.81,.06,.86,.13,1.73,.26,2.57,8.75,53.7,60.7,15.63,73.04,54.3,12.45,38.97-83.25,54.13-319.07,16.97-235.82-37.18-84.08-185.27-84.08-185.27"/><path class="cls-20" d="M725.13,476.76c13-18,121.22-24.21,129,3,2,7,.91,32.77-5,40-9,11-65.61,28.47-116.21,8.01-4.3-1.74-7.42-5.57-8.31-10.12-6.49-33-4.48-34.89,.52-40.89Z"/><path class="cls-20" d="M734.43,536.28c12.97,5.62,62.11,23.59,110.37-2.23,3.43-1.83,7.56,.79,7.41,4.67-.39,9.78-2.09,19.11-2.78,22.6-.21,1.05-.73,2.02-1.54,2.72-10.73,9.29-63.71,26-117.32,1.85-1.54-.69-2.62-2.14-2.9-3.81-1.57-9.56-1.76-16.23-1.53-20.58,.22-4.09,4.45-6.83,8.23-5.24,.01,0,.04,.01,.06,.02h0Z"/><path class="cls-20" d="M735.21,577.5c13.85,6.76,54.93,22.21,109.29,1.13,2.21-.86,4.56,.87,4.37,3.23-1.05,13-5.23,39.31-10.74,41.9-16.76,7.89-42.27,10.91-91.86,7.16-1.29-.1-2.4-.97-2.81-2.2-8.75-26.51-11.78-40.78-12.82-47.87-.37-2.54,2.25-4.48,4.57-3.35Z"/><path class="cls-20" d="M917.34,613.58c34.61-30.99,110.93-19.38,119.82,5.74,.14,.39,.28,.79,.44,1.17,5.78,13.78,5.64,24.33,4.04,31.45-1.43,6.4-5.92,11.71-11.91,14.37-16.59,7.35-59.33,22.34-103.55,5.8-6.45-2.41-11.29-7.93-12.9-14.62-2.98-12.37-3.19-22.83-2.82-29.55,.31-5.51,2.78-10.68,6.88-14.36h0Z"/><path class="cls-20" d="M920.66,679.43c12.74,5.52,60.35,22.94,107.76-.87,4.71-2.37,10.2,1.34,9.84,6.59-.54,7.95-1.8,15.18-2.47,18.63-.32,1.66-1.24,3.13-2.6,4.14-12.47,9.33-63.54,24.45-115.42,1.55-2.15-.95-3.67-2.93-4.04-5.26-1.86-11.75-1.58-18.97-1.09-22.8,.26-2.01,2.16-3.36,4.15-3,1.38,.25,2.87,.59,3.87,1.02h0Z"/><path class="cls-1" d="M462.94,605.47s43.84,8.27,8.02,49.78"/><path class="cls-5" d="M378.43,640.34c-.26,2.17-.07,4.36,.55,6.46,3.22,10.9,9.58,48.05-53.66,46.43-74.09-1.9-288.91,22.22-314.69,.05-22.28-19.16-7.24-59.18,23.79-73.1,7.36-3.3,11.3-11.4,9.22-19.2-10.68-40.03,22.52-94.37,56.5-105.19,8.51-2.71,13.27-11.56,10.93-20.18-15.06-55.43,38.32-113.86,69.82-108.5,34.86,5.92,213.44,139.85,197.54,273.23h0Z"/><path class="cls-16" d="M349.4,664.36c-.36,1.89-.33,3.83,.08,5.71,2.16,9.78,5.43,42.81-50.03,37.45-64.98-6.27-255.21,1.57-276.48-19.52-18.38-18.22-2.69-52.44,25.44-62.74,6.67-2.45,10.63-9.31,9.29-16.29-6.9-35.84,25.65-81.51,56.17-88.91,7.65-1.85,12.38-9.33,10.86-17.05-9.78-49.63,40.74-97.65,68.08-90.98,30.26,7.36,178.83,136.13,156.57,252.33h.02Z"/><path class="cls-11" d="M386.68,648.63c-.22,1.85-.06,3.72,.47,5.51,2.74,9.3,8.17,40.97-45.76,39.59-63.17-1.62-246.35,18.94-268.32,.04-18.99-16.33-6.18-50.46,20.28-62.33,6.27-2.82,9.63-9.72,7.86-16.38-9.11-34.13,19.2-80.47,48.18-89.69,7.26-2.31,11.32-9.85,9.32-17.2-12.84-47.26,32.68-97.08,59.54-92.52,29.73,5.05,181.99,119.25,168.43,232.97h0Z"/><path class="cls-16" d="M1034.77,754.34c-1.48,.47-3.02,.79-4.56,.95-38.49,4.35-586.88,64.52-614.82-31.47-27.88-95.74,38.4-175.94,135.34-147.49,7.22,2.12,15.01,.75,21.09-3.58,62.04-44.22,111.83-8.86,134.53,13.96,8,8.04,20.8,9.24,30.37,3.03,36.47-23.67,122.7-62.69,170.8,56.17,3.76,9.31,13.28,15.24,23.56,14.62,37.29-2.23,50.96,20.46,55.9,35.56,2.61,7.93,9.32,13.93,17.69,15.69,10.54,2.23,23.91,5.58,30.57,9.41,20.67,11.88,24.76,25.3-.47,33.15h0Z"/><path class="cls-11" d="M965.1,745.33c-1.3,.37-2.65,.62-4.01,.75-33.79,3.42-515.21,50.82-539.74-24.79-24.47-75.41,33.71-138.58,118.82-116.17,6.34,1.67,13.17,.59,18.51-2.82,54.47-34.83,98.18-6.98,118.1,11,7.03,6.33,18.26,7.28,26.66,2.39,32.01-18.64,107.71-49.38,149.94,44.24,3.3,7.33,11.66,12,20.68,11.51,32.74-1.76,44.73,16.12,49.08,28.01,2.29,6.25,8.18,10.97,15.53,12.36,9.25,1.76,20.99,4.39,26.84,7.41,18.15,9.35,21.74,19.92-.41,26.11h0Z"/><path class="cls-6" d="M1032.99,759.9c-1.2,.31-2.44,.53-3.68,.64-31.07,2.95-473.75,43.71-496.29-21.32-22.5-64.86,30.99-119.18,109.24-99.91,5.82,1.44,12.11,.51,17.03-2.43,50.09-29.95,90.27-6,108.6,9.46,6.46,5.44,16.78,6.26,24.51,2.05,29.45-16.04,99.04-42.47,137.87,38.05,3.04,6.31,10.72,10.33,19.02,9.9,30.1-1.51,41.13,13.86,45.12,24.09,2.11,5.38,7.52,9.44,14.27,10.64,8.51,1.51,19.3,3.78,24.68,6.37,16.69,8.05,20.01,17.14-.37,22.46h0Z"/><path class="cls-16" d="M326.64,552.15s-6.46,87.77,44.52,88.19-21.01-102.8-44.52-88.19Z"/><path class="cls-7" d="M377.19,609.92c-9.75,10.78-40.46,47.28-41.05,79.89-.01,.64,.04,1.28,.14,1.9,4.37,26.05,25.85,26.05,25.85,26.05l301.02-3.93c3.26-.04,6.33-1.56,8.3-4.15,.07-.09,.14-.19,.21-.28,11.73-15.47,12.93-36.57,2.94-53.21-8.67-14.44-22.16-29.1-41.48-44.42-27.43-21.75-218.24-7.74-248.86-5.33-2.71,.2-5.24,1.45-7.07,3.48h0Z"/><path class="cls-9" d="M528.02,639.84h-17.61c-4.84,0-8.8-3.96-8.8-8.8h0c0-4.84,3.96-8.8,8.8-8.8h17.61c4.84,0,8.8,3.96,8.8,8.8h0c0,4.84-3.96,8.8-8.8,8.8Z"/><path class="cls-9" d="M487.44,639.37h-17.61c-4.84,0-8.8-3.96-8.8-8.8h0c0-4.84,3.96-8.8,8.8-8.8h17.61c4.84,0,8.8,3.96,8.8,8.8h0c0,4.84-3.96,8.8-8.8,8.8Z"/><path class="cls-9" d="M404.94,640.47h-17.61c-4.84,0-8.8-3.96-8.8-8.8h0c0-4.84,3.96-8.8,8.8-8.8h17.61c4.84,0,8.8,3.96,8.8,8.8h0c0,4.84-3.96,8.8-8.8,8.8Z"/><path class="cls-9" d="M652.13,672.97h-20c-5.5,0-10-4.5-10-10h0c0-5.5,4.5-10,10-10h20c5.5,0,10,4.5,10,10h0c0,5.5-4.5,10-10,10Z"/><path class="cls-9" d="M601.13,674.76h-20c-5.5,0-10-4.5-10-10h0c0-5.5,4.5-10,10-10h20c5.5,0,10,4.5,10,10h0c0,5.5-4.5,10-10,10Z"/><path class="cls-9" d="M544.13,674.76h-20c-5.5,0-10-4.5-10-10h0c0-5.5,4.5-10,10-10h20c5.5,0,10,4.5,10,10h0c0,5.5-4.5,10-10,10Z"/><path class="cls-9" d="M493.13,674.76h-20c-5.5,0-10-4.5-10-10h0c0-5.5,4.5-10,10-10h20c5.5,0,10,4.5,10,10h0c0,5.5-4.5,10-10,10Z"/><path class="cls-9" d="M390.13,674.76h-20c-5.5,0-10-4.5-10-10h0c0-5.5,4.5-12,10-12l20,2c5.5,0,10,4.5,10,10h0c0,5.5-4.5,10-10,10Z"/><path class="cls-9" d="M441.13,674.76h-20c-5.5,0-10-4.5-10-10h0c0-5.5,4.5-10,10-10h20c5.5,0,10,4.5,10,10h0c0,5.5-4.5,10-10,10Z"/><path class="cls-9" d="M621.54,639.37h-17.61c-4.84,0-8.8-3.96-8.8-8.8h0c0-4.84,3.96-8.8,8.8-8.8h17.61c4.84,0,8.8,3.96,8.8,8.8h0c0,4.84-3.96,8.8-8.8,8.8Z"/><path class="cls-9" d="M438.13,642.76h-20c-5.5,0-10-4.5-10-10h0c0-5.5,4.5-10,10-10h20c5.5,0,10,4.5,10,10h0c0,5.5-4.5,10-10,10Z"/><path class="cls-9" d="M568.62,640.47h-17.61c-4.84,0-8.8-3.96-8.8-8.8h0c0-4.84,3.96-8.8,8.8-8.8h17.61c4.84,0,8.8,3.96,8.8,8.8h0c0,4.84-3.96,8.8-8.8,8.8Z"/><path class="cls-14" d="M248.13,182.76c-26,6-46.7,25.97-55,47-14.46,36.65-37.68,137.34-31,269,8.21,54.99,44.82,72.4,44.82,72.4l41.18-388.4"/><path class="cls-8" d="M224.21,199.94c-38.32,79.25-49.8,262.11-33.96,349.26,1.74,9.57,7.91,17.79,16.7,21.96,77.4,36.71,341.93,14.51,442.08,6.26,22.05-1.81,40.48-17.53,45.68-39.03,15.5-64.18,22.04-177.29,13.91-229.82-2.49-16.1-13.38-29.61-28.57-35.48-79.62-30.77-354.14-100.56-432.26-90.18-10.2,1.36-19.09,7.76-23.58,17.03h0Z"/><path class="cls-25" d="M248.84,220.19c-34.83,72.04-45.27,238.27-30.87,317.5,1.58,8.7,7.19,16.17,15.18,19.96,70.36,33.37,310.83,13.19,401.87,5.69,20.04-1.65,36.8-15.93,41.52-35.48,14.09-58.35,20.03-161.17,12.65-208.91-2.26-14.63-12.16-26.92-25.97-32.25-72.38-27.97-321.94-91.42-392.95-81.98-9.27,1.22-17.35,7.04-21.43,15.47h0Z"/><path class="cls-16" d="M698.08,581.4s-24.91-44.17-102.95,.35c11.58,13.09,47-11.34,102.95-.35h0Z"/><path class="cls-11" d="M190.43,571.16c-.3-22.4,110.17-20.71,119.8,28.61,11.9,60.99-119.8-28.61-119.8-28.61h0Z"/><path class="cls-15" d="M212.13,438.76v-15.82s168.59,49.41,74.59,168.41c-132,184.99,169.96,252.41,217.41,120.41,3.78-6.14,8-6.7,11.41-5.59,4.17,1.36,6.18,6.11,4.5,10.16-9.46,22.69-53.55,105.45-184.01,73.74-10.39-2.52-20.34-6.62-29.48-12.16-221.26-134.05,163.17-234.6-94.42-339.15"/><path class="cls-21" d="M186.02,590.59c5.57-15.79-22.29-43.66-53.88-24.15-45.52,30.65-42.73,71.53-33.44,82.68,7.45,7.86,19.6,.92,21.37,18.58,1.86,18.58,56.66,13.34,60.38,1.86-12.08-4.64-4.64-47.38,32.51-37.16,13.94-26.94-10.22-43.66-26.94-41.81h0Z"/><path class="cls-21" d="M207.34,576.92c4.17,3.56,14.56,9.72,29.7,.61,2.48-1.49,3-4.91,1.01-7.01-8.45-8.94-25.87-5.82-31.21,.18-1.62,1.82-1.36,4.63,.5,6.22h0Z"/><path class="cls-12" d="M154.63,569.76c-8.23,.01-16.9,3.39-23.27,8.46-3.23,2.57-5.92,5.75-8.03,9.28-.99,1.66,1.6,3.17,2.59,1.51,3.32-5.57,8.19-9.87,14.04-12.65,3.78-1.79,8.32-3.02,12.18-3.44,.82-.09,1.65-.17,2.48-.17,1.94,0,1.94-2.99,0-2.99h.01Z"/><path class="cls-8" d="M248.04,443.43h0c-8.21-.77-14.3-8.12-13.54-16.33,0,0-5.37-66.33,11.38-121.47,2.4-7.89,8.12-14.3,16.33-13.54h0c8.21,.77,14.92,8.2,13.54,16.33-10.62,62.34-11.38,121.47-11.38,121.47-.77,8.22-8.12,14.31-16.33,13.54h0Z"/><path class="cls-17" d="M536.16,539.36c.11,.11,.68-.45,.67-.52-.03-.15-.75-.47-.79-.69-.05-.29,.35-.34,.3-.93-.04-.46-.73-1.11-.96-1.75-.1-.3,.15-.59,.04-1.01,0,0-.07-.39-.11-.47-.03-.05-.41-.23-.42-.27-.06-.23,.26-.43,.19-.67-.08-.3-.43-.58-.5-.87-.02-.07-.15-.37-.15-.33,.02-.11,.32-.06,.31-.2-.03-.38-.38-1.07-.5-1.72-.14-.66-.12-1.19-.24-1.93-.03-.19-.36-.48-.36-.52,0-.24,.41-.38,.41-.61-.02-.58-.66-1.72,.09-2.26,.18-.13,1.07,.04,1.27-.11,.03-.02,.04-.27,.06-.27,.45,.05,2.43,1.66,2.72,1.98,.34,.37,.51,.9,.88,1.39,.1,.13,.08,.16,.16,.33,0-.01,.14,.31,.16,.33,.18,.21,.73,.33,.86,.52,.23,.33,.02,.64,.25,.95,.2,.28,.57,.54,.78,.8,.12,.15,0,.32,.12,.48,.05,.06,.4,.06,.46,.13,.07,.07-.13,.2-.07,.28,.42,.56,.78,1.09,1.31,1.56,.74-.4,.17-1.1-.05-1.66-.33-.91-.6-1.68-1.01-2.8-.12-.32-.29-.62-.44-1.15-.15-.52-.42-1.01-.57-1.61-.02-.09-.24-.24-.17-.34,.15-.2,.1-.11-.1-.61-.21-.53,.52-.73,1.56-.36,1.2,.43,1.14,2.17,1.93,2.25,1.36,.14-.15-1.83-.23-2.14-.16-.59,.11-.97,.03-1.18-.05-.13-.3-.25-.4-.39-.49-.65-.66-1.85-1.08-2.75-.5-1.05-.8-2.91-.84-4.13,.42-.09,1.09,.23,1.67,.2,1.34-.06,1.58,1,2.84,1.63,.26,.02,.36-.3,.36-.52,0-.3-.34-.37-.38-.52-.1-.38-.05-.77-.23-1.23-.06-.16-.32-.32-.38-.52-.09-.28-.04-.4-.12-.61-.13-.34-.46-.7-.54-.99-.12-.4,.1-.78-.02-1.18-.1-.34-.34-.87-.49-1.27-.17-.44-.61-1.03-.49-1.26,.26-.51,.54,.11,.76-.15,.07-.51-.67-.08-.83-.74-.08-.32,.66-1.35,1.01-1.57,.11-.07,.47-.24,.78-.3,.75-.14,1.83,.37,2.65,.17,.33-.08,.54-.32,.83-.59,.26-.24,.96-.61,.7-1.21-.14-.32-.35-.12-.16-.47,.09-.17-.37-1.18-.46-1.55-.09-.33,0-.57-.1-.9-.03-.08-.41-.31-.43-.36-.05-.14,.11-.29,.07-.43-.19-.62-.32-1.66-.57-2.58-.02-.08-.41-.3-.43-.36-.09-.28,.11-.6-.11-.89-.21-.27,.05-.5-.08-1.03-.04-.15-.38-.4-.41-.5-.23-.74,0-1.48-.14-2.5-.03-.19-.34-.43-.4-.64-.31-1.21,.05-2.48,1.78-2.39,.33,.02,.98,.19,1.63,.5,.49,.24,.94,1.01,1.63,.51,.73-.53,.76-1.95,.62-3.01-.03-.26-.31-.41-.39-.78,.01,.06,.38-.04,.26-.12-.64-.42-.45-1.9-.64-2.72,0-.03-.24-.04-.22-.17,0-.07,.23-.18,.26-.12-.15-.41-.56-.61-.61-.95-.05-.31,.12-.79,.12-1.16,0-1.15-.54-2.25,.1-3.21,.32-.47,.96-.47,.87-1.37-.02-.2-.31-.41-.18-.6l.58-.44c.3-.22,.62-.44,.71-.46,1.43-.35,4.26,.84,3.2-.72-.13-.19-.54-.31-.68-.51-.14-.19-.05-.57-.17-.75-.17-.25-.64-.44-.67-.5-.24-.39-.15-.97-.36-1.36-.04-.07-.43-.13-.47-.19-.14-.23,.02-.53-.16-.89-.09-.2-.31-.39-.43-.62-.07-.14,.01-.48,.03-.44-.28-.56-.92-.68-.64-1.08,.22-.1,.55-.11,.97-.07,.67-.69-.5,.34,.02-.29,.14-.17,.41-.21,.51-.4,.37-.08,.5,.22,.93,.37,.3,.11,.91,.12,1.18,.24,.61,.28,.8,.84,1.14,.83,1.97-.07,.2-1.79-.06-2.22-.54-.88-.76-1.62-1.24-2.6-.23-.49-.77-1.02-1.08-1.7-.11-.23-.13-.33-.21-.46-.16-.25-.44-1.14-.61-1.66-.08-.22-.14-.51-.19-.75,0,.03-.4-.09-.23-.16,.61-.25,.02-.29-.2-.6-.25-.34,.04-.54-.17-1.04-.03-.07-.44-.27-.46-.32-.11-.32-.08-.65-.17-1.03-.07-.32-.09-.69-.18-1.03-.28-1.03-.75-1.84-.79-3.11,0-.05,.32-.33,.27-.57-.14-.72,.26-1.98,.61-2.45,.39-.51,.51-.57,1-.83,.58-.3,2.48-.27,3.12,.15,.12,.08,.33,.41,.46,.46,.3,.11,.86-.01,1.2,.06,.17,.04,.52,.37,.7,.33,1.02-.24,.59-1.4,.33-2.05-.27-.7-.09-1.41-.87-1.96-.22-.16-.4-1.26-.64-1.79-.08-.18-.32-.39-.46-.61-.08-.13,.11-.32,.02-.44-.04-.05-.46-.13-.47-.17-.1-.23,.12-.6,.03-.88-.08-.25-.42-.39-.46-.6-.05-.28,.24-.4,.27-.72,.03-.46-.4-1.07-.42-1.63-.02-.52,.24-1.08,.3-1.6,.1-.93-.29-2.2,.32-2.78,.2-.19,.62,0,.96-.12,.35-.12,.58-.48,1.21-.41,.39,.04,1.22,.34,1.67,.34,.07,0,.23-.18,.48-.13,.19,.03,1.24,.49,1.66,.64,.37,.12,.59,.17,.95,.32,.66,.27,.97,.4,1.92-.09,.23-.12,.85-.43,.98-.57,.22-.26,.11-.97,.27-1.33,.15-.34,.46-.55,.5-.73,.16-.74,.3-1.95,.31-2.82,0-.34-.24-.62-.22-.9,.18-2.55,.33-5.64-1.09-7.9-.21-.34-.02-.72-.23-1.34-.22-.66-.74-1.3-.94-1.94-.17-.5-.02-1-.23-1.48-.05-.11-.27-.16-.24-.3,0-.05,.2-.22,.24-.15-.21-.45-.63-.57-.72-.89-.24-.84-.43-3.06-.24-3.26-.02,.02,.48-.15,.48-.15-.05,.03,.4-.16,.24-.15,.37-.02,.57,.35,.72,.29,1.43-.54,.6-3.05-.02-4-.48-.75-.45-2.38-.75-3.7-.27-1.22-1.05-2.26-.76-2.95,.19-.46,1.51-.86,1.66-1.21,.35-.79-.41-1.68-.52-2.66-.03-.24,.21-.5,.23-.75,.03-.52-.27-1.89-.06-2.67,.19-.7,1-1.37,1.15-2.1,.25-1.16-.05-2.76-.11-4.3-.05-1.48,.06-3.02-.13-4.45-.09-.69-.45-1.33-.55-2.06-.23-1.6,.22-3.29-.16-4.59-.08-.28-.49-.56-.52-.87-.04-.7,.56-1.31,.38-2.39-.25-1.47-.85-3.53-1.19-5.29-.07-.39,.03-.69-.05-1.03-.12-.5-.48-.97-.55-1.46-.03-.22,.26-.51,.2-.75-.17-.73-.7-1.37-.82-2.03-.08-.44,0-.9-.07-1.33-.17-.99-.6-1.96-.63-2.78,0-.1-.09-.35-.02-.44,.01-.02,.47-.19,.47-.17-.01-.12-.43-.41-.52-.71-.22-.71-.14-1.83-.14-2.36,0-.37-.3-1.24-.11-1.92,.31-1.11,1-1.97,2.77-1.94-.16,0,.74,.11,.73,.1,.15,.07,.1,.36,.26,.43,.47,.2,1.01,.22,1.23,.37,.13,.09,.06,.51,.28,.73,.06,.06,.45,.07,.49,.12,.06,.07-.06,.23,.02,.3,.22,.18,.65,.19,.99,.39,.21,.13,.29,.43,.51,.57,.85,.51,2.13,1.37,2.18,.32,0-.13-.32-.31-.27-.58,.07-.44,.45-.76,.42-1.07-.04-.3-.4-.54-.53-.86-.19-.46-.01-.84-.32-1.32-.29-.45-.31-.31-.29-.88,.02-.46-.4-.74-.56-1.31-.18-.63-.16-1.28-.36-1.91-.22-.68-.62-1.32-.85-2.03-.26-.78-.32-1.68-.65-2.49-.1-.23-.44-.45-.53-.71-.13-.35,.03-.68-.07-1.04-.12-.42-.49-1.11-.83-1.58-.23-.32-.37-.85-.58-1.45-.35-.98-.47-2.59-.99-3.65-.14-.28-.45-.46-.53-.7-.1-.3,0-.7-.08-1.03-.13-.62-.59-1.25-.62-1.74-.02-.42,.73-1.75,.04-2.53-.37-.42-.23-1.59-.45-2.64-.06-.29-.26-.38-.29-.57-.05-.32,.23-.76,.15-1.05-.06-.24-.49-.33-.53-.55-.06-.31,.22-.63,.17-.91-.16-.89-.59-1.69-.69-2.47-.07-.51,.1-1.12,.09-1.79-.02-.96-.47-2.14-.26-2.95,.12-.49,.74-1.28,1.07-1.43,.43-.2,1.68-.19,1.9-.32,.34-.19,.6-.6,.88-.97,.54-.73,.77-1.03,.51-2.29,0-.05-.26-.23-.28-.42-.01-.16,.18-.51,.2-.47-.09-.24-.47-.33-.53-.55-.09-.3,.02-.62-.08-.89-.09-.23-.41-.45-.55-.69-.1-.18,.02-.41-.06-.59-.1-.24-.42-.47-.55-.69-.31-.56-.16-1.1-.63-1.58-.08-.08-.48-.21-.51-.25-.13-.21,.02-.51-.07-.74-.08-.2-.39-.36-.54-.54-.09-.12,.06-.33-.04-.44-.04-.04-.47-.07-.49-.1-.21-.35-.19-.82-.36-1.16-.4-.83-1.68-1.87-1-2.73,.82-.32,.2,.49,.76,.37,.24-.35-.07-.44,.16-.76,.25-.35,.86-.38,.89-.69,.04-.3-.5-.7-.58-.98-.15-.48-.01-1.06-.17-1.62-.11-.4-.5-.73-.6-1.13-.32-1.27-.67-3.14-.49-4.57,.03-.26,.32-.37,.41-.64,.15-.44-.07-.84,.11-1.21,.28-.58,1.02-.98,1.28-1.49,.47-.91,.14-2.04,.38-3.03,.06-.25,.37-.56,.39-.79,.05-.61-.22-1.15-.2-1.77,.02-.72,.38-1.61,.44-2.45,.05-.76-.23-1.56-.03-2.24,.16-.55,1.06-1.16,1.23-1.8,.2-.75-.09-2.07-.16-3.28,0,.01-.28,0-.26-.12,.25-1.28-.35-3.13-.54-4.29-.04-.27,.23-.35,.16-.62-.1-.37-.14-.73-.15-1.19,0-.29-.33-.49-.33-.71-.03-.69-.06-1.17-.25-1.93-.07-.26,.2-.47,.14-.77-.03-.14-.32-.8-.42-1.3,0,.04-.4-.02-.26-.12,.72-.49-1.04-1.1-1.19-1.65-.11-.41,.36-.86,.53-1.43,.42-1.41,.11-3.47-.05-5.47-.03-.34-.58-1.02,.29-1.32,0,1.55,.63,2.92,.88,4.37,.04,.21-.19,.56-.13,.78,.08,.32,.48,.53,.6,.83,.09,.23-.2,.46-.13,.78,.03,.14,.29,.29,.32,.56,.03,.31-.17,.64-.11,.92,.22,1.13,.98,2.28,1.17,3.32,.03,.15,.15,.44,.08,.59-.06,.14-.44,.15-.44,.36,0,.18,.46,.15,.51,.23,.11,.18-.21,.29-.2,.33,.48,1.34,.34,3.07,.86,4.86,.15,.5,.59,.94,.66,1.42,.22,1.42-.35,2.81-.02,3.76,.08,.21,.63,.75,.6,.98,0,.07-.43,.15-.46,.21-.21,.38,.07,.55-.37,.95-.29,.27-.82,.54-.85,1-.02,.42,.18,.85,.16,1.33-.02,.36-.31,.73-.36,1.09-.14,.98,.34,1.86,.33,2.81,0,.32-.32,.71-.36,1.09-.06,.55,.22,1.13,.2,1.77,0,.25-.34,.67-.38,.94-.12,.83,.37,.95-.33,1.38-.04,.02-.45,.18-.46,.2-.11,.21,.24,.54,.08,.74-.06,.08-.61,.14-.7,.23-.05,.05-.55,.79-.62,.96-.1,.25,.14,.61,.11,1.03-.04,.65-.46,.96-.29,1.82,.02,.11,.31,.13,.27,.27-.05,.18-.19,1.13-.07,1.65,.07,.28,.47,.56,.57,.83,.14,.38,.02,.96,.15,1.48,.38,1.49,1.83,2.27,.83,3.35-.18,.19,.07,.18-.21,.32-.27,.14-.28,.03-.46,.2-.4,.35-.37,.62-.14,1.06,.05,.09,.31,.15,.27,.27-.01,.04-.31,.03-.22,.17,.17,.28,.67,.51,.8,.82,.27,.6,.11,1.27,.41,1.75,.16,.24,.68,.46,.79,.67,.21,.4,.17,.89,.37,1.31,.21,.43,.58,.85,.84,1.26,.13,.2,.15,.44,.31,.72,.11,.19,.48,.4,.53,.55,.19,.55,0,1.13,.16,1.63-.73,.18-.5-.36-1.22-.18,.18,.65,1.35,.08,1.71,.29-.02,.92,.16,1.9,0,2.69-.1,.52-.43,.7-1.09,1.29-.61,.56-.7,.62-1.83,1.06-.29,.11-1.11,.35-1.17,.4-.24,.25,.01,.76-.12,1.35-.07,.28-.4,.59-.41,.78-.07,1.04,.54,2.28,.79,3.5,.13,.64,.03,1.27,.15,1.77,.08,.35,.54,.72,.56,.99,.03,.35-.37,.7-.39,1.07-.03,.44,.02,1.03,.36,1.46,.13,.16,.47,.21,.51,.41,.06,.28-.47,.71-.41,.93,.16,.54,.92,1.02,1.08,1.55,.42,1.4-.71,3.63,.38,4.89,.3,.34-.12,2.32,.69,2.78,.48,.27,.32,.02,.29,.72-.03,.69,.35,1.15,.85,1.73,.4,.47-.15,.31-.19,.76,0,.08,.37,.84,.56,1.15,.13,.21,.45,.36,.52,.56,.13,.39-.07,.95,.09,1.34,.17,.41,.67,.75,.8,1.14,.08,.25-.26,.47-.18,.91,.04,.23,.37,.24,.52,.56,.09,.21-.05,.69,.06,.89,.12,.23,.34,.49,.53,.71,.61,.72,.72,1.99,1.18,3.36,.1,.29,.39,.38,.52,.72,.21,.52,.17,1.5,.38,2.37,.1,.44,.38,.94,.33,1.63-.01,.21,.04,.58,.03,.6-.05,.17-.4,.22-.46,.32-.24,.43-.08,.44-.68,.79-.07,.04-.43,.31-.46,.32-.87,.26-2.51,.14-2.88,.01-.14-.05,.07-.51-.03-.59-.18-.14-.89-.19-1.22-.38-.16-.09-.13-.33-.27-.43s-.34-.15-.5-.27c-.58-.43-.97-.89-1.52-1.25-.56-.38-1.21-.67-1.74-.94-.51,.56-.03,1.16-.14,1.79-.05,.27-.43,.64-.43,.91,0,.37,.44,.63,.54,1.01,.17,.6-.18,1.3-.13,1.93,.04,.54,.19,1.31,.34,1.91,.09,.36,.48,.69,.54,1.01,.05,.33-.29,.59-.19,.9,.07,.21,.13,.49,.28,.73,.11,.17,.46,.35,.51,.57,.09,.38-.23,.8-.18,1.2,.04,.32,.39,.5,.52,.87,.29,.84-.2,1.84,.36,2.51,.14,.17,.42,.23,.5,.42,.18,.46-.03,.97,.07,1.48,.07,.36,.4,.53,.52,.87,.09,.24-.23,.27-.22,.46,0,.15,.49,.6,.52,.87,.03,.23-.27,.29-.22,.45,.09,.29,.47,.48,.51,.72,.04,.27-.22,.44-.21,.75,0,.21,.26,.52,.27,.73,.03,.5-.2,.99-.18,1.49,.01,.31,.29,.57,.27,.88-.02,.29-.23,.61-.21,.9,.07,1.03,.65,2.16,.35,3.11-.04,.13-.22,.66-.22,.6,.02,.28,.4,.45,.51,.73,.3,.78,.1,1.45,.07,2.23-.03,.73,.27,1.51,.3,2.22,.06,1.3-.14,2.66-.13,4.02,.01,1.1,.48,1.88,.06,2.82-.2,.45-1.04,.78-1.17,1.36-.07,.35,.47,2.08,.53,2.66,.05,.41-.02,.93,.02,1.49,.07,.9,.61,2.03,.28,2.37-.26,.26-1.95,.28-2.15,.47-.25,.25,.04,2.43,.27,2.67,.26,.25,.07,.61,.25,1.19,.06,.21,.43,.41,.48,.59,.18,.66,.03,1.43,.26,2.08,.15,.43,.58,.79,.73,1.19,.09,.23-.05,.51,0,.74,.08,.39,.47,.68,.48,.89,0,.14-.11,.88-.24,1.04l-.55,.37c-.28,.18-.58,.36-.65,.38-.77,.18-1.09-.33-1.44,0-.21,.2-.38,.82-.24,1.48,.06,.3,.54,.38,.72,.74,.09,.17-.13,.58,0,1.04,.08,.28,.41,.47,.48,.74,.13,.51-.1,1.11,.23,1.78,.03,.07,.46,.26,.48,.3,.09,.23-.06,.5,0,.74,.06,.29,.4,.51,.47,.75,.31,1.07,.34,2,.7,2.98,.16,.44,.45,.9,.46,1.2,0,.36-.29,.6-.25,.89,.07,.57,.43,.72,.46,1.05,.03,.3-.25,.59-.26,.89,0,.28,.2,.59,.22,.9,.02,.24-.26,.58-.26,.89,0,.27,.26,.32,.23,.6-.05,.39-.42,.74-.5,1.18-.04,.23,.23,.52,.22,.75-.01,.43-.47,1.07-.52,1.63-.03,.27,.28,.54,.22,.75-.08,.29-.35,.56-.5,.88-.21,.45-.37,.97-.26,.89-.58,.48-2.05,.71-3.14,.65-.6-.03-.99-.29-1.67-.49-.39-.11-.65-.08-.96-.18-.74-.23-.84-.25-2.39-.36-1.01-.07-1.02-.23-1.45,.25-.36,.4,.25,.24,.22,.89-.02,.37-.29,.73-.28,1.17,.01,.34,.26,.75,.2,1.04-.06,.31-.52,.49-.51,.72,.03,.38,.35,1.17,.66,1.64,.1,.15,.18,.23,.22,.45,.08,.41-.29,.63-.28,1.02,0,.2,.29,.61,.45,.9,.15,.27,.29,.74,.44,.9,.17,.18,.79,.34,.93,.63,.43,.91-.27,1.47,.37,2.38,.12,.18,.04,.32,.22,.45,.05,.04,.45,.14,.47,.17,.14,.23-.32,.26-.26,.43,.04,.11,.44,.13,.47,.32,.25,1.49-.43,3.04-3.23,2.35-.19-.05-.45-.11-.71-.18,0,0-.65-.15-.71-.18-.18-.09-.37-.68-.68-.77-.04-.01-.67,.12-.97,.1-.16-.01-.61-.3-.95-.19-.33,.11-.05,.23-.26,.43-.04,.04-.48,.1-.49,.12-.18,.37-.29,1.38-.35,1.88-.04,.32,.21,.71,.17,1.18-.04,.55-.15,1.18,.12,2.06,.07,.21,.1,.52,.2,.74,.08,.19,.39,.43,.45,.61,.37,1.26,.26,2.43,.52,2.97,.25,.51,.98,.92,1.12,1.25,.02,.05-.15,.41-.06,.88,.03,.13,.44,.41,.45,.47,.04,.22-.34,.27-.27,.42,.1,.22,.39,.15,.69,.49,.22,.25-.02,.5,.19,.75,.18,.22,.44,.43,.67,.64,.13,.12,.61,.38,.68,.49,.11,.17-.12,.41-.05,.59,.03,.08,.43,.27,.46,.33,.12,.27,.02,.63,.17,.9,.35,.64,1.01,1.18,1.31,1.74,.42,.8,.75,1.5,.34,1.81-.23,.17-.6-.02-.97,.07-.22,.05-.16,.25-.5,.25-1.38,.03-2.89-.75-3.78-.92-.11,.66,.78,1.2,1.05,1.71,.23,.43,.15,.85,.37,1.21,.32,.54,.94,1.02,1.31,1.45,.14,.16,.07,.31,.2,.46,.09,.11,.36,.24,.45,.34,.11,.12,.06,.33,.2,.46,.31,.31,.36,.15,.63,.95,.25,.71,.28,.68-.56,.84-.72,.13-3.74-.4-4.34,.01-.52,.35,.29,.87,.32,1.51,0,.01-.34,.13-.27,.27,.07,.15,.35,.3-.06,.58-.5,.35-.83-.08-1.72,.26,.01,.86-.31,1.57-.25,2.33,.02,.22,.35,.4,.42,.64,.13,.44-.01,.94,.07,1.48,.16,.98,.57,2,.56,3.31,0,.04,.31,.18,.2,.32-.04,.05-.28-.05-.26,.12,.03,.24,.34,.4,.41,.64,.1,.31,.22,2.52-.14,2.94-.04,.05-.42,.16-.52,.23-.64,.45-2.44,.43-4.08-.25-.75-.31-1.06-.36-1.27,.41-.03,.11,.26,.27,.18,.46-.06,.15-.26,.56-.14,1,.15,.55,.58,.94,.57,1.11-.04,.91-.9,.35-.16,1.15,.56,.61,.38,1.95,.74,3.05,.19,.58,.49,1.18,.68,1.87,.08,.29,0,.64,.1,.9,.09,.23,.58,.11,.69,.26-.03-.04,0,.57,.1,.9,.16,.47,.46,1.07,.41,1.85-.02,.33-.32,.46-.36,.68-.13,.73,.16,1.37-1.03,1.75-.06,.02-.47,.04-.5,.06-.34,.32-.25,.12-1.02,.26-.15,.03-.43,.2-.52,.2-.93,.06-1.81-.31-2.2,.04-.41,.37,.43,2.43,.61,3.2,.2,.83-.08,1,.43,1.56,.36,.4,.07,.42,.28,1.09,.04,.12,.31,.28,.39,.52s.35,.41,.38,.52c.07,.24-.23,.47-.15,.71,.05,.15,.31,.34,.38,.52,.09,.24,.02,.37,.11,.62,.14,.37,.51,.86,.52,1.01,.01,.25-.31,.19-.33,.38-.04,.33,.39,.92-.68,.9-.55-.01-.81,.11-1,.08-.91-.16-1.16-.53-2.16-1.36-.06-.05-1.16-1.46-1.67-1.39-1.06,.16,.19,1.11,.55,2.03,.32,.8,0,1.94,.91,2.56,.56,.39-.08,.63,.44,1.29,.04,.06,.4,.39,.4,.39,.06,.22-.28,.48-.17,.7,.11,.22,.57,.21,.63,.45,.05,.18,.1,.59,.1,.62,.04,.44-.33,.9-.27,1.13,.06,.25,.55,.14,.67,.31,.13,.19-.08,.77-.01,1.05,.03,.11,.74,.52,.24,.96-1.17,.08-1.83-.31-2.25-.87-.1-.13-.41-.25-.39-.4,0-.06,.38-.13,.31-.22-.1-.11-.54-.21-.66-.31-.28-.23-.53-.83-1.23-1.04-.14,.38,.08,.61,.26,.95,.04,.07-.14,.21-.07,.28,.17,.17,.52,.26,.62,.45,.12,.22-.09,.51,.05,.76,.33,.55,1.26,1.13,1.26,1.82,0,.29-.47,.48-.41,.64,.12,.33,.69,.58,.98,1.01,.2,.28,1.09,2.9,.29,3.41,0,0-.3,.03-.64,.04-.34,.01-.71,.02-.87-.02-.54-.13-.37-.31-.61-.48-.29-.2,.04-.04-.23-.07-.92-.1-.36-.51-.72-.96-.13-.16-.84-.39-1.08-.6-.06-.05-.09-.28-.15-.34-.58-.61-.96-1.72-1.55-2.49-.26-.35-.72-.68-.98-1-.15-.18-.16-.66-.52-.87-.07-.04-.43-.07-.47-.12-.29-.41-.11-.9-.41-1.27-.38-.46-.88-.51-1.25-.9-.9-.12-.14,.47-.64,.55-.33-.12,.02-.42-.36-.52-.45,.05-.08,.48,.36,.52,.97,.08,.15,.83,.22,1.06,.05,.17,.36,.2,.39,.39,.03,.24-.22,.44-.18,.67,.07,.43,.45,1.03,.57,1.6,.08,.39-.38,1.87,.08,2.34,.11,.11,.62,.21,.65,.33,.05,.17-.25,.44-.23,.81,.01,.36,.61,.89,.65,1.22,.03,.2-.47,.43-.43,.61,.05,.19,.24,.35,.34,.55,.06,.11,.02,.31,.11,.47,.04,.07,.39,.22,.42,.27,.03,.09-.13,.18-.09,.27,.21,.42,.22,.4,.39,1.16,.13,.58,1.61,4.02-.03,4.02-1.1-.01-1.33-.2-1.91-1.09-.13-.2,.05-.16-.14-.34-.21-.19,0-.46-.51-.76-.56,.51,.11,1.37,.34,2.03,.11,.31,.32,.7,.4,1.03,.19,.72,.23,1.34,.52,2.13,.11,.28,.4,.66,.44,.91,.04,.24-.27,.43-.24,.67,.01,.12,.36,.39,.36,.44-.02,.41-.39,.76-.46,1.19-.77-.25-1.37-.28-2.3-.72,0,.21-.02,.36,.19,.83,.1,.22,.41,.4,.52,.65,.1,.25-.11,.5-.03,.75,.07,.21,.44,.47,.51,.66,.19,.48,.26,.91,.48,1.42,.23,.53,.67,1.11,.72,1.38,.03,.18-.35,.52-.34,.79,0,.02,.71,.51,.21,.72-.51,.21-1.11-.07-1.66-.4-.87-.52-.43-1.52-1.26-1.92-.26-.06-.14,.1-.11,.26,.02,.08,.01,.31,.05,.48,.09,.38,.33,.73,.55,1.16,.1,.19,0,.19,.11,.36,.37,.54,1.35,2.7,.94,3.24-.19,.25-.1,.22-.68,.32-.26,.04-.5-.11-.62,.18-.28,.68,.62,1.27,.9,2.02,.05,.14,.05,.6,.12,.86,.13,.54,.37,.9-.22,1.02-.11,.02-.54-.08-.55,.05-.08,.5,.55,1.52,.89,2.42,.16,.43,.33,.84,.43,1.23,.11,.4,.09,.81,.21,1.13,.24,.66,.89,1.51,1.18,2.37,.06,.21-.12,.32-.03,.51,.25,.52,.33,1.42,.67,2.17-.43,.51-.18-.37-.73,.29-.21,.25-.41,.13,.09,.78,.43,.29,.37-.42,.6-.55,.56,.59,.22,1.09,.39,1.7,.12,.43,.94,1.64,.78,1.98-.19,.36-.29-.1-.06,.53,.08,.24,.22,.44,.34,.79,.25,.71,.2,1.85,.42,2.84,.06,.25,.31,.62,.32,.82,0,.17-.28,.25-.28,.42,0,.14,.48,.77-.16,1.11-.41-.07-.66-.67-.69-.69-.13-.09-.51-.03-.68-.27-.31-.44-.15-1.48-.28-2.19-.03-.18-.19-.33-.22-.54-.04-.38-.12-.98-.18-1.48l.8,.53c.55-.27-.71-.59-1.03-1.06,.18,.26-.37-1.14-.37-1.18,0-.17,.32-.95-.01-1.31-.62-.69,.1-.04-.09-.79-.05-.19-.25-.46-.38-.78-.14-.35-.14-.8-.35-1.29-.02-.05-.02-.35-.05-.39-.6-.64,0-.05-.1-.77-.01-.09-.32-.29-.34-.37-.05-.28,.06-.63-.03-.89-.13-.4-.68-.92-.87-1.35-.11-.25,.04-.54-.07-.89-.07-.22-.35-.51-.42-.74-.07-.21,.13-.31,.14-.26-.04-.18-.3-.22-.35-.36-.26-.69-.3-1.52-.66-2.33-.21-.47-.69-.97-.88-1.42-.09-.21,.09-.44,.05-.61-.11-.44-.58-1.1-.8-1.66-.15-.4-.07-.79-.22-1.2-.03-.08-.36-.27-.37-.33-.07-.31,.01-.61-.29-1.06-.15-.23-.43-.96-.67-1.38-.22-.38-.29-.89-.63-1.49-.32-.56-.61-.77-.61-1.02s.69-.42,.82-.68c.31-.64-.53-1.88-.91-2.74-.05-.12,.02-.32-.06-.46-.09-.15-.31-.47-.46-.77-.15-.31-.35-.79-.55-1.24-.09-.2,.01-.29-.08-.46-.12-.23-.68-.9-.56-1.22,.12-.31,.7-.38,1.01-.61,.84,.43,.61,1.01,1.77,1.4-.28-.22-.37-.63-.65-.97-.21-.26-.29-1.31-.59-1.8-.06-.1-.34-.36-.36-.42-.07-.19,.2-.6,.09-.97-.08-.24-.78-.4-.45-.87,.01-.01,.41,.16,.45,.16,.08,0,.48-.43,.45-.55,1.24,.7,1.51,1.57,2.22,2.37,.87,.04,.15-.9,0-1.45-.08-.28-.39-.56-.45-.88-.05-.28,.15-.55,.05-.84-.07-.19-.25-.25-.36-.41-.21-.3-.35-.93-.56-1.33-.31-.6-.93-1.32-.73-1.66,.01-.02,1.19-.47,1.16-.48,.37,.06,.35,.32,.79,.68,.91,.75,.51,.25,.66,1.08,.02,.1,.34,.33,.37,.41,.12,.29,.13,.55,.25,.8,.27,.59,.76,1.15,.96,1.63,.2,.47,.05,.96,.27,1.41,.08,.17,.39,.4,.54,.63,.12,.19,.06,.61,.54,.63,.59-.23,.09-.77-.08-1.21-.07-.18-.16-.44-.27-.68-.02-.05-.08-.25-.13-.34-.04-.08-.4-.25-.41-.29-.06-.18,.25-.34,.18-.52-.03-.1-.4-.25-.41-.28-.05-.28,.06-.45-.01-.73-.07-.27-.18-.51-.25-.81-.12-.54,.02-.83-.31-1.4-.12-.21-.49-.44-.56-.61-.21-.51,.07-.87-.08-1.32-.18-.52-.48-.97-.74-1.65-.05-.13-.33-.46-.35-.53-.05-.27,.23-.27,.15-.52-.17-.57-.89-1.52-.66-2.04,.09-.2,.93-.72,.96-.72,.47,.03,1.25,.86,1.77,1.64,.8,1.22,1.09,2.48,1.64,3.81,.12,.31,.37,.61,.48,.87,.14,.38,.08,.69,.2,.94,.17,.34,1.07,1.05,.72,1.7l.1,.14h0Z"/><path class="cls-17" d="M591.04,532.93c.11,.1,.66-.39,.65-.46-.03-.14-.75-.45-.8-.66-.06-.26,.34-.3,.27-.84-.05-.42-.76-1.04-.99-1.63-.11-.27,.13-.53,.01-.92,0,0-.08-.35-.13-.43-.03-.05-.42-.22-.43-.26-.06-.21,.24-.39,.17-.6-.09-.27-.45-.54-.52-.8-.02-.06-.16-.34-.16-.31,.02-.1,.32-.04,.3-.17-.04-.35-.4-.98-.54-1.57-.14-.59-.15-1.08-.28-1.75-.04-.18-.37-.45-.37-.48,0-.22,.4-.34,.39-.54-.03-.53-.7-1.58,.03-2.04,.18-.11,1.06,.06,1.26-.08,.03-.02,.03-.25,.06-.24,.45,.05,2.45,1.55,2.75,1.84,.35,.34,.53,.83,.91,1.28,.1,.12,.09,.15,.17,.31,0-.01,.15,.29,.17,.31,.18,.19,.73,.32,.87,.49,.24,.3,.04,.58,.27,.87,.21,.26,.58,.5,.8,.75,.12,.14,0,.29,.13,.44,.05,.06,.4,.07,.46,.12,.07,.06-.12,.19-.06,.25,.43,.52,.79,1.01,1.34,1.45,.73-.35,.15-1-.08-1.52-.35-.84-.64-1.55-1.07-2.58-.12-.29-.3-.57-.47-1.06-.17-.48-.45-.93-.61-1.48-.02-.08-.24-.22-.17-.31,.15-.18,.09-.1-.12-.56-.23-.49,.5-.66,1.54-.3,1.2,.41,1.2,2,1.98,2.09,1.37,.15-.19-1.68-.29-1.96-.18-.54,.08-.89,0-1.08-.05-.12-.3-.24-.41-.36-.5-.6-.71-1.7-1.15-2.52-.52-.96-.89-2.66-.96-3.77,.41-.08,1.1,.22,1.67,.2,1.34-.05,1.6,.93,2.88,1.51,.26,.02,.35-.28,.34-.47-.01-.27-.35-.34-.39-.48-.11-.35-.08-.71-.26-1.13-.06-.14-.33-.3-.39-.48-.1-.26-.05-.37-.14-.56-.14-.31-.48-.64-.57-.91-.13-.37,.07-.72-.05-1.08-.11-.31-.36-.8-.53-1.16-.18-.4-.64-.94-.53-1.15,.24-.47,.54,.1,.75-.14,.06-.46-.67-.08-.86-.67-.09-.29,.62-1.23,.96-1.43,.11-.07,.46-.22,.77-.28,.74-.13,1.84,.33,2.65,.15,.33-.07,.53-.29,.81-.55,.25-.22,.94-.56,.65-1.11-.15-.29-.35-.11-.18-.43,.09-.15-.4-1.08-.51-1.42-.09-.3-.02-.52-.13-.82-.03-.07-.42-.28-.44-.33-.05-.13,.1-.26,.05-.39-.21-.57-.37-1.52-.66-2.36-.03-.07-.42-.27-.44-.32-.1-.26,.09-.55-.14-.81-.21-.25,.03-.45-.12-.94-.04-.14-.4-.36-.43-.45-.25-.68-.06-1.35-.23-2.28-.03-.18-.36-.38-.42-.58-.36-1.1-.03-2.26,1.69-2.2,.33,.01,.99,.16,1.64,.44,.49,.21,.98,.91,1.64,.44,.71-.5,.69-1.8,.52-2.77-.04-.24-.32-.37-.42-.71,.01,.05,.38-.04,.25-.11-.66-.37-.52-1.73-.73-2.48,0-.03-.24-.03-.23-.15,0-.07,.23-.17,.25-.11-.16-.37-.58-.55-.65-.86-.06-.28,.09-.73,.08-1.06-.04-1.05-.62-2.05-.02-2.94,.3-.44,.94-.45,.82-1.28-.03-.19-.33-.37-.2-.55,0,0,1.07-.81,1.25-.85,1.42-.36,4.29,.67,3.17-.74-.14-.17-.55-.27-.69-.45-.14-.17-.07-.52-.2-.69-.18-.23-.65-.39-.69-.44-.25-.36-.19-.88-.41-1.23-.04-.07-.43-.11-.47-.16-.15-.21,0-.48-.19-.81-.1-.18-.33-.35-.45-.56-.08-.13,0-.44,.02-.4-.3-.5-.95-.6-.68-.97,.22-.09,.55-.12,.96-.09,.64-.65-.49,.32,.01-.27,.14-.16,.4-.2,.5-.38,.36-.09,.51,.18,.95,.31,.3,.09,.92,.09,1.19,.19,.62,.24,.83,.75,1.17,.73,1.96-.12,.14-1.64-.15-2.03-.57-.79-.82-1.47-1.34-2.35-.25-.44-.81-.91-1.15-1.52-.11-.21-.14-.3-.23-.41-.17-.23-.48-1.03-.67-1.5-.08-.2-.16-.46-.22-.68,0,.02-.4-.07-.23-.14,.6-.25,0-.26-.22-.54-.26-.31,.02-.49-.21-.94-.03-.07-.45-.24-.47-.28-.12-.29-.11-.6-.22-.94-.09-.29-.11-.63-.22-.94-.32-.93-.82-1.66-.91-2.82,0-.05,.3-.31,.25-.53-.16-.65,.18-1.82,.51-2.26,.37-.48,.48-.54,.96-.79,.57-.3,2.47-.34,3.12,.03,.13,.07,.34,.37,.48,.41,.31,.09,.86-.04,1.2,.01,.18,.03,.53,.32,.72,.28,1.01-.25,.53-1.3,.25-1.89-.3-.63-.15-1.29-.95-1.76-.23-.14-.45-1.14-.71-1.62-.09-.16-.34-.34-.48-.54-.08-.11,.09-.29,0-.4-.04-.05-.46-.1-.48-.13-.11-.2,.09-.55,0-.81-.09-.23-.44-.35-.48-.54-.06-.25,.23-.38,.24-.67,.01-.42-.45-.97-.49-1.48-.04-.47,.2-1,.23-1.48,.05-.85-.38-2,.2-2.56,.19-.19,.62-.03,.96-.15,.35-.12,.56-.46,1.19-.42,.39,.02,1.23,.26,1.69,.24,.06,0,.23-.18,.48-.14,.19,.02,1.26,.4,1.69,.52,.37,.1,.6,.14,.96,.26,.67,.22,.98,.33,1.92-.17,.23-.12,.84-.43,.95-.56,.21-.24,.07-.89,.22-1.24,.14-.32,.43-.52,.47-.69,.13-.69,.21-1.8,.19-2.61,0-.31-.27-.56-.26-.82,.08-2.35,.09-5.2-1.43-7.2-.23-.3-.05-.66-.29-1.22-.25-.6-.79-1.16-1.03-1.73-.18-.46-.07-.92-.3-1.35-.05-.1-.27-.14-.25-.26,0-.05,.19-.22,.23-.15-.23-.4-.65-.49-.76-.78-.28-.75-.57-2.78-.38-2.98-.02,.02,.47-.16,.47-.16-.05,.03,.4-.17,.23-.15,.37-.04,.59,.29,.73,.24,1.4-.57,.46-2.83-.2-3.67-.51-.66-.55-2.16-.91-3.36-.33-1.1-1.15-2.02-.89-2.67,.17-.43,1.47-.87,1.6-1.19,.32-.74-.48-1.52-.64-2.41-.04-.21,.19-.47,.19-.7,0-.48-.35-1.72-.18-2.44,.16-.66,.94-1.31,1.06-1.99,.2-1.08-.18-2.53-.31-3.94-.12-1.36-.08-2.78-.33-4.07-.13-.63-.51-1.2-.65-1.86-.31-1.45,.07-3.03-.37-4.2-.1-.25-.52-.48-.56-.77-.08-.64,.5-1.24,.27-2.21-.32-1.34-1.02-3.19-1.44-4.78-.09-.36,0-.63-.1-.95-.14-.45-.52-.86-.62-1.3-.04-.2,.23-.49,.17-.7-.2-.66-.76-1.22-.92-1.82-.1-.4-.04-.82-.13-1.21-.22-.9-.69-1.76-.76-2.51,0-.1-.1-.31-.04-.41,0-.01,.46-.2,.46-.19-.02-.11-.44-.35-.55-.62-.26-.64-.22-1.66-.25-2.16-.02-.34-.36-1.12-.2-1.75,.26-1.03,.91-1.87,2.67-1.96-.16,0,.75,.06,.73,.05,.16,.05,.12,.32,.28,.38,.48,.15,1.02,.14,1.24,.27,.13,.08,.08,.46,.32,.65,.06,.05,.45,.04,.49,.08,.06,.06-.05,.22,.03,.27,.23,.15,.66,.13,1,.3,.22,.1,.31,.38,.54,.49,.87,.42,2.2,1.12,2.19,.16,0-.12-.34-.26-.3-.52,.05-.41,.42-.73,.37-1.01s-.42-.47-.57-.76c-.21-.41-.05-.77-.38-1.2-.31-.4-.33-.26-.34-.79,0-.42-.44-.65-.63-1.17-.21-.56-.22-1.17-.45-1.74-.25-.61-.68-1.18-.95-1.81-.3-.7-.41-1.52-.77-2.24-.11-.21-.46-.39-.56-.62-.14-.32,0-.63-.12-.95-.14-.38-.54-.99-.9-1.4-.25-.28-.41-.76-.65-1.29-.4-.88-.59-2.34-1.16-3.28-.15-.25-.47-.4-.57-.61-.12-.26-.04-.64-.13-.94-.16-.56-.65-1.11-.7-1.55-.04-.39,.64-1.65-.08-2.32-.39-.37-.3-1.45-.58-2.39-.08-.27-.27-.33-.31-.5-.07-.29,.19-.71,.1-.98-.07-.21-.5-.27-.55-.47-.07-.28,.19-.59,.12-.84-.2-.8-.67-1.51-.81-2.22-.09-.47,.04-1.04,0-1.65-.07-.88-.57-1.93-.4-2.69,.1-.46,.68-1.22,1-1.39,.41-.21,1.66-.29,1.88-.43,.33-.2,.57-.59,.83-.95,.5-.71,.72-1,.4-2.13-.01-.04-.27-.19-.3-.37-.02-.15,.16-.48,.17-.44-.1-.22-.49-.27-.56-.46-.1-.27-.01-.58-.13-.81-.1-.21-.43-.38-.58-.6-.11-.16,0-.38-.09-.54-.12-.21-.45-.4-.58-.6-.33-.49-.21-1-.71-1.4-.08-.07-.49-.16-.52-.19-.14-.19,0-.47-.11-.67-.09-.18-.41-.31-.56-.46-.1-.1,.04-.31-.07-.4-.05-.04-.48-.03-.5-.06-.23-.3-.23-.74-.41-1.04-.44-.73-1.77-1.59-1.13-2.43,.81-.35,.22,.43,.78,.28,.22-.33-.1-.4,.13-.71,.24-.34,.83-.41,.86-.7,.02-.28-.53-.61-.63-.86-.17-.43-.06-.97-.25-1.48-.13-.36-.54-.64-.66-.99-.39-1.14-.82-2.83-.72-4.16,.02-.24,.3-.36,.38-.62,.13-.41-.11-.76,.05-1.11,.25-.55,.97-.97,1.21-1.46,.42-.88,.04-1.88,.23-2.81,.05-.23,.34-.54,.35-.76,.02-.56-.28-1.04-.29-1.61-.02-.66,.3-1.51,.31-2.28,.01-.7-.31-1.42-.14-2.06,.13-.51,1-1.15,1.14-1.75,.16-.7-.19-1.89-.33-3.01,0,.01-.28,.02-.26-.09,.18-1.2-.5-2.85-.76-3.91-.06-.24,.21-.34,.13-.59-.11-.33-.18-.66-.21-1.08-.02-.27-.35-.42-.37-.63-.06-.63-.12-1.07-.35-1.75-.08-.23,.18-.45,.1-.72-.03-.12-.36-.71-.48-1.17,0,.03-.4,.01-.26-.09,.69-.5-1.1-.93-1.27-1.42-.13-.37,.31-.82,.45-1.36,.35-1.34-.07-3.2-.34-5.04-.05-.31-.63-.9,.22-1.25,.09,1.45,.78,2.65,1.11,3.97,.05,.19-.16,.53-.09,.73,.1,.29,.51,.45,.64,.71,.1,.2-.17,.44-.09,.73,.04,.13,.3,.25,.35,.49,.05,.28-.14,.6-.07,.86,.28,1.02,1.09,2.02,1.34,2.96,.04,.14,.17,.4,.11,.54-.05,.13-.43,.17-.41,.36,.01,.17,.47,.1,.52,.18,.12,.16-.2,.28-.18,.32,.55,1.2,.5,2.8,1.11,4.41,.17,.45,.64,.82,.73,1.26,.29,1.29-.21,2.61,.17,3.46,.09,.19,.67,.64,.65,.85,0,.07-.42,.17-.45,.22-.19,.36,.09,.5-.32,.9-.28,.27-.79,.55-.79,.99,0,.39,.22,.76,.23,1.21,0,.33-.27,.7-.3,1.03-.09,.91,.44,1.69,.47,2.56,.01,.3-.28,.67-.3,1.03-.03,.51,.28,1.02,.29,1.62,0,.23-.3,.64-.33,.89-.08,.78,.42,.84-.26,1.3-.04,.03-.44,.2-.45,.22-.1,.2,.27,.48,.12,.67-.06,.08-.6,.17-.68,.26-.05,.05-.51,.76-.57,.93-.08,.24,.17,.55,.17,.94,0,.6-.41,.92-.19,1.7,.03,.1,.32,.1,.28,.23-.05,.17-.14,1.06,.02,1.52,.09,.26,.49,.48,.61,.73,.16,.34,.07,.88,.23,1.34,.45,1.34,1.94,1.95,.99,3.02-.17,.19,.07,.16-.19,.31s-.27,.05-.45,.21c-.38,.35-.34,.6-.08,.98,.05,.08,.31,.11,.28,.23-.01,.04-.31,.05-.22,.17,.19,.24,.69,.42,.84,.69,.3,.53,.17,1.16,.5,1.58,.17,.21,.7,.38,.82,.56,.23,.35,.21,.81,.43,1.17,.23,.38,.62,.74,.9,1.1,.14,.18,.17,.39,.34,.64,.12,.17,.5,.33,.56,.47,.21,.49,.06,1.03,.24,1.49-.71,.21-.52-.3-1.23-.08,.21,.59,1.35-.02,1.72,.15,.03,.85,.25,1.74,.14,2.47-.08,.49-.4,.67-1.02,1.26-.58,.56-.67,.61-1.77,1.1-.28,.12-1.09,.39-1.15,.45-.23,.25,.05,.7-.05,1.25-.05,.26-.37,.57-.38,.75-.02,.96,.65,2.05,.96,3.16,.16,.58,.09,1.17,.24,1.62,.1,.32,.57,.62,.61,.88,.05,.32-.33,.67-.34,1.01,0,.41,.07,.95,.43,1.31,.13,.14,.48,.16,.53,.34,.07,.25-.44,.68-.36,.88,.19,.48,.97,.88,1.16,1.35,.49,1.25-.53,3.38,.61,4.46,.31,.3-.01,2.14,.82,2.51,.49,.22,.32,0,.33,.65,0,.64,.41,1.04,.93,1.53,.43,.41-.13,.29-.15,.71,0,.08,.41,.74,.61,1.02,.14,.19,.47,.31,.55,.48,.15,.35-.02,.87,.16,1.22,.19,.37,.7,.65,.85,1,.1,.22-.23,.45-.13,.84,.05,.21,.38,.2,.54,.48,.1,.19-.01,.63,.1,.82,.13,.21,.36,.43,.56,.62,.64,.63,.81,1.78,1.34,3.01,.11,.26,.4,.33,.56,.62,.24,.46,.25,1.37,.49,2.15,.12,.4,.42,.84,.41,1.47,0,.19,.07,.53,.06,.55-.05,.16-.39,.22-.44,.33-.22,.41-.05,.41-.64,.76-.07,.04-.41,.32-.45,.33-.85,.29-2.5,.28-2.88,.19-.15-.04,.05-.47-.06-.54-.19-.12-.9-.12-1.24-.27-.16-.07-.14-.3-.29-.38-.14-.08-.35-.12-.51-.22-.6-.35-1.01-.75-1.57-1.05-.58-.31-1.24-.54-1.78-.75-.48,.54,.03,1.07-.05,1.65-.03,.25-.4,.61-.38,.86,.02,.34,.47,.55,.59,.89,.19,.54-.12,1.2-.04,1.78,.07,.49,.25,1.19,.43,1.73,.11,.33,.51,.61,.58,.89,.07,.3-.26,.56-.15,.84,.08,.19,.15,.44,.31,.65,.12,.15,.47,.3,.54,.49,.11,.34-.19,.75-.13,1.11,.05,.29,.42,.43,.56,.76,.33,.76-.11,1.7,.47,2.28,.15,.15,.43,.18,.52,.36,.21,.41,.02,.89,.14,1.36,.09,.32,.42,.46,.56,.77,.1,.21-.22,.26-.2,.43,.01,.14,.51,.53,.56,.77,.04,.21-.26,.28-.2,.43,.1,.26,.49,.41,.54,.63,.06,.24-.2,.42-.17,.7,.02,.19,.28,.46,.3,.66,.05,.46-.15,.92-.11,1.38,.03,.28,.32,.51,.32,.79s-.2,.57-.17,.84c.12,.94,.75,1.95,.49,2.83-.04,.12-.18,.62-.19,.56,.03,.26,.42,.39,.54,.64,.34,.7,.17,1.33,.17,2.04,0,.67,.34,1.37,.4,2.02,.12,1.19-.02,2.45,.06,3.7,.06,1.01,.57,1.7,.19,2.59-.18,.43-1.01,.77-1.11,1.31-.06,.32,.56,1.88,.65,2.42,.06,.37,.02,.85,.09,1.36,.11,.82,.7,1.84,.38,2.17-.24,.25-1.94,.36-2.13,.54-.24,.24,.15,2.23,.39,2.43,.27,.22,.1,.56,.3,1.08,.07,.19,.45,.36,.51,.52,.21,.6,.09,1.31,.35,1.9,.17,.38,.62,.7,.78,1.05,.1,.21-.03,.47,.04,.68,.1,.36,.5,.6,.52,.79,.02,.13-.07,.81-.19,.97l-.54,.36c-.27,.18-.56,.36-.63,.38-.76,.2-1.1-.25-1.44,.07-.2,.19-.34,.77-.17,1.37,.07,.27,.55,.33,.75,.65,.1,.15-.1,.54,.05,.95,.09,.25,.43,.41,.51,.66,.16,.46-.05,1.02,.31,1.63,.04,.06,.47,.21,.49,.25,.1,.21-.03,.47,.03,.68,.07,.26,.43,.45,.51,.66,.36,.97,.43,1.82,.82,2.71,.18,.4,.5,.81,.52,1.08,.02,.33-.27,.57-.22,.83,.1,.52,.46,.64,.51,.95,.04,.27-.23,.56-.22,.83,0,.26,.23,.53,.26,.82,.03,.22-.23,.54-.22,.83,.01,.25,.28,.28,.26,.54-.03,.36-.39,.69-.45,1.11-.03,.21,.25,.47,.25,.68,0,.4-.42,1.01-.45,1.52-.02,.25,.3,.49,.25,.68-.06,.27-.33,.53-.47,.83-.19,.42-.33,.91-.23,.83-.56,.46-2.02,.74-3.11,.73-.6,0-1-.23-1.69-.38-.4-.09-.65-.05-.96-.12-.75-.18-.85-.2-2.4-.24-1.01-.03-1.02-.17-1.44,.29-.34,.38,.26,.21,.25,.81,0,.34-.26,.68-.22,1.08,.03,.31,.29,.67,.25,.94-.05,.28-.5,.47-.48,.68,.04,.35,.4,1.06,.73,1.48,.11,.14,.19,.2,.24,.4,.1,.38-.27,.59-.23,.95,.02,.19,.31,.54,.48,.81,.16,.25,.32,.67,.48,.81,.18,.16,.81,.28,.96,.54,.46,.82-.21,1.36,.47,2.17,.13,.16,.05,.29,.24,.41,.05,.03,.46,.11,.48,.14,.15,.2-.31,.25-.24,.41,.04,.1,.44,.1,.48,.28,.3,1.36-.3,2.81-3.13,2.27-.19-.04-.46-.08-.72-.14,0,0-.65-.11-.72-.14-.18-.08-.4-.61-.72-.68-.04,0-.66,.14-.96,.12-.16,0-.62-.26-.96-.14-.33,.11-.04,.22-.24,.4-.04,.03-.47,.11-.48,.13-.16,.35-.23,1.27-.27,1.73-.02,.29,.24,.65,.22,1.07-.02,.5-.1,1.09,.21,1.88,.07,.19,.12,.47,.23,.67,.09,.17,.41,.38,.47,.55,.42,1.14,.36,2.22,.64,2.7,.27,.46,1.01,.81,1.17,1.11,.02,.04-.13,.38-.03,.81,.03,.12,.45,.36,.47,.42,.04,.2-.33,.25-.25,.39,.1,.19,.39,.13,.71,.43,.23,.22,0,.46,.22,.68,.19,.19,.45,.38,.7,.57,.14,.1,.62,.33,.7,.43,.12,.15-.1,.38-.02,.54,.04,.08,.44,.23,.47,.29,.13,.24,.04,.58,.2,.82,.38,.57,1.06,1.06,1.37,1.56,.45,.73,.8,1.36,.41,1.65-.22,.17-.61,0-.97,.09-.22,.06-.15,.23-.49,.25-1.38,.06-2.91-.61-3.81-.74-.08,.61,.83,1.08,1.12,1.54,.24,.39,.18,.77,.41,1.1,.34,.48,.98,.91,1.36,1.3,.15,.15,.08,.28,.22,.42,.1,.1,.37,.21,.46,.3,.11,.11,.08,.3,.21,.42,.32,.28,.36,.13,.67,.86,.27,.64,.31,.62-.53,.78-.72,.14-3.75-.28-4.34,.11-.5,.33,.32,.79,.38,1.37,0,0-.33,.13-.26,.25,.08,.14,.36,.26-.04,.54-.48,.33-.83-.05-1.71,.28,.05,.79-.25,1.45-.16,2.13,.03,.21,.36,.36,.44,.57,.15,.4,.02,.86,.12,1.35,.19,.89,.64,1.82,.68,3.03,0,.03,.32,.16,.21,.29-.04,.05-.28-.04-.25,.11,.04,.22,.35,.36,.43,.58,.11,.28,.3,2.31-.04,2.7-.04,.04-.41,.15-.51,.22-.62,.42-2.43,.43-4.09-.17-.76-.27-1.07-.32-1.25,.4-.03,.1,.27,.24,.19,.42-.06,.14-.24,.51-.1,.92,.17,.5,.61,.85,.61,1,0,.84-.89,.33-.12,1.05,.58,.55,.45,1.78,.84,2.78,.21,.53,.53,1.08,.74,1.71,.09,.26,.02,.59,.13,.83,.1,.21,.58,.09,.7,.23-.03-.04,0,.53,.13,.83,.17,.43,.5,.98,.47,1.69-.01,.3-.31,.42-.34,.63-.1,.67,.2,1.26-.97,1.61-.06,.02-.47,.03-.49,.06-.33,.3-.24,.11-1.01,.24-.15,.03-.43,.18-.51,.19-.93,.06-1.82-.28-2.19,.04-.4,.33,.5,2.22,.71,2.92,.22,.76-.05,.92,.48,1.43,.37,.36,.08,.39,.31,1,.04,.11,.32,.26,.4,.48s.36,.38,.4,.48c.08,.22-.21,.43-.13,.65,.05,.13,.32,.31,.39,.48,.1,.22,.03,.34,.13,.57,.15,.34,.54,.79,.55,.93,.02,.23-.3,.17-.31,.35-.03,.31,.41,.85-.65,.82-.54-.01-.81,.1-.99,.07-.91-.15-1.17-.49-2.19-1.26-.06-.05-1.19-1.35-1.7-1.28-1.05,.14,.22,1.02,.61,1.86,.35,.73,.05,1.77,.97,2.35,.57,.36-.06,.57,.47,1.18,.04,.05,.41,.36,.41,.36,.06,.21-.27,.44-.15,.64,.11,.2,.57,.2,.64,.42,.05,.17,.11,.55,.12,.57,.06,.41-.3,.82-.23,1.04,.07,.23,.55,.13,.67,.3,.14,.18-.07,.7,.01,.96,.03,.1,.75,.49,.27,.89-1.16,.05-1.83-.31-2.26-.84-.1-.12-.41-.23-.4-.37,0-.05,.38-.12,.3-.2-.1-.1-.54-.21-.67-.3-.29-.21-.54-.77-1.24-.97-.13,.35,.08,.56,.28,.87,.04,.07-.13,.19-.06,.25,.17,.16,.52,.25,.63,.43,.13,.2-.08,.47,.07,.69,.34,.51,1.28,1.06,1.3,1.69,0,.27-.45,.44-.4,.58,.13,.31,.7,.55,1,.95,.21,.26,1.14,2.69,.36,3.15,0,0-.3,.02-.63,.03-.33,0-.7,0-.86-.04-.54-.14-.37-.3-.62-.45-.29-.19,.04-.03-.23-.07-.91-.11-.37-.47-.74-.89-.13-.15-.85-.38-1.08-.58-.06-.05-.1-.26-.16-.31-.59-.58-.99-1.59-1.6-2.31-.27-.32-.73-.63-1-.93-.15-.17-.17-.61-.54-.8-.07-.04-.43-.08-.47-.12-.3-.38-.13-.82-.45-1.16-.39-.43-.89-.48-1.27-.84-.9-.12-.12,.42-.62,.49-.33-.11,.01-.38-.37-.48-.45,.04-.07,.44,.37,.48,.96,.09,.17,.76,.25,.97,.06,.15,.37,.19,.4,.36,.04,.21-.2,.39-.16,.61,.08,.39,.48,.95,.61,1.47,.09,.35-.32,1.69,.13,2.13,.11,.1,.62,.21,.66,.32,.05,.16-.23,.4-.21,.73,.02,.33,.62,.83,.67,1.13,.03,.18-.46,.38-.41,.54,.05,.17,.25,.33,.35,.51,.05,.1,.03,.28,.11,.43,.04,.07,.4,.21,.42,.26,.03,.08-.13,.16-.08,.24,.22,.39,.23,.38,.41,1.07,.14,.53,1.7,3.75,.05,3.68-1.08-.05-1.33-.24-1.91-1.06-.13-.19,.05-.14-.15-.32-.21-.19-.01-.42-.53-.71-.54,.45,.12,1.25,.37,1.87,.11,.29,.33,.65,.42,.96,.2,.67,.25,1.24,.56,1.98,.11,.26,.41,.62,.45,.86,.05,.23-.26,.38-.22,.61,.02,.11,.35,.38,.35,.41-.02,.38-.37,.68-.44,1.08-.77-.27-1.36-.32-2.28-.77,0,.19-.02,.33,.21,.77,.11,.21,.42,.39,.52,.63,.11,.24-.1,.46-.02,.68,.07,.19,.44,.46,.52,.63,.2,.45,.27,.85,.5,1.33,.22,.49,.67,1.06,.73,1.31,.04,.17-.34,.47-.33,.72,0,.02,.7,.51,.22,.68-.5,.17-1.09-.13-1.64-.46-.86-.52-.44-1.43-1.27-1.84-.25-.07-.14,.09-.11,.23,.02,.08,.02,.29,.06,.45,.09,.35,.34,.69,.56,1.1,.1,.18,0,.17,.11,.33,.38,.51,1.37,2.58,.96,3.05-.19,.22-.1,.2-.67,.25-.26,.02-.49-.13-.61,.13-.26,.61,.63,1.22,.9,1.93,.05,.14,.06,.57,.12,.81,.14,.51,.37,.86-.21,.94-.11,.02-.53-.11-.55,0-.07,.46,.55,1.45,.89,2.32,.16,.41,.32,.8,.43,1.18s.09,.76,.22,1.08c.24,.63,.89,1.48,1.15,2.31,.06,.2-.12,.29-.02,.48,.25,.51,.33,1.37,.65,2.1-.42,.45-.18-.36-.71,.23-.2,.22-.4,.1,.09,.75,.42,.31,.37-.37,.59-.48,.55,.6,.21,1.05,.37,1.64,.11,.41,.92,1.63,.75,1.93-.19,.33-.28-.12-.07,.5,.08,.24,.21,.44,.33,.78,.23,.7,.18,1.77,.39,2.74,.05,.24,.3,.62,.3,.81,0,.16-.28,.22-.28,.38,0,.13,.46,.77-.17,1.06-.4-.1-.63-.68-.67-.71-.13-.1-.49-.06-.66-.31-.3-.44-.13-1.42-.25-2.11-.03-.17-.19-.33-.21-.53-.04-.36-.11-.94-.16-1.42l.78,.56c.53-.22-.69-.61-1-1.08,.18,.26-.35-1.11-.35-1.15,0-.16,.32-.88,0-1.24-.6-.7,.09-.03-.09-.75-.05-.19-.24-.45-.37-.76-.14-.34-.14-.76-.34-1.24-.02-.05-.02-.33-.05-.37-.59-.64,0-.05-.1-.73-.01-.09-.32-.3-.33-.37-.04-.26,.06-.59-.03-.84-.13-.38-.66-.91-.85-1.33-.11-.24,.05-.5-.06-.83-.07-.21-.34-.51-.42-.72-.07-.2,.12-.28,.13-.23-.04-.17-.3-.23-.35-.36-.25-.66-.3-1.44-.67-2.22-.21-.45-.68-.95-.87-1.38-.09-.2,.09-.4,.05-.56-.11-.41-.57-1.05-.79-1.59-.16-.38-.08-.74-.23-1.13-.03-.07-.36-.28-.37-.33-.07-.29,0-.56-.3-1-.15-.22-.43-.91-.68-1.31-.22-.36-.31-.85-.63-1.4-.32-.54-.62-.75-.61-.97,0-.24,.67-.35,.79-.58,.29-.57-.56-1.76-.95-2.56-.05-.11,.02-.29-.07-.42-.09-.14-.32-.44-.46-.72l-.57-1.15c-.09-.18,0-.26-.09-.42-.12-.22-.69-.86-.58-1.14s.68-.31,.98-.5c.84,.43,.62,.95,1.78,1.36-.28-.22-.38-.59-.66-.92-.21-.25-.32-1.21-.62-1.66-.06-.1-.33-.33-.36-.39-.08-.18,.18-.54,.06-.88-.08-.22-.78-.4-.47-.81,0-.01,.41,.17,.45,.17,.07,0,.46-.37,.43-.48,1.25,.69,1.53,1.49,2.25,2.25,.86,.08,.13-.82-.03-1.32-.08-.26-.4-.53-.47-.82-.06-.25,.13-.49,.02-.76-.07-.18-.26-.24-.37-.39-.21-.28-.37-.85-.58-1.22-.32-.56-.96-1.23-.77-1.53,0-.01,.3-.11,.58-.2,.29-.09,.57-.19,.55-.19,.36,.07,.36,.31,.8,.65,.92,.71,.51,.25,.68,1,.02,.09,.34,.31,.38,.39,.13,.27,.15,.51,.27,.74,.27,.54,.77,1.07,.98,1.52,.21,.44,.07,.88,.3,1.29,.09,.16,.39,.39,.55,.6,.12,.17,.07,.56,.55,.6,.58-.18,.07-.7-.11-1.11-.07-.17-.17-.4-.28-.63-.02-.05-.09-.23-.14-.31-.05-.07-.4-.25-.41-.28-.07-.17,.24-.3,.17-.47-.04-.09-.4-.24-.41-.27-.06-.26,.06-.4-.02-.66-.07-.25-.19-.47-.26-.75-.14-.49,0-.75-.34-1.29-.13-.2-.5-.42-.57-.58-.22-.47,.04-.79-.12-1.2-.19-.48-.51-.9-.77-1.52-.05-.12-.34-.43-.36-.49-.05-.25,.22-.24,.14-.47-.19-.52-.92-1.4-.71-1.86,.08-.18,.9-.62,.93-.62,.47,.04,1.27,.81,1.8,1.54,.83,1.13,1.16,2.29,1.72,3.51,.13,.28,.39,.56,.49,.81,.15,.35,.1,.63,.22,.86,.18,.32,1.08,1,.75,1.58l.05-.11h0Z"/><path class="cls-13" d="M439.61,506.8c-19.95,.66-33.33-24.01-28.48-41.04h48s7.69,40.13-19.52,41.04Z"/><path class="cls-13" d="M475.17,477.85s14.42-28.74,33.57,2.72c25.4,41.73,69.86,62.6,69.86,62.6,0,0,68.04,42.64,29.94,84.37-8.17,18.14-21.77,8.17-21.77,8.17,0,0-30.44,4.08-29.94-17.24-7.26,17.24-28.12,8.17-23.59-14.52-11.79,7.26-19.05-17.24-4.54-28.12,0-17.24-20.87-23.59-20.87-23.59l-32.66-74.39h0Z"/><path class="cls-13" d="M406.22,521.4s-9.98,59.88,73.49,70.76c27.22,8.17,17.24,40.83,2.72,29.03,4.54,17.24-5.44,37.2-20.87,36.29-10.6-.62-5.44-15.42-5.44-15.42,0,0-.05,26.3-29.96,15.87-13.58,13.16-33.54,5-35.36-8.61-2.04-15.31,4.07-17.25-10.67-27.68-14.73-10.43-65.1-54.88,0-148.78,33.35-42.18,26.09,48.54,26.09,48.54h0Z"/><path class="cls-13" d="M426.18,285.52c56.95-24.87,182.35,205.94,8.17,195.06-51.85-3.24-78.97-24.83-84.34-61.04-46.31-24.24-11.83-57.81,1.77-38.28,8.09-36.36,33.68-73.9,74.4-95.74h0Z"/><path class="cls-22" d="M412.13,477.76s20.43,8.63,46.71,2.82l-38.71,17.18s-12-11-8-20h0Z"/><path class="cls-22" d="M540.7,590.58c-6.83,5.66-12.47,15.44-9.78,24.45,1.15,3.84,3.62,7.15,6.56,9.82,.85,.77,1.74,1.48,2.65,2.17,.92,.69,1.79,.88,2.91,1.04,1.56,.23,3.11,.29,4.68,.05,5.01-.74,8.22-4.64,9.64-9.28,.93-3.05,1.31-6.46,1.06-9.65-.15-1.91-3.15-1.93-3,0,.42,5.26-.59,13.24-6.28,15.48-1.04,.41-2.16,.59-3.27,.61-.71,.01-1.44-.03-2.15-.12-1.02-.14-1.66-.39-2.48-1.04-2.91-2.29-5.61-5.15-7-8.64-2.05-5.16-.67-10.61,2.13-15.19,1.71-2.8,3.91-5.47,6.45-7.58,1.49-1.24-.65-3.35-2.12-2.12h0Z"/><path class="cls-22" d="M555.33,608.5c-2.29,4.44-2.59,9.5-.71,14.15,1.86,4.57,5.27,8.31,9.26,11.13,6.38,4.5,17.87,8.24,23.69,.83,4.09-5.2,2.99-12.82,1.49-18.76-.47-1.87-3.37-1.08-2.89,.8,1.2,4.75,2.18,10.77-.23,15.04-1.64,2.9-4.63,4.11-7.99,4.07-3.83-.04-7.76-1.54-11.14-3.65-3.57-2.22-6.72-5.27-8.69-9.01-2.17-4.12-2.4-8.82-.2-13.1,.89-1.7-1.7-3.22-2.59-1.5h0Z"/><path class="cls-22" d="M586.18,615.86c-1.98,5.61-2.76,12.68-.3,18.27,1.03,2.34,2.88,4.35,5.43,4.99,3.29,.83,6.72-.55,9.52-2.19,6.19-3.63,11.26-9.21,15.86-14.62,1.24-1.46-.87-3.59-2.12-2.12-4,4.7-8.28,9.43-13.39,12.96-2.52,1.74-5.58,3.47-8.53,3.19-.06-.01-.2-.02-.54-.11-.21-.05-.42-.12-.62-.19-.04-.01-.15-.05-.45-.22-.14-.08-.74-.5-.53-.33-.91-.73-1.24-1.22-1.77-2.29-1.01-2.01-1.33-4.69-1.32-7.17,.02-3.22,.57-6.29,1.66-9.37,.64-1.83-2.26-2.61-2.9-.8h0Z"/><path class="cls-22" d="M736.87,487.56c10.03,5.89,21.8,8.42,33.28,9.45,13.93,1.26,28.08,.18,41.77-2.55,8.07-1.61,16.01-3.85,23.72-6.72,1.79-.67,1.02-3.57-.8-2.89-13.31,4.97-27.34,8.07-41.5,9.21-12.76,1.02-25.84,.58-38.3-2.54-5.81-1.45-11.48-3.51-16.66-6.54-1.66-.99-3.17,1.6-1.51,2.58h0Z"/><path class="cls-22" d="M925.89,631.64c10.66,6.25,23.58,8.46,35.73,9.45,14.24,1.15,28.8,.34,42.78-2.63,7.09-1.51,14.08-3.64,20.62-6.79,1.74-.84,.22-3.42-1.51-2.59-11.71,5.63-25,8.04-37.87,9.03-13.54,1.04-27.44,.53-40.71-2.53-6.08-1.4-12.12-3.35-17.52-6.52-1.68-.99-3.19,1.61-1.52,2.58h0Z"/><path class="cls-10" d="M395.13,467.76c6.98,1.99,10,2,17.45,10.09,13.55,42.91,50.81,19.96,46.27,2.72,10.89-1.81,23.59-2.72,39.01-12.7,9.07,6.35,15.42,12.7,24.5,29.03-13.61-2.72-30.85,15.42-30.85,15.42,0,0,34.47,50.81,4.54,60.78-13.61,2.72-30.85,4.54-62.6,3.63-19.32-12.97-30.32-30.97-27.23-55.33-23.59-10.89-38.32-7.13-53.09,2.36,5.7-28.54,21-62,42-56h0Z"/><path class="cls-22" d="M330.92,404.37c-52.9-8.31-10.97-180.26,129.67-127.72,9.47,2.88,18.47,5.17,26.76,10.6,60.4,28.26,51.95,62.47,45.89,74.58-1.59,3.17-3.88,5.91-6.7,8.04-10.23,7.75-39.52,24.31-60.43-19.94-17.24,45.36-69.86,16.33-64.41-8.17,2.27,19.96-18.14,46.27-48.08,32.66-.91,2.72-1.81,4.54-1.81,7.26-15.53-18.48-33.58,9.08-20.88,22.69h0Z"/><path class="cls-17" d="M633.88,522.46c.11,.1,.66-.29,.65-.35-.03-.13-.73-.48-.77-.67-.05-.24,.34-.24,.29-.73-.04-.38-.73-1.01-.93-1.56-.1-.25,.15-.46,.06-.81,0,0-.06-.32-.11-.4-.03-.05-.4-.24-.41-.27-.06-.2,.25-.32,.19-.52-.08-.25-.43-.53-.49-.77-.02-.06-.15-.32-.15-.29,.02-.09,.31,0,.3-.13-.03-.32-.37-.92-.5-1.46-.13-.55-.1-.96-.21-1.58-.03-.16-.36-.43-.35-.47,0-.19,.4-.26,.4-.45-.02-.47-.65-1.47,.08-1.82,.18-.08,1.05,.15,1.24,.05,.03-.01,.04-.22,.07-.21,.44,.09,2.38,1.61,2.67,1.9,.34,.34,.51,.79,.86,1.23,.1,.12,.08,.14,.16,.29,0-.01,.14,.27,.16,.29,.18,.19,.71,.35,.84,.52,.23,.29,.02,.53,.24,.81,.2,.25,.56,.51,.76,.74,.11,.13,0,.26,.11,.4,.04,.06,.4,.1,.45,.16,.06,.06-.13,.15-.08,.22,.39,.5,.75,.98,1.27,1.43,.72-.25,.17-.89-.02-1.37-.32-.79-.58-1.45-.97-2.42-.11-.28-.28-.54-.44-.99-.15-.44-.42-.88-.56-1.39-.02-.08-.23-.22-.16-.29,.16-.15,.1-.08-.09-.51-.2-.45,.53-.54,1.55-.13,1.18,.48,1.09,1.89,1.87,2.04,1.34,.26-.1-1.51-.2-1.78-.16-.5,.11-.79,.03-.97-.05-.11-.29-.24-.39-.36-.48-.58-.65-1.58-1.06-2.36-.46-.9-.76-2.45-.8-3.44,.41-.03,1.08,.29,1.65,.32,1.33,.07,1.56,.96,2.81,1.59,.26,.04,.35-.22,.35-.39,0-.25-.34-.33-.38-.47-.1-.32-.05-.64-.23-1.03-.06-.13-.31-.29-.38-.46-.09-.24-.04-.33-.11-.51-.12-.29-.44-.61-.52-.85-.11-.34,.1-.63-.01-.96-.1-.29-.33-.74-.49-1.08-.17-.37-.6-.89-.48-1.07,.26-.4,.54,.13,.75-.06,.07-.41-.66-.12-.83-.67-.08-.27,.68-1.05,1.02-1.19,.12-.05,.47-.16,.78-.18,.74-.06,1.82,.44,2.63,.34,.33-.04,.53-.22,.83-.42,.26-.18,.95-.43,.69-.94-.14-.27-.35-.12-.16-.4,.09-.13-.36-1-.46-1.31-.08-.28,0-.47-.09-.74-.02-.07-.4-.28-.42-.33-.04-.12,.11-.23,.07-.35-.18-.52-.31-1.38-.57-2.16-.02-.07-.41-.27-.43-.32-.09-.24,.11-.49-.1-.74-.2-.24,.05-.4-.08-.85-.04-.13-.38-.35-.41-.43-.21-.62,.02-1.2-.12-2.04-.03-.16-.34-.37-.39-.54-.31-1.01,.05-2.01,1.77-1.84,.33,.03,.98,.21,1.62,.51,.48,.22,.94,.88,1.62,.51,.72-.39,.78-1.55,.65-2.43-.03-.22-.3-.35-.39-.66,.01,.05,.38,0,.25-.08-.64-.38-.45-1.58-.63-2.26,0-.03-.24-.05-.22-.15,0-.06,.23-.13,.26-.08-.14-.34-.56-.53-.61-.81-.05-.25,.13-.64,.14-.94,0-.94-.54-1.87,.1-2.62,.32-.37,.95-.34,.87-1.08-.02-.17-.31-.35-.18-.5,0,0,1.11-.65,1.3-.68,1.43-.23,4.25,.87,3.2-.45-.13-.16-.53-.27-.67-.44-.14-.17-.05-.47-.17-.63-.17-.21-.64-.39-.67-.44-.24-.33-.15-.8-.36-1.13-.04-.06-.43-.12-.46-.17-.14-.2,.02-.43-.16-.74-.09-.17-.31-.33-.42-.53-.07-.12,.02-.39,.04-.36-.27-.47-.91-.59-.62-.91,.22-.07,.55-.07,.97-.02,.67-.54-.5,.26,.02-.24,.14-.13,.41-.15,.51-.31,.36-.06,.5,.2,.93,.34,.3,.1,.91,.13,1.18,.24,.61,.25,.8,.72,1.13,.73,1.96,.02,.21-1.46-.06-1.83-.54-.74-.76-1.36-1.23-2.18-.24-.41-.76-.86-1.06-1.42-.1-.19-.12-.27-.2-.38-.16-.21-.43-.94-.61-1.37-.08-.19-.14-.42-.19-.62,0,.02-.4-.09-.23-.14,.61-.18,.02-.23-.2-.5-.25-.29,.04-.44-.17-.85-.03-.06-.44-.24-.46-.28-.11-.26-.08-.54-.17-.85-.07-.26-.08-.56-.17-.85-.28-.85-.75-1.53-.78-2.56,0-.04,.32-.26,.27-.46-.13-.59,.26-1.61,.62-1.98,.4-.41,.52-.45,1.01-.65,.58-.23,2.48-.17,3.11,.19,.13,.07,.32,.35,.46,.39,.3,.1,.86,0,1.2,.08,.17,.03,.52,.32,.7,.29,1.03-.17,.59-1.13,.34-1.67-.27-.58-.09-1.16-.87-1.62-.22-.13-.39-1.04-.64-1.48-.08-.15-.32-.33-.45-.51-.08-.11,.11-.26,.02-.36-.04-.04-.46-.11-.47-.14-.1-.19,.12-.49,.04-.72-.08-.21-.42-.33-.46-.5-.05-.23,.24-.32,.27-.59,.03-.37-.4-.89-.42-1.34-.02-.42,.24-.88,.3-1.31,.1-.76-.27-1.8,.33-2.27,.2-.16,.62,0,.96-.09,.35-.09,.58-.39,1.21-.32,.39,.04,1.22,.3,1.67,.3,.07,0,.23-.15,.48-.1,.19,.03,1.24,.42,1.66,.55,.36,.11,.59,.15,.95,.28,.66,.23,.97,.34,1.92-.05,.23-.1,.85-.34,.98-.45,.22-.21,.11-.8,.27-1.09,.15-.28,.46-.45,.5-.6,.16-.61,.29-1.6,.32-2.32,.01-.28-.24-.52-.22-.74,.18-2.1,.34-4.65-1.07-6.51-.21-.28-.02-.59-.23-1.1-.22-.55-.74-1.07-.94-1.6-.16-.42-.02-.82-.23-1.22-.05-.09-.27-.13-.24-.25,0-.04,.21-.18,.24-.12-.21-.37-.63-.47-.72-.73-.24-.69-.43-2.51-.24-2.68-.02,.02,.48-.12,.48-.12-.05,.02,.4-.13,.24-.12,.37-.02,.57,.29,.72,.24,1.42-.45,.61-2.51,0-3.29-.48-.62-.45-1.96-.75-3.04-.28-1-1.04-1.86-.75-2.42,.19-.38,1.51-.72,1.66-1,.35-.65-.41-1.38-.52-2.18-.03-.19,.21-.42,.23-.61,.03-.43-.26-1.55-.05-2.19,.19-.58,1-1.14,1.15-1.74,.24-.96-.05-2.27-.1-3.54-.05-1.22,.06-2.49-.13-3.66-.09-.57-.44-1.09-.55-1.69-.23-1.31,.22-2.71-.16-3.77-.08-.23-.49-.45-.51-.71-.04-.57,.56-1.09,.38-1.97-.25-1.21-.85-2.89-1.19-4.33-.08-.32,.03-.57-.05-.85-.12-.41-.48-.78-.55-1.19-.03-.18,.26-.43,.2-.62-.17-.59-.7-1.12-.82-1.66-.08-.36,0-.74-.07-1.09-.17-.81-.6-1.6-.63-2.27,0-.09-.09-.28-.02-.36,.01-.01,.47-.16,.47-.15-.01-.1-.43-.33-.52-.57-.22-.58-.13-1.5-.13-1.94,0-.31-.3-1.02-.11-1.57,.31-.92,1-1.64,2.77-1.66-.16,0,.74,.07,.73,.07,.15,.05,.1,.29,.26,.35,.47,.15,1.01,.16,1.22,.28,.13,.07,.06,.41,.28,.59,.06,.05,.45,.05,.49,.09,.06,.06-.06,.19,.02,.24,.22,.14,.65,.14,.99,.3,.21,.1,.29,.35,.51,.45,.85,.4,2.13,1.08,2.18,.22,0-.11-.32-.25-.27-.47,.07-.37,.45-.64,.42-.89-.04-.25-.4-.44-.53-.7-.19-.38-.01-.69-.32-1.08-.29-.37-.32-.25-.29-.72,.02-.38-.4-.6-.56-1.06-.18-.51-.16-1.05-.36-1.57-.22-.55-.62-1.07-.85-1.65-.26-.64-.32-1.38-.65-2.03-.1-.19-.44-.36-.53-.57-.13-.29,.02-.56-.07-.85-.12-.35-.49-.9-.83-1.28-.23-.26-.37-.69-.58-1.17-.35-.8-.47-2.12-.99-2.97-.14-.22-.45-.37-.53-.56-.1-.24,0-.58-.08-.85-.13-.5-.59-1.01-.62-1.41-.02-.35,.73-1.46,.04-2.08-.37-.34-.22-1.31-.45-2.16-.06-.24-.26-.3-.29-.46-.05-.26,.23-.63,.15-.87-.06-.19-.49-.26-.53-.44-.06-.25,.22-.52,.17-.75-.16-.73-.58-1.37-.69-2.01-.07-.42,.1-.93,.08-1.48-.02-.79-.47-1.74-.26-2.42,.12-.41,.74-1.08,1.07-1.22,.42-.18,1.67-.22,1.89-.33,.34-.17,.59-.51,.87-.83,.54-.62,.77-.88,.51-1.9,0-.04-.26-.18-.28-.34-.01-.13,.18-.42,.2-.39-.09-.2-.47-.26-.53-.43-.09-.25,.02-.52-.09-.73-.09-.19-.41-.35-.55-.55-.1-.14,.02-.34-.06-.49-.1-.19-.42-.37-.55-.55-.31-.45-.16-.9-.63-1.28-.08-.07-.48-.15-.5-.19-.13-.17,.02-.42-.07-.61-.08-.16-.39-.29-.54-.43-.09-.09,.06-.28-.04-.36-.04-.04-.47-.04-.49-.06-.21-.28-.19-.67-.36-.94-.4-.67-1.68-1.47-1-2.21,.82-.29,.2,.39,.76,.27,.23-.29-.07-.36,.16-.63,.25-.3,.85-.35,.89-.6,.04-.25-.5-.56-.58-.79-.15-.39-.01-.87-.17-1.33-.11-.32-.5-.58-.6-.91-.32-1.03-.67-2.56-.49-3.75,.03-.21,.32-.32,.41-.55,.15-.37-.07-.69,.11-1,.28-.49,1.02-.85,1.28-1.28,.47-.78,.14-1.69,.38-2.52,.06-.21,.37-.48,.39-.67,.05-.5-.22-.94-.21-1.45,.01-.6,.38-1.35,.43-2.04,.05-.63-.23-1.28-.03-1.85,.16-.46,1.06-1.01,1.23-1.55,.2-.63-.09-1.71-.16-2.71,0,.01-.28,.01-.26-.08,.24-1.07-.35-2.57-.54-3.53-.04-.22,.23-.3,.16-.52-.1-.3-.14-.6-.15-.97,0-.24-.32-.39-.33-.57-.03-.57-.06-.96-.26-1.58-.07-.21,.2-.4,.14-.65-.03-.11-.32-.64-.42-1.06,0,.03-.4,0-.26-.08,.71-.44-1.04-.86-1.19-1.3-.11-.33,.35-.73,.52-1.22,.42-1.2,.1-2.88-.06-4.56-.03-.29-.58-.82,.28-1.14,.01,1.33,.64,2.41,.89,3.61,.04,.17-.19,.48-.13,.65,.08,.26,.48,.42,.6,.65,.09,.18-.2,.4-.13,.65,.03,.12,.29,.23,.32,.45,.04,.26-.17,.54-.11,.77,.22,.93,.98,1.84,1.17,2.69,.03,.12,.15,.36,.08,.49-.06,.12-.43,.14-.43,.32,0,.15,.46,.1,.51,.17,.11,.15-.21,.25-.2,.28,.48,1.09,.35,2.53,.87,3.98,.15,.4,.59,.75,.66,1.15,.22,1.17-.35,2.35-.01,3.12,.08,.17,.63,.59,.6,.78,0,.06-.43,.14-.46,.19-.21,.32,.07,.45-.37,.8-.29,.23-.82,.48-.84,.87-.02,.35,.18,.69,.16,1.09-.02,.3-.3,.62-.35,.92-.13,.81,.35,1.52,.33,2.31,0,.27-.32,.6-.36,.92-.06,.46,.22,.92,.2,1.46,0,.21-.34,.57-.37,.79-.12,.69,.37,.77-.33,1.16-.04,.02-.45,.17-.46,.19-.11,.18,.24,.44,.08,.61-.06,.07-.61,.14-.7,.22-.05,.04-.55,.68-.61,.82-.1,.21,.14,.5,.11,.85-.04,.54-.46,.81-.28,1.52,.02,.09,.31,.09,.27,.21-.05,.15-.19,.94-.06,1.36,.07,.23,.47,.44,.57,.66,.14,.31,.02,.79,.16,1.21,.38,1.22,1.83,1.8,.83,2.73-.18,.16,.07,.14-.21,.27-.27,.13-.27,.04-.46,.18-.4,.3-.37,.53-.14,.88,.05,.07,.31,.11,.27,.21-.01,.03-.31,.04-.22,.15,.17,.22,.67,.4,.8,.64,.27,.49,.11,1.04,.42,1.43,.16,.19,.68,.35,.79,.52,.21,.32,.17,.73,.37,1.06,.21,.35,.58,.68,.84,1.01,.13,.16,.15,.36,.31,.58,.11,.15,.48,.31,.53,.43,.19,.44,0,.93,.16,1.34-.72,.17-.5-.28-1.22-.11,.18,.53,1.35,.02,1.71,.17-.02,.76,.16,1.57,0,2.22-.1,.44-.43,.59-1.08,1.11-.61,.48-.7,.53-1.83,.94-.29,.1-1.11,.32-1.17,.37-.24,.22,.01,.63-.12,1.12-.07,.23-.4,.5-.41,.66-.07,.86,.54,1.86,.79,2.86,.13,.52,.03,1.05,.15,1.46,.08,.29,.54,.57,.56,.8,.03,.28-.37,.59-.39,.9-.03,.37,.02,.85,.36,1.19,.13,.13,.47,.16,.51,.32,.06,.23-.47,.6-.41,.78,.16,.44,.92,.81,1.08,1.24,.43,1.14-.71,3.01,.38,4.01,.3,.27-.12,1.92,.69,2.27,.48,.21,.32,0,.29,.59-.03,.57,.35,.94,.84,1.4,.4,.38-.15,.26-.19,.63,0,.07,.37,.68,.56,.94,.13,.17,.45,.29,.52,.45,.13,.32-.07,.78,.09,1.1,.17,.34,.67,.6,.8,.92,.08,.2-.26,.39-.18,.75,.04,.19,.37,.19,.52,.45,.1,.17-.05,.57,.06,.73,.12,.19,.34,.39,.53,.57,.61,.58,.72,1.62,1.18,2.74,.09,.23,.38,.31,.52,.58,.21,.42,.18,1.23,.38,1.95,.1,.36,.38,.77,.34,1.33-.01,.17,.04,.48,.04,.49-.05,.14-.4,.19-.46,.28-.24,.36-.08,.36-.68,.66-.07,.04-.43,.27-.46,.28-.87,.24-2.51,.17-2.88,.07-.14-.04,.08-.42-.03-.49-.18-.11-.89-.13-1.22-.28-.16-.07-.13-.27-.27-.35-.14-.08-.34-.12-.49-.21-.58-.34-.97-.71-1.52-.99-.56-.3-1.21-.52-1.74-.73-.51,.47-.03,.96-.14,1.47-.05,.22-.43,.54-.43,.76,0,.31,.44,.51,.54,.82,.16,.49-.18,1.07-.14,1.59,.04,.44,.19,1.08,.34,1.56,.09,.29,.48,.56,.54,.82,.05,.27-.29,.49-.19,.74,.07,.18,.13,.4,.28,.59,.11,.14,.45,.28,.51,.46,.09,.31-.23,.66-.18,.99,.04,.27,.39,.4,.52,.7,.29,.69-.2,1.52,.36,2.06,.14,.14,.42,.18,.5,.34,.19,.37-.03,.8,.07,1.22,.07,.29,.4,.43,.52,.71,.09,.19-.23,.22-.22,.38,0,.12,.49,.49,.52,.71,.03,.19-.27,.24-.22,.38,.09,.23,.47,.39,.51,.59,.04,.22-.22,.37-.21,.62,0,.17,.26,.42,.27,.6,.03,.41-.2,.82-.18,1.23,.01,.26,.29,.47,.27,.72-.02,.24-.23,.51-.21,.74,.07,.84,.65,1.77,.35,2.56-.04,.11-.21,.55-.22,.5,.02,.23,.4,.36,.51,.59,.29,.64,.1,1.19,.07,1.83-.03,.6,.27,1.24,.3,1.83,.07,1.07-.15,2.19-.14,3.31,.01,.9,.48,1.54,.06,2.33-.2,.38-1.04,.65-1.17,1.13-.07,.28,.46,1.71,.53,2.19,.05,.34-.02,.76,.02,1.22,.07,.74,.61,1.67,.28,1.95-.26,.22-1.95,.24-2.15,.4-.25,.21,.03,2,.26,2.19,.26,.21,.07,.5,.25,.97,.06,.17,.43,.34,.48,.48,.18,.55,.03,1.17,.26,1.71,.15,.35,.58,.65,.72,.98,.09,.19-.05,.42,0,.61,.08,.32,.47,.56,.48,.73,0,.12-.11,.72-.24,.86,0,0-.27,.15-.55,.3-.28,.15-.58,.3-.65,.31-.77,.14-1.09-.27-1.44,0-.21,.16-.38,.67-.24,1.22,.06,.25,.54,.32,.72,.61,.09,.14-.13,.48,0,.86,.07,.23,.4,.39,.47,.61,.13,.42-.1,.91,.23,1.47,.03,.06,.46,.21,.48,.25,.09,.19-.06,.42,0,.61,.06,.24,.4,.42,.47,.62,.31,.88,.35,1.65,.69,2.46,.15,.37,.45,.75,.46,.99,0,.3-.29,.49-.25,.73,.07,.47,.43,.6,.46,.87,.03,.25-.25,.49-.26,.73,0,.23,.2,.49,.22,.74,.02,.2-.26,.48-.26,.73,0,.22,.26,.27,.23,.5-.05,.32-.43,.6-.51,.97-.04,.19,.23,.43,.22,.62-.01,.36-.47,.88-.52,1.34-.03,.22,.28,.45,.22,.62-.08,.24-.35,.46-.5,.72-.21,.37-.37,.8-.26,.73-.58,.39-2.06,.56-3.14,.49-.6-.03-.98-.26-1.66-.43-.39-.1-.65-.08-.96-.16-.74-.2-.84-.22-2.39-.33-1.01-.07-1.02-.21-1.45,.19-.36,.32,.25,.2,.21,.73-.02,.3-.3,.59-.28,.95,.01,.28,.26,.62,.2,.85-.06,.25-.52,.39-.51,.58,.03,.31,.35,.96,.66,1.36,.1,.13,.18,.19,.22,.37,.08,.34-.29,.51-.28,.83,0,.17,.28,.5,.44,.75,.15,.23,.28,.61,.44,.75,.17,.15,.79,.29,.93,.53,.43,.76-.27,1.2,.37,1.96,.12,.15,.04,.27,.22,.38,.05,.03,.45,.12,.47,.15,.14,.19-.32,.2-.26,.35,.04,.09,.44,.12,.47,.27,.24,1.23-.45,2.49-3.25,1.86-.19-.04-.45-.11-.71-.17,0,0-.65-.14-.71-.17-.18-.08-.36-.56-.68-.65-.04-.01-.67,.09-.97,.06-.16-.01-.6-.26-.95-.18-.33,.08-.05,.19-.26,.34-.04,.03-.48,.07-.49,.09-.19,.3-.29,1.12-.35,1.53-.04,.26,.21,.59,.17,.97-.04,.45-.15,.96,.12,1.68,.07,.18,.1,.42,.19,.61,.08,.16,.38,.36,.44,.51,.36,1.04,.26,2,.52,2.44,.25,.43,.97,.78,1.12,1.06,.02,.04-.15,.33-.06,.72,.03,.11,.44,.35,.45,.4,.04,.18-.34,.21-.27,.34,.09,.18,.39,.14,.68,.43,.22,.21-.03,.41,.18,.62,.18,.18,.43,.37,.67,.55,.13,.1,.61,.33,.68,.43,.11,.14-.12,.33-.05,.48,.03,.07,.43,.24,.45,.29,.12,.22,.02,.52,.17,.75,.35,.54,1.01,1.01,1.3,1.48,.42,.68,.73,1.26,.32,1.5-.23,.14-.6-.04-.97,.02-.22,.04-.16,.2-.5,.19-1.38-.03-2.87-.72-3.76-.9-.12,.54,.77,1.02,1.04,1.45,.23,.36,.15,.7,.37,1.01,.32,.45,.94,.88,1.31,1.25,.14,.14,.07,.26,.2,.39,.09,.1,.36,.21,.45,.3,.11,.1,.06,.27,.2,.39,.31,.27,.36,.14,.63,.81,.24,.59,.27,.58-.57,.66-.72,.07-3.73-.49-4.33-.18-.52,.27,.29,.72,.32,1.25,0,0-.34,.09-.27,.21,.07,.13,.35,.26-.06,.48-.5,.26-.82-.1-1.71,.13,.01,.71-.31,1.28-.25,1.89,.02,.18,.34,.35,.41,.54,.12,.36-.03,.77,.06,1.22,.15,.81,.57,1.67,.56,2.75,0,.03,.31,.17,.2,.27-.04,.04-.28-.06-.26,.08,.03,.2,.34,.35,.4,.55,.09,.26,.18,2.08-.16,2.41-.04,.04-.42,.11-.51,.16-.64,.33-2.43,.21-4.06-.45-.74-.3-1.05-.36-1.26,.26-.03,.09,.26,.23,.18,.39-.06,.12-.26,.44-.14,.81,.15,.46,.57,.8,.56,.94-.05,.74-.91,.23-.18,.93,.56,.54,.38,1.62,.74,2.55,.19,.49,.49,1,.68,1.58,.07,.24-.02,.53,.09,.75,.09,.19,.57,.13,.68,.26-.03-.03-.02,.47,.09,.75,.16,.4,.46,.91,.4,1.55-.02,.27-.32,.36-.36,.54-.13,.59,.16,1.14-1.03,1.36-.06,.01-.47,0-.5,.01-.35,.24-.25,.08-1.02,.14-.15,.01-.44,.13-.52,.12-.93-.02-1.8-.39-2.19-.14-.41,.26,.42,2.02,.6,2.67,.2,.7-.08,.82,.43,1.32,.36,.36,.06,.35,.26,.92,.03,.1,.3,.26,.37,.46,.07,.2,.34,.37,.37,.46,.07,.2-.23,.37-.15,.57,.05,.12,.3,.31,.37,.47,.09,.21,.02,.3,.11,.52,.14,.32,.51,.75,.51,.88,.01,.21-.3,.13-.32,.28-.04,.27,.38,.8-.67,.68-.54-.06-.81,.02-.99-.03-.89-.21-1.14-.54-2.13-1.32-.06-.05-1.14-1.31-1.65-1.29-1.05,.03,.19,.93,.54,1.71,.3,.68-.03,1.58,.86,2.18,.55,.37-.08,.51,.43,1.1l.4,.36c.06,.19-.28,.37-.16,.57,.11,.19,.56,.23,.62,.43,.05,.15,.09,.5,.1,.52,.05,.37-.34,.7-.28,.9,.06,.21,.54,.17,.65,.33,.12,.17-.1,.62-.02,.86,.03,.09,.72,.51,.24,.83-1.15-.06-1.8-.45-2.21-.96-.1-.12-.4-.25-.39-.37,0-.05,.38-.07,.3-.15-.09-.1-.53-.23-.65-.33-.28-.22-.51-.74-1.2-.98-.14,.3,.07,.51,.24,.81,.04,.06-.13,.16-.07,.22,.17,.16,.51,.27,.61,.44,.12,.2-.09,.41,.05,.63,.32,.49,1.24,1.07,1.24,1.64,0,.24-.46,.35-.41,.49,.12,.29,.67,.56,.95,.94,.18,.25,1.03,2.52,.25,2.86,0,0-1.17-.05-1.47-.15-.52-.17-.36-.3-.6-.47-.28-.2,.04-.03-.23-.08-.9-.19-.35-.46-.71-.88-.12-.14-.83-.42-1.05-.62-.06-.05-.09-.24-.15-.3-.57-.58-.94-1.52-1.5-2.22-.25-.31-.69-.63-.95-.92-.14-.16-.16-.56-.51-.77-.07-.04-.42-.11-.46-.15-.29-.37-.11-.74-.41-1.08-.37-.42-.87-.51-1.23-.87-.88-.19-.13,.36-.63,.38-.32-.13,.02-.34-.35-.46-.45,0-.08,.38,.35,.46,.95,.17,.15,.7,.22,.89,.05,.14,.36,.21,.39,.36,.03,.2-.21,.33-.17,.53,.07,.35,.42,.88,.53,1.36,.08,.32-.36,1.48,.08,1.92,.1,.1,.61,.25,.64,.35,.05,.15-.24,.33-.23,.64,0,.29,.6,.8,.63,1.08,.02,.16-.47,.29-.43,.44,.05,.16,.23,.31,.33,.49,.05,.09,.02,.26,.1,.4,.04,.06,.39,.23,.41,.28,.03,.08-.13,.13-.08,.21,.21,.38,.22,.36,.38,1,.14,.5,1.56,3.55-.06,3.31-1.06-.15-1.3-.35-1.85-1.15-.13-.18,.05-.12-.13-.3-.2-.19,.01-.38-.49-.69-.56,.33,.07,1.12,.3,1.71,.11,.27,.31,.62,.39,.91,.18,.63,.22,1.15,.51,1.84,.1,.25,.39,.61,.42,.82,.03,.21-.27,.31-.25,.52,.01,.1,.34,.38,.34,.41-.03,.34-.38,.58-.45,.93-.75-.32-1.32-.43-2.22-.93,0,.17-.02,.3,.19,.72,.1,.2,.4,.4,.5,.62,.1,.23-.11,.4-.03,.62,.07,.18,.42,.46,.5,.63,.19,.44,.24,.79,.44,1.25,.2,.47,.64,1.03,.68,1.27,.03,.16-.33,.39-.33,.62,0,.02,.68,.54,.2,.64-.49,.1-1.06-.23-1.59-.59-.83-.57-.41-1.35-1.21-1.81-.25-.09-.14,.06-.11,.2,.02,.07,.01,.26,.05,.41,.09,.33,.32,.67,.52,1.06,.09,.18,0,.16,.1,.32,.38,.52,1.27,2.48,.86,2.87-.18,.19-.1,.17-.65,.16-.25,0-.48-.17-.59,.06-.26,.53,.59,1.19,.85,1.87,.05,.13,.05,.53,.11,.76,.13,.49,.35,.83-.23,.83-.11,0-.52-.16-.54-.06-.08,.41,.51,1.4,.83,2.24,.15,.4,.3,.78,.4,1.14,.1,.37,.08,.72,.2,1.02,.23,.61,.83,1.46,1.07,2.25,.06,.19-.11,.26-.03,.45,.23,.5,.3,1.3,.61,2.02-.41,.38-.17-.36-.69,.13-.2,.18-.39,.05,.08,.7,.4,.33,.36-.31,.57-.38,.52,.62,.19,1,.35,1.56,.1,.4,.87,1.61,.69,1.87-.19,.29-.27-.14-.07,.46,.08,.23,.2,.43,.31,.76,.22,.68,.16,1.68,.36,2.6,.05,.23,.28,.61,.29,.79,0,.15-.27,.18-.27,.33,0,.12,.44,.77-.17,.97-.38-.13-.6-.71-.64-.74-.12-.1-.47-.11-.63-.36-.29-.44-.12-1.34-.22-2-.03-.16-.18-.32-.2-.52-.04-.34-.1-.89-.15-1.34l.75,.6c.51-.15-.66-.64-.95-1.11,.17,.27-.33-1.07-.33-1.11,0-.15,.31-.79,.01-1.16-.57-.71,.09-.02-.07-.71-.04-.18-.23-.44-.35-.75-.13-.33-.13-.72-.32-1.19-.02-.05-.01-.31-.04-.35-.56-.66,0-.04-.09-.69-.01-.08-.3-.31-.31-.38-.04-.25,.06-.54-.02-.78-.12-.37-.63-.91-.81-1.33-.11-.24,.06-.45-.04-.77-.07-.2-.33-.5-.39-.71-.06-.19,.12-.25,.13-.2-.04-.16-.28-.24-.33-.37-.24-.64-.28-1.36-.62-2.12-.2-.44-.65-.95-.83-1.37-.08-.19,.09-.36,.05-.51-.11-.4-.52-1.01-.73-1.53-.15-.36-.07-.68-.21-1.06-.03-.07-.34-.29-.35-.34-.06-.28,0-.51-.28-.95-.15-.22-.41-.88-.64-1.27-.21-.36-.29-.81-.6-1.35-.29-.51-.58-.73-.56-.93,0-.22,.66-.24,.78-.44,.29-.49-.52-1.66-.89-2.43-.05-.11,.02-.26-.06-.39-.09-.14-.3-.44-.44-.7-.13-.27-.33-.69-.51-1.08-.08-.18,0-.23-.08-.39-.11-.21-.66-.85-.55-1.09,.12-.24,.67-.2,.97-.35,.81,.48,.59,.92,1.71,1.42-.27-.22-.37-.57-.63-.9-.2-.25-.3-1.13-.58-1.56-.06-.09-.32-.34-.34-.39-.07-.17,.21-.44,.1-.76-.08-.21-.75-.44-.45-.78,0,0,.4,.19,.44,.2,.07,0,.46-.29,.43-.39,1.21,.75,1.47,1.5,2.16,2.26,.84,.16,.14-.72,0-1.19-.08-.24-.38-.52-.45-.79-.05-.23,.14-.43,.04-.69-.07-.17-.25-.24-.35-.39-.2-.27-.35-.81-.55-1.16-.29-.52-.89-1.18-.7-1.43l.58-.12c.28-.06,.56-.11,.54-.11,.36,.1,.34,.31,.77,.66,.89,.73,.5,.28,.65,.97,.02,.09,.33,.31,.36,.38,.12,.25,.12,.46,.23,.68,.25,.51,.74,1.04,.93,1.46,.19,.42,.05,.8,.27,1.2,.08,.15,.38,.39,.53,.6,.12,.17,.06,.51,.52,.6,.57-.11,.08-.63-.08-1.01-.07-.16-.16-.38-.26-.6-.02-.05-.08-.22-.13-.3-.04-.07-.39-.26-.4-.29-.06-.16,.24-.25,.18-.4-.03-.08-.39-.26-.4-.29-.05-.23,.06-.35,0-.6-.06-.22-.16-.43-.22-.68-.12-.45,.02-.68-.3-1.19-.12-.19-.48-.43-.55-.57-.21-.44,.06-.7-.09-1.09-.18-.45-.49-.86-.72-1.44-.05-.11-.32-.41-.33-.47-.04-.22,.23-.19,.16-.4-.17-.48-.87-1.34-.66-1.73,.08-.15,.9-.47,.93-.46,.46,.08,1.23,.85,1.74,1.55,.8,1.1,1.07,2.15,1.58,3.29,.12,.27,.37,.54,.47,.78,.14,.33,.08,.57,.2,.8,.17,.3,1.04,1,.7,1.49h-.05Z"/><path class="cls-3" d="M698.08,311.14c0-9.47-2.88-17.81-27.23-29.13-105.5-49.05-399.09-109.2-429.75-82.68-48.53,41.97-57.95,312.73-29.41,362.54"/><path class="cls-26" d="M918.62,.02c-28.27-2.06,117.85,156.39-30.01,221.9-3.15,1.39-6.8,1.21-9.75-.56-87.43-52.31-88.39-214.75-114.66-180.81-.31,.4-.59,.83-.84,1.27-31.34,55.35,20.08,105.68,2.85,121.68-17.14,15.91-68.95-100.68-72.21-117.56-.06-.3-.12-.61-.2-.91-10.81-40.92-85.76,56.11,57.51,245.22,3.89,5.13,2.49,12.55-3.08,15.78-37.89,22.01-146.74-36.31-176.66-102.36-20.66-45.61-46.89,69.85,37.69,160.03,26.4,28.14,69.2,63.02,128.52,61.79,206.78-4.31,174.86,84.65,194.64,94.54s76.15-38.19,46.99-136.67c-1.08-3.64-.22-7.59,2.36-10.37,78.8-84.87,41.23-327.05-59.93-372.11-1.02-.45-2.1-.78-3.22-.86h0Z"/><ellipse class="cls-22" cx="428.83" cy="402.34" rx="3.86" ry="5.03"/><path class="cls-22" d="M387.46,409.48c.84,1.74,1.95,3.38,3.07,4.96,2.87,4.04,6.23,7.74,9.99,10.98,5.37,4.63,11.47,8.31,18.06,10.94,8.45,3.37,17.58,4.84,26.66,4.81,12.53-.04,24.95-2.84,36.71-7.02,1.76-.63,3.51-1.29,5.24-1.97,1.78-.7,1-3.6-.8-2.89-11.88,4.69-24.42,8.14-37.22,8.77-9.15,.45-18.35-.57-27.03-3.57-6.51-2.25-12.75-5.69-18.04-9.97-2.18-1.76-4.23-3.67-6.15-5.72-.82-.88-1.62-1.78-2.39-2.7-.35-.42-.69-.84-1.03-1.27-.07-.09-.15-.19-.22-.28-.05-.07,.12,.16-.05-.07-.15-.2-.3-.39-.45-.59-1.39-1.87-2.46-3.89-3.72-5.82-.02-.03-.03-.06-.04-.09-.84-1.75-3.43-.23-2.59,1.5h0Z"/><ellipse class="cls-22" cx="464.87" cy="406.42" rx="5.03" ry="3.86" transform="translate(-13.39 797) rotate(-80.4)"/><path class="cls-22" d="M474.11,606.53c4.14,5.05,7.05,11.09,7.95,17.59,.75,5.43,.05,11-1.83,16.14-1.63,4.43-4.22,8.62-7.69,11.84-2.6,2.41-5.95,4.41-9.36,4.32-1.54-.04-3.16-.63-4.41-1.7-1.79-1.53-2.91-3.67-3.69-5.85-.64-1.81-3.54-1.03-2.89,.8,1.49,4.2,4.24,8.42,8.87,9.49,4.08,.94,8.24-.73,11.48-3.16,8.95-6.72,13.49-18.82,12.74-29.79-.55-8.11-3.91-15.55-9.03-21.79-1.24-1.5-3.35,.63-2.14,2.11h0Z"/><path class="cls-22" d="M450.75,635.8c2.19,4.05,2.48,9.36,1.07,13.84-1.62,5.13-5.82,8.61-11.18,9.22-4.79,.55-9.62-.72-14.08-2.38-1.81-.67-2.59,2.22-.8,2.89,7.4,2.76,16.77,4.43,23.51-.83,4.62-3.61,6.6-9.67,6.37-15.39-.12-3.08-.84-6.15-2.3-8.87-.92-1.69-3.51-.18-2.59,1.52h0Z"/><path class="cls-22" d="M421.18,641.78c2.39,2.88,3.93,6.43,3.55,10.17-.31,3.06-2.06,5.94-4.41,8.06-5.31,4.78-13.5,5.64-19.66,1.93-4.79-2.88-7.77-7.92-9.57-13.08-.63-1.81-3.53-1.03-2.89,.8,1.89,5.41,4.85,10.5,9.54,13.93,3.53,2.58,7.97,3.9,12.34,3.65,7.77-.45,15.88-5.72,17.43-13.73,.99-5.12-.96-9.94-4.2-13.85-1.24-1.49-3.36,.64-2.13,2.12h0Z"/><ellipse class="cls-4" cx="931.98" cy="463.47" rx="7.66" ry="5.87" transform="translate(-54.75 794.76) rotate(-45)"/><g><path class="cls-20" d="M745.41,682.43v-7.1h9.03v7.1h-9.03Zm0,43.17v-37.7h9.03v37.7h-9.03Z"/><path class="cls-20" d="M812.17,726.2c-4.04-.21-6.93-1.3-8.67-3.27-1.72-1.97-2.66-5.08-2.83-9.33-.02-.67-.03-1.4-.03-2.2s.02-1.62,.06-2.42c.04-.82,.12-1.56,.22-2.23h8.86c-.08,1.53-.14,3.04-.16,4.52-.02,1.48,.03,2.85,.16,4.08,.08,.77,.31,1.42,.69,1.95,.4,.5,.96,.86,1.7,1.07v7.83h0Zm3.14,0v-7.82c.67-.23,1.18-.6,1.54-1.1s.58-1.14,.66-1.92c.08-.71,.14-1.41,.16-2.1,.04-.71,.04-1.41,0-2.11-.02-.71-.07-1.42-.16-2.14-.08-.88-.36-1.68-.82-2.39s-1.19-1.19-2.2-1.45l-5.15-1.32c-2.18-.57-3.91-1.37-5.18-2.42-1.28-1.07-2.21-2.39-2.8-3.96-.57-1.57-.88-3.4-.94-5.5-.02-.92-.03-1.74-.03-2.45s.01-1.49,.03-2.26c.17-4.25,1.13-7.35,2.89-9.3s4.71-3.03,8.86-3.24v7.82c-.71,.21-1.26,.57-1.63,1.07-.36,.48-.59,1.11-.69,1.89-.13,1.07-.19,2.15-.19,3.24s.06,2.17,.19,3.24c.1,.84,.4,1.6,.88,2.29s1.26,1.16,2.32,1.41l4.46,1.07c2.35,.57,4.19,1.4,5.53,2.51,1.36,1.09,2.34,2.45,2.92,4.08,.61,1.61,.95,3.5,1.04,5.66,.02,.48,.03,.98,.03,1.51s-.01,1.05-.03,1.57-.04,1.03-.06,1.51c-.17,4.25-1.13,7.36-2.89,9.33-1.76,1.99-4.68,3.07-8.74,3.28h0Zm2.26-32.01c.06-1.45,.1-2.89,.13-4.34s0-2.89-.06-4.34c-.02-.75-.24-1.37-.66-1.85-.4-.5-.95-.86-1.67-1.07v-7.85c3.9,.21,6.73,1.3,8.51,3.27,1.78,1.95,2.75,5.04,2.92,9.27,.04,.9,.04,2,0,3.3-.02,1.3-.06,2.5-.13,3.61h-9.04Z"/><path class="cls-24" d="M789,696.93v-7.6c0-1.75-1.61-3.05-3.32-2.69l-7.42,1.57c-.39,.08-.79,.08-1.17-.01l-6.74-1.51c-1.72-.39-3.35,.92-3.35,2.68v3.88c.08,10,1.55,29.67,6.77,28.36,4.55-1.15,8.57-.71,10.6-.22,.5,.12,1.02,.09,1.25-.37,1.36-2.67,3.37-13.7,3.37-20.95"/><path class="cls-7" d="M778.91,674.22c.36-2.3,2.33-3.99,4.66-3.99h3.86l-1.59,6.27c-.53,2.09-2.41,3.55-4.57,3.55h-3.27l.91-5.83h0Z"/><rect class="cls-20" x="745.41" y="685.55" width="9.03" height="7.46"/></g><path class="cls-7" d="M756.61,756.61c-.64,0-1.22-.1-1.72-.3s-.9-.5-1.19-.92c-.28-.41-.43-.94-.43-1.58,0-.14,.01-.35,.02-.63s.03-.6,.04-.94c.02-.34,.03-.68,.04-1.01,.02-.33,.03-.62,.03-.87,.01-.25,.02-.42,.02-.5,0-.47-.09-.78-.27-.94s-.42-.24-.73-.24h-.37v-1.5h.38c.31,0,.55-.08,.73-.23,.18-.16,.27-.47,.27-.95,0-.09-.01-.25-.02-.5s-.02-.54-.03-.87-.03-.67-.04-1.01c-.02-.34-.03-.66-.04-.94-.01-.28-.01-.5-.01-.65,0-.65,.14-1.18,.43-1.59s.68-.72,1.18-.91c.5-.2,1.08-.3,1.72-.3v.76c-.38,0-.71,.09-1.01,.27-.3,.17-.53,.41-.7,.72s-.25,.66-.25,1.06c0,.13,0,.32,.01,.57,.01,.24,.02,.52,.03,.82,.02,.3,.03,.6,.04,.9,.02,.3,.03,.56,.03,.8,.01,.23,.02,.41,.02,.52,0,.58-.12,1.06-.35,1.45-.23,.38-.56,.62-1,.7v.28c.44,.08,.77,.32,1,.7,.23,.39,.35,.87,.35,1.44,0,.11-.01,.28-.02,.52s-.02,.5-.03,.8-.03,.59-.04,.9c-.01,.3-.02,.57-.03,.82s-.01,.44-.01,.57c0,.4,.08,.75,.25,1.06s.4,.55,.7,.72c.3,.18,.63,.27,1.01,.27v.73h-.01Zm12.99-3.35c-.92,0-1.6-.19-2.03-.56-.43-.37-.65-.99-.66-1.84-.01-.85-.02-1.66-.03-2.43s-.01-1.52-.01-2.26,0-1.49,.01-2.25c.01-.77,.01-1.57,.03-2.43,.01-.84,.23-1.45,.66-1.82,.43-.38,1.11-.57,2.03-.57s1.6,.19,2.03,.57c.43,.38,.67,.98,.7,1.82,.01,.3,.02,.59,.02,.87,.01,.27,.01,.54,0,.82-.01,.27-.02,.56-.03,.87h-1.37c.01-.31,.02-.61,.02-.89,.01-.28,.01-.56,.01-.83s-.01-.57-.02-.88c-.02-.44-.13-.74-.33-.9-.2-.17-.54-.25-1.03-.25s-.81,.08-1.01,.25c-.2,.16-.3,.46-.31,.9-.02,.91-.03,1.75-.04,2.51-.01,.76-.02,1.5-.02,2.22s.01,1.45,.02,2.22c.01,.76,.03,1.6,.04,2.51,.01,.44,.12,.74,.32,.91s.54,.25,1,.25c.51,0,.87-.08,1.08-.25s.33-.47,.35-.91c.01-.27,.02-.53,.02-.78s0-.55-.01-.87-.01-.71-.03-1.15h1.38c.02,.56,.03,1.05,.03,1.48,.01,.42,0,.85-.02,1.27-.03,.86-.27,1.47-.71,1.84-.43,.37-1.13,.56-2.09,.56h0Zm7.28-.13v-13.91h1.38v12.67h3.23v1.24h-4.61Zm10.91,.12c-.95,0-1.62-.19-2.03-.56-.41-.37-.62-.97-.63-1.81-.02-1.96-.03-3.9-.03-5.83s.01-3.87,.03-5.83h1.38c-.01,1.3-.02,2.61-.03,3.92s-.01,2.62,0,3.93,.01,2.62,.01,3.92c0,.38,.1,.66,.29,.82,.2,.16,.54,.23,1.02,.23s.81-.08,1-.23c.19-.16,.29-.43,.29-.82,.01-1.3,.01-2.61,.02-3.92s.01-2.62,.01-3.93-.01-2.62-.03-3.92h1.37c.02,1.96,.03,3.9,.03,5.83,.01,1.93-.01,3.87-.03,5.83-.01,.83-.22,1.44-.63,1.81-.43,.37-1.1,.56-2.04,.56h0Zm7.24-.12v-13.91h2.61c.92,0,1.59,.18,2,.54,.42,.35,.63,.94,.63,1.76,.01,.58,.01,1.08,.01,1.5s-.01,.83-.02,1.23c-.03,.49-.14,.88-.32,1.17-.19,.28-.49,.48-.91,.59v.26c.44,.12,.76,.32,.96,.61,.2,.28,.31,.68,.33,1.17,.02,.51,.03,.97,.03,1.39-.01,.42-.01,.88-.03,1.38-.03,.82-.25,1.41-.65,1.77-.41,.36-1.07,.54-1.98,.54h-2.66Zm1.39-1.27h1.27c.46,0,.79-.08,.97-.23,.19-.16,.28-.43,.29-.82,.02-.49,.03-.94,.03-1.36s-.01-.87-.03-1.36c-.01-.5-.1-.85-.28-1.04-.17-.19-.48-.29-.93-.29h-1.31v5.1h0Zm0-6.37h1.36c.41,0,.7-.1,.86-.29,.17-.2,.26-.52,.26-.98,.02-.5,.02-.96,.02-1.38s-.01-.88-.02-1.37c-.01-.37-.1-.63-.29-.78-.18-.15-.5-.23-.97-.23h-1.23v5.03h0Zm14.07,11.12v-.76c.38,0,.72-.09,1.01-.27,.3-.17,.53-.41,.7-.72s.25-.66,.25-1.06c0-.13-.01-.32-.02-.57-.01-.24-.01-.52-.03-.82-.01-.3-.03-.6-.04-.9-.02-.3-.03-.56-.04-.8-.01-.24-.01-.41-.01-.52,0-.57,.11-1.06,.34-1.44,.23-.39,.57-.62,1.01-.7v-.28c-.44-.09-.78-.32-1.01-.7-.23-.39-.34-.87-.34-1.45,0-.12,0-.29,.01-.52,.01-.24,.03-.5,.04-.8,.01-.3,.03-.59,.04-.9,.01-.3,.02-.57,.03-.82s.02-.44,.02-.57c0-.4-.08-.75-.25-1.06s-.4-.55-.7-.72c-.29-.18-.63-.27-1.01-.27v-.76c.64,0,1.21,.1,1.71,.3s.9,.5,1.18,.91c.29,.41,.43,.94,.43,1.59,0,.15-.01,.37-.02,.65s-.02,.6-.03,.94-.03,.68-.04,1.01c-.02,.33-.03,.62-.04,.87-.01,.24-.01,.41-.01,.5,0,.48,.09,.79,.27,.95s.42,.23,.73,.23h.38v1.5h-.38c-.31,0-.55,.08-.73,.24s-.27,.47-.27,.94c0,.09,0,.26,.01,.5,.01,.25,.03,.54,.04,.87,.02,.33,.03,.67,.04,1.01,.02,.34,.03,.66,.04,.94s.02,.5,.02,.63c0,.64-.14,1.17-.43,1.58-.28,.42-.68,.72-1.18,.92-.51,.23-1.08,.33-1.72,.33h0Z"/><path class="cls-23" d="M360.13,687.63c95.06,5.38,190.7,2.88,296.87-2.53"/><path class="cls-2" d="M431.13,274.19c70.48-13.54,101.83,41.52,89.5,58.64"/><path class="cls-2" d="M317.34,366.77c-44.84-75.77,97.88-118.46,75.01-66.4"/><circle class="cls-15" cx="258.93" cy="314.67" r="8.22"/></svg>