<?xml version="1.0" encoding="UTF-8"?><svg id="_層_3" xmlns="http://www.w3.org/2000/svg" viewBox="0 0 973.16 927.05"><defs><style>.cls-1{stroke:#3d3d59;stroke-linecap:round;stroke-linejoin:round;stroke-width:3px;}.cls-1,.cls-2{fill:none;}.cls-3{fill:#fff;}.cls-4{fill:#8490c1;}.cls-5{fill:#89c8d3;}.cls-6{fill:#65b2c4;}.cls-7{fill:#8e5f72;}.cls-8{fill:#aebac1;}.cls-9{fill:#cfdde5;}.cls-10{fill:#db9f8a;}.cls-11{fill:#474e6d;}.cls-12{fill:#3d3d59;}.cls-13{fill:#5a5a84;}.cls-14{fill:#4d838c;}.cls-2{stroke:#474e6d;stroke-width:9px;}</style></defs><path class="cls-14" d="M830.56,824.56c-.45-11.82-.94-23.63-1.36-35.45-.33-9.31-.62-18.63-.74-27.94-.11-8.9-.06-17.8,.16-26.7,.26-10.45,.75-20.89,1.34-31.33,.79-13.92,1.76-27.82,2.78-41.73,.16-2.12,.31-4.23,.47-6.35,.14-1.93-2.86-1.92-3,0-1.09,14.55-2.13,29.1-3,43.67-.64,10.71-1.18,21.43-1.5,32.16-.27,8.98-.37,17.97-.29,26.96,.08,9.2,.33,18.39,.64,27.59,.39,11.35,.85,22.69,1.29,34.04,.07,1.7,.13,3.39,.2,5.09,.07,1.92,3.07,1.93,3,0h0Z"/><path class="cls-13" d="M66.91,613.82c-19.57-41.45-14.5-89.89,24.59-113.82,164.92-100.91,640.69-99.53,799.25-18.89,38.09,19.37,29.71,48.43,20.42,90.14-56.4,253.3-626.46,503.9-844.26,42.56h0Z"/><path class="cls-4" d="M65.5,572.85c-19.5-12.34,79.49-34.55,59.97-49.12-217.15-162.06,708.04-116.6,787.89-31.26,45.24,48.36-530.81,280.96-847.85,80.38h-.01Z"/><path class="cls-12" d="M60.03,575.46c-8.83-28.32,23.55-89.89,34.27-102.86,40.34-2.23,125.89,40.62,342.34,172.8,36.19,22.1,4.79,229.34-6.47,225.73-22.85-6.65-268.15,31.58-370.14-295.68h0Z"/><path class="cls-6" d="M132.34,580.01c-14.16-6.7-27.63-5.96-29.13,7.74-.23,2.12-.85,4.18-1.96,6-3.26,5.34-8.58,41.79-.95,73.11,.42,1.73,12.36,29.32,13.33,30.81,15.89,24.57,11.73,20.16,11.73,20.16-5.62,2.23-16.23,8.3-16.81,17.03-2.28,34.14-42.14,49.09-49.87-24.06-6.32-59.88-10.8-110.87-2.9-158.13,8.73-52.16,44.52-67.1,73.29-53.18,75.51,36.53,218.15,113.14,273.79,152.47,31.54,22.29,32.65,23.29,32.62,58.85-.01,14.24-3.55,36.41-2.36,50.6,11.75,140.24-31.55,125.56-32.03,110.44-1.5-47.29-21.72-15.88-19.17,30.09,.73,13.17-6.06,24.64-21.22,25.1-56.14,1.72,12.35-231.97-52.93-263.49-1.06-.51-1.91-1.39-2.98-1.89l-172.44-81.64h-.01Z"/><path class="cls-14" d="M147.97,566.4c21.44,9.97,35.29,17.5,135.71,70.89,2.5,1.33,4.91,2.81,7.2,4.47,10.07,7.25,35.8,27.58,34.87,45.59s-35.79,25.17-70,4.17c-8.22-5.04-17.4-8.27-26.99-9.27-29.96-3.12-46.69-19.05-58-38.31-7.02-11.95-17.67-21.29-30.41-26.76-16.21-6.96-28.85-14.95-37.24-25.44-7.6-9.5-2-47.14,44.86-25.34h0Z"/><path class="cls-4" d="M674.7,711.61c0,19.67-40.52,29.9-71.53,29.9-7.23,0-30.3-1.79-42.54-8.11-14.01-7.23-16.81-19.4-16.81-24.65,0-19.67,43.71-32.76,74.72-32.76s56.16,15.94,56.16,35.61h0Z"/><path class="cls-14" d="M645.79,692.7c-73.7-3.5-31.23-43.15,22.32-31.23,8.72,1.94,24.82,14.52,25.76,30.31,6.71,112.42,16.41,123.78,7.6,158.03-1.94,7.55-8.77,13.01-16.57,12.81-27.96-.72,5.96-74.89-29.6-160.52-1.78-4.29-4.88-9.19-9.52-9.41h.01Z"/><path class="cls-14" d="M652.41,660.97c-7.7-3.45-25.19,3.37-15.52,28.86,11.27,29.7-.76,78.16,12.01,87.25,28.16,20.05,24.19-47.43,3.51-116.11Z"/><path class="cls-14" d="M370.76,489.86c-39.5-32.08-204.32-10.77-178.46,17.75,12.32,13.59,74.69,42.34,93.71,53.23,28.05,16.07,75.44-16.38,87.85-38.17,8.12-14.26,14.24-18.74-3.1-32.82h0Z"/><path class="cls-13" d="M287.64,765.25c0,20.67-20.03,31.43-35.37,31.43s-29.34-13.76-29.34-34.43-5.06-42.39,36.94-34.43c15.07,2.86,27.77,16.76,27.77,37.43Z"/><path class="cls-4" d="M822.63,649.59c0,19.67-20.26,29.9-35.77,29.9s-29.67-13.09-29.67-32.76,21.85-32.76,37.36-32.76,28.08,15.94,28.08,35.61h0Z"/><path class="cls-12" d="M180.15,442.16c-26.81-54.5-24.88-174.35-8.56-211.72,126.77-66.75,562.52-161.16,570.59,8.54,9.52,200.37-82.07,226.65-82.07,226.65,0,0-364.6,142.78-479.95-23.48h-.01Z"/><path class="cls-13" d="M362.27,506.67c-59.93,2.93,19.24-159.04-39.95-214.62-69.24-65.01,265.72-133.83,388.18-111.62,41.89,7.6,66.19,189.62-54.07,243.18-58.43,26.03-27.69,70.02-294.16,83.06h0Z"/><path class="cls-4" d="M700.75,172.76c37.18,72.48-354.84,145.41-361,146.04-50.92-11.81-135.89-48.25-168.15-88.36,46.3-36.14,153.2-70.43,284.27-93.83,131.07-23.4,231.79,10.62,244.89,36.15h-.01Z"/><g><path class="cls-14" d="M268.59,309.64c65.22-20.42-16.26-65.77-38.84-28.69-11.59,19.04-14.66,105.23-6.38,131.04,1.58,4.92,7.13,8.48,13.45,8.35,22.71-.47-4.84-48.79,24.04-104.57,1.45-2.79,4.22-5.03,7.73-6.13h0Z"/><path class="cls-14" d="M266.46,288.97c5.97-2.15,17.66,6.83,12.31,17.14-8.15,15.69,1.19,52.41-9.45,58.5-22.86,13.06-28.21-66.52-2.85-75.64h0Z"/></g><path class="cls-14" d="M752.08,476.09c-39.5-32.08-156.1,32.9-130.24,61.42,12.32,13.59,82.31,51.93,101.33,62.82,44.41-2.54,119.78-37.35,152.88-62.7-15.07-38.85-106.63-47.45-123.97-61.54h0Z"/><path class="cls-12" d="M619.76,486.76c-94.91-188.58,259.67-256.95,264.11-129.91,4.47,128.12-38.57,144.93-38.57,144.93,0,0-171.81,91.75-225.54-15.01h0Z"/><path class="cls-13" d="M767.82,530.94c-18.95,2.93-11.95-161.44-5.72-172.36,26.26-46.07,86.02-54.14,124.75-31.93,13.25,7.6,22.25,109.64-15.78,163.21-18.48,26.03-18.98,28.05-103.24,41.08h-.01Z"/><path class="cls-4" d="M888.07,333.61c0,26.37-56.34,42.41-130.5,58.76-3.05,.67-60.92-8.88-64.01-9.31-55.2-7.59-87.42-27.14-87.42-53.37s94.15-44.93,160.96-44.93,120.97,21.87,120.97,48.85h0Z"/><path class="cls-14" d="M873.02,309.02c-3.05-1.42-6.41-2.13-9.78-1.98-32.57,1.43-117.64,34.76-89.98,63.45,13.16,13.65,46.68-7.6,41.8,12.73-8.63,35.97,33.31,59.03,40.64-4.23,.85-7.34,5.35-13.74,12.01-16.92,18.54-8.85,49.33-32.54,5.31-53.06h0Z"/><path class="cls-10" d="M574.44,267.72c41.74,7.88,133.19-8.94,104.9-147.72-4.72-63.33,41.1-35.03,32.67-9.31,31.34-25.1,45.64,4.1,38.93,15.34-7.45-12.43,67.49-12.75,0,62.53-9.08,52.22-35.04,170.47-120.7,159.63-105.86-13.39-55.81-80.46-55.81-80.46h.01Z"/><path class="cls-10" d="M415.98,334.21c-127.06,33.44-154.86,272.79,38.11,221.62,107.69-28.55,14.11-72.41,14.11-72.41,0,0-87.14,50.35-46.23-51.49,34.08-84.86-5.99-97.72-5.99-97.72h0Z"/><path class="cls-3" d="M339.75,392.37c22.39-10.37,79.37,28.86,82.22,39.56-6.44,18.07-38.09,93.23,46.23,51.49,90.12-44.61,142.27-28.28,142.27-28.28,0,0-17.14-64.91,41.76-107.07-27.04-18.36-32.69-70.2-28.09-83.54-18.01,5.23-42.27,7.07-66.49,0-34.08,35.77-202.44,71.03-217.91,127.85h0Z"/><path class="cls-10" d="M464.33,338.14s45.06,129.81,75.77-12.22l-75.77,12.22h0Z"/><path class="cls-12" d="M699.85,154.71c-.07-1.3-.02-2.59,.12-3.88,.02-.21-.04,.25,.02-.13,.02-.14,.04-.28,.07-.42,.05-.31,.12-.61,.18-.91,.13-.55,.28-1.09,.46-1.63,.08-.24,.17-.49,.26-.73,.05-.12,.09-.24,.14-.35-.17,.42,.03-.05,.07-.16,.22-.47,.46-.94,.72-1.39s.53-.86,.83-1.27c.07-.09,.14-.19,.21-.28-.19,.25-.08,.1,.04-.04,.16-.2,.33-.4,.51-.59,.32-.36,.66-.7,1.02-1.03,.17-.15,.33-.3,.51-.45,.09-.07,.17-.14,.26-.21,.04-.04,.09-.07,.13-.1,.21-.17-.28,.2-.04,.03,.76-.53,1.51-1.04,2.34-1.46,.21-.1,.41-.21,.62-.3,.1-.05,.2-.09,.3-.13,.19-.09-.35,.14,.05-.02,.42-.17,.85-.32,1.28-.46,.86-.27,1.72-.41,2.6-.59,0,0-.37,.04-.02,0l.3-.03c.23-.02,.45-.04,.68-.05,.41-.02,.82-.03,1.24-.02s.83,.04,1.24,.08c.09,0,.2,0,.29,.03-.49-.15-.15-.02,0,0,.2,.03,.4,.07,.59,.11,.39,.08,.77,.18,1.14,.3,.17,.05,.35,.11,.52,.18,.1,.03,.19,.07,.28,.11,.37,.14-.21-.1-.02,0,.33,.17,.67,.32,1,.51,.15,.09,.29,.18,.44,.27l.21,.15s.07,.05,.1,.07c.24,.16-.12-.03-.1-.08-.01,.03,.73,.64,.8,.71,.12,.12,.23,.25,.34,.37,.03,.04,.15,.14,.16,.19,0,0-.23-.32-.12-.16,.03,.05,.08,.1,.11,.15,.2,.3,.39,.6,.55,.92,.04,.08,.07,.15,.11,.23,.15,.3-.09-.24-.02-.06s.14,.36,.2,.55c.11,.37,.18,.74,.26,1.12,.05,.24-.04-.42,0-.05,0,.09,.02,.19,.03,.28,.02,.22,.02,.44,.02,.66,0,.2,0,.4-.02,.6-.01,.17-.11,.91-.03,.39-.08,.46-.16,.91-.27,1.37-.13,.51-.29,1.01-.48,1.5-.05,.12-.09,.24-.14,.37-.03,.08-.06,.15-.09,.23,.01-.03,.14-.32,.03-.08-.12,.27-.24,.54-.38,.81-.59,1.21-1.3,2.36-2.07,3.46-.49,.71-.83,1.15-1.25,1.67-.52,.65-1.06,1.28-1.61,1.9-1.3,1.46-2.69,2.84-4.13,4.16-.82,.75-1.65,1.49-2.49,2.21-.62,.53-.54,1.58,0,2.12,.61,.61,1.5,.53,2.12,0,3.08-2.63,6.04-5.46,8.54-8.66,1.82-2.33,3.44-4.82,4.44-7.61,1.3-3.64,1.14-7.85-1.68-10.74-2.5-2.57-6.36-3.49-9.85-3.29-4.11,.23-8.1,1.87-11.14,4.66-3.6,3.3-5.39,8.04-5.56,12.86-.02,.69-.01,1.37,.02,2.06,.04,.81,.66,1.5,1.5,1.5,.78,0,1.54-.69,1.5-1.5h0v-.03h0Z"/><path class="cls-12" d="M720.8,152.11c1.02,2.48,2.57,4.88,4.53,6.71,1.62,1.51,3.57,2.62,5.79,2.89,2.59,.32,5.13-.63,7.23-2.1,4.25-2.97,7.26-7.52,9.83-11.93l-2.8-.76c-.49,4.52-.88,11.02,2.95,14.37,2.12,1.85,5,2.08,7.64,1.37,.67-.18,1.33-.42,1.95-.72,1.73-.85,.21-3.44-1.51-2.59-.31,.15-.07,.03,.02,0-.28,.1-.55,.21-.83,.3-.39,.12-.8,.22-1.2,.3-.1,.02-.21,.04-.32,.05-.26,.04,.27-.02-.1,0-.25,.02-.5,.04-.75,.04s-.52,0-.78-.04c-.08,0,.21,.04-.09-.02l-.42-.09c-.62-.16-.67-.17-1.3-.59-.22-.15-.83-.77-1.07-1.14-.43-.67-.71-1.37-.92-2.13-.82-2.94-.6-6.14-.28-9.14,.17-1.54-2.09-1.96-2.8-.76-2.18,3.73-4.64,7.55-8.03,10.31-1.72,1.4-3.77,2.42-5.88,2.29-1.41-.08-2.96-.92-4.06-1.92-1.3-1.17-1.99-2.11-2.86-3.55-.32-.52-.61-1.06-.88-1.61-.1-.21-.48-1.1-.19-.38-.72-1.76-3.63-.99-2.89,.8h0l.02,.04h0Z"/><path class="cls-12" d="M473.11,358.81s36.58,.99,62.73-15.23c0,0-24.98,30.22-52.8,32.45,0,0-5.52-3.92-9.93-17.21h0Z"/><path class="cls-14" d="M192.03,538.44c0,11.61-20.29,21.02-36.09,21.02s-28.61-9.41-28.61-21.02,12.81-21.02,28.61-21.02,36.09,9.41,36.09,21.02Z"/><path class="cls-13" d="M189.57,530.36c0,14.63-17.5,13.49-33.01,13.49s-29.67,1.77-29.67-12.85,21.85-35.87,37.36-35.87,25.32,20.61,25.32,35.24h0Z"/><path class="cls-14" d="M817.37,720.46c-1.16,7.58-3.79,14.59-7.57,21.16-4,6.95-9.03,13.05-14.85,18.58-6.13,5.82-12.94,10.78-20.27,15-7.55,4.35-15.53,7.83-23.85,10.41s-16.9,4.26-25.57,4.82-17.14,.04-25.46-1.79c-8.31-1.83-16.21-4.91-23.45-9.37s-14.27-10.81-19.65-17.92c-6.32-8.34-10.94-17.84-14.17-27.77-4.04-12.44-6.01-25.48-6.69-38.52-.19-3.7-.28-7.4-.28-11.11,0-1.93-3-1.93-3,0,.01,14.12,1.27,28.34,4.69,42.07,2.71,10.87,6.82,21.5,12.82,30.99,5.13,8.13,11.6,15.32,19.29,21.1,7.04,5.29,15.05,9.24,23.47,11.8,8.39,2.55,17.19,3.71,25.94,3.72,8.92,0,17.86-1.19,26.51-3.35s17.22-5.38,25.26-9.44,15.22-8.78,21.94-14.42c6.38-5.36,12.13-11.5,16.83-18.39,4.43-6.49,7.9-13.7,9.85-21.33,.46-1.8,.83-3.62,1.11-5.45s-2.6-2.7-2.89-.8h0Z"/><path class="cls-14" d="M268.18,357.57c-.01,.13-.03,.26-.04,.39-.05,.45,.04-.23-.02,.13-.04,.29-.09,.58-.14,.87-.1,.55-.21,1.09-.34,1.63-.27,1.1-.6,2.19-1,3.25-.09,.25-.19,.49-.29,.73-.06,.15-.17,.4-.04,.1-.06,.15-.13,.3-.2,.45-.23,.5-.46,1-.72,1.49-.5,.97-1.07,1.92-1.69,2.82-.15,.22-.3,.43-.46,.64-.07,.1-.15,.2-.22,.3-.08,.11,.15-.17-.1,.13-.32,.39-.65,.78-.99,1.16-.66,.71-1.37,1.38-2.13,1.98,.4-.32-.2,.14-.32,.23-.2,.14-.4,.27-.6,.4-.38,.23-.77,.44-1.16,.64-.1,.05-.21,.1-.31,.14-.22,.1,.36-.14,0,0-.21,.08-.42,.16-.63,.23-.4,.13-.8,.21-1.21,.3-.56,.12,.22,0-.25,.03-.22,.01-.43,.03-.65,.04-.19,0-.39,0-.58-.01-.32-.02-.64-.08-.33-.02-.43-.08-.86-.17-1.27-.31-.15-.05-.8-.32-.33-.11-.21-.09-.41-.19-.62-.29-.44-.23-.85-.5-1.26-.78-.38-.26,.09,.11-.34-.27-.21-.19-.43-.37-.63-.57-.42-.4-.81-.82-1.18-1.27-.09-.11-.18-.22-.27-.34s.1,.14-.14-.18c-.19-.27-.39-.53-.57-.81-4.51-6.69-6.12-15.4-7.32-23.41-2.34-15.71-2.29-31.8-1.76-47.63,.09-2.62,.2-5.24,.33-7.86,.09-1.93-2.91-1.93-3,0-.84,17.41-1.14,35.04,1.01,52.37,1.12,9.02,2.67,18.82,7.36,26.79,2.34,3.97,6.11,7.87,11.08,7.69,4.2-.15,7.42,4.08,9.93,.91,2.95-3.73,5.34-15.3,6.14-19.99,.11-.66,.2-1.32,.27-1.99,.21-1.92-2.8-1.9-3,0h0Z"/><path class="cls-14" d="M270.4,661.44c-.58,8.29-1.72,16.53-3.57,24.63-1.58,6.93-3.75,14.02-6.55,20.38-1.28,2.91-2.72,5.76-4.34,8.5-.75,1.26-1.53,2.5-2.37,3.7s-1.52,2.13-2.35,3.14c-3.21,3.93-6.55,7.01-10.94,9.23-.49,.25-1,.48-1.51,.7,.35-.15-.36,.14-.5,.2-.25,.1-.51,.19-.77,.28-1.02,.35-2.06,.63-3.12,.83-.26,.05-.53,.09-.79,.14-.16,.03-.38,.05-.08,.01-.14,.02-.28,.04-.42,.05-.55,.06-1.1,.1-1.66,.12-1.09,.04-2.17-.02-3.25-.14-.4-.04,.05,.02-.48-.07-.29-.05-.59-.1-.88-.15-.56-.11-1.11-.24-1.66-.39-1.06-.29-2.44-.77-3.23-1.1-2.12-.89-4.65-2.38-6.7-3.88-2.22-1.62-4.69-3.88-6.77-6.09-2.48-2.63-4.72-5.44-6.8-8.38-5.41-7.66-9.79-16.04-13.61-24.59-5.14-11.49-9.26-23.42-12.86-35.46-4.63-15.5-8.36-31.26-11.56-47.12-.9-4.48-1.76-8.98-2.58-13.48-.35-1.9-3.24-1.09-2.89,.8,3.13,17.15,6.8,34.22,11.41,51.04,3.59,13.1,7.73,26.08,12.88,38.66,3.88,9.48,8.3,18.81,13.82,27.46,3.99,6.26,8.59,12.3,14.23,17.17,4.14,3.57,8.92,6.6,14.27,7.95,4.51,1.14,9.3,.98,13.7-.56,4.7-1.65,8.81-4.62,12.27-8.18,4.12-4.24,7.39-9.27,10.07-14.52,3.24-6.36,5.68-13.12,7.56-20,2.18-7.98,3.59-16.16,4.47-24.39,.23-2.17,.42-4.34,.57-6.52,.14-1.93-2.86-1.92-3,0h0v.03h-.01Z"/><path class="cls-14" d="M160.86,796.68c-.45-12.51-.94-25.01-1.36-37.52-.33-9.9-.62-19.81-.74-29.72-.11-9.38-.06-18.76,.16-28.13,.26-11.06,.75-22.1,1.34-33.15,.79-14.8,1.77-29.6,2.8-44.39,.15-2.2,.31-4.4,.46-6.59,.14-1.93-2.86-1.92-3,0-1.09,15.4-2.13,30.81-3,46.22-.64,11.39-1.18,22.79-1.51,34.19-.27,9.46-.37,18.93-.29,28.4s.33,19.46,.64,29.19c.39,12.07,.86,24.14,1.3,36.21,.06,1.76,.13,3.52,.19,5.29,.07,1.92,3.07,1.93,3,0h0Z"/><path class="cls-14" d="M830.28,376.42c2.46,8.3,6.33,16.92,13.34,22.36,5.12,3.98,11.54,5.49,17.89,4.1s12.29-5.61,16.64-10.57c5.25-5.98,8.88-13.33,10.81-21.03,2.57-10.25,2.13-21.07-.91-31.16-.55-1.84-3.45-1.06-2.89,.8,4.74,15.75,2.75,33.62-7.26,46.98-6.94,9.26-19.45,16.61-30.52,9.86-7.71-4.7-11.74-13.84-14.21-22.14-.55-1.85-3.44-1.06-2.89,.8h0Z"/><path class="cls-7" d="M104.19,255.34c-11.69,4.95,78.94,38.32,33.34,94.63-.97,1.2-2.46,1.87-4.01,1.76-45.56-3.01-79.1-67.61-82.65-48.71-.04,.23-.07,.45-.08,.68-1.2,28.47,29.59,38.05,25.98,47.95-3.59,9.84-48.06-26.08-52.8-32.14-.09-.1-.17-.22-.26-.32-12.66-14.11-22.75,39.89,73.01,86.07,2.6,1.25,3.56,4.5,2,6.93-10.62,16.51-65.94,15.48-91.37-4.76-17.55-13.97-4.44,37.44,47.71,56.14,16.27,5.83,40.47,11.01,63.88-1.6,81.6-43.94,87.02-1.94,96.94-2.04,9.91-.09,22.57-30.78-9.17-64.11-1.17-1.23-1.64-2.98-1.17-4.62,14.1-49.94-50.33-138.87-99.89-136.19-.5,.03-.99,.12-1.46,.32h0Z"/><path class="cls-9" d="M776.64,445.65l-37.83,10.84c-8.8,2.52-5.5,9.24,4.62,9.43l26.59,.5c5.18,.1,9.37,2.15,9.68,4.74l1.44,11.97c.32,2.67,4.73,4.74,10.06,4.74h171.88c5.56,0,10.08-2.26,10.08-5.05v-104.4c0-2.79-4.51-5.05-10.08-5.05h-171.29c-5.56,0-10.08,2.26-10.08,5.05v62.84c0,1.81-1.94,3.48-5.07,4.38h0Z"/><path class="cls-14" d="M841.2,411.73v-6.67h8.49v6.67h-8.49Zm0,40.57v-35.44h8.49v35.44h-8.49Z"/><path class="cls-14" d="M903.95,452.86c-3.8-.2-6.52-1.22-8.15-3.07-1.62-1.85-2.5-4.77-2.66-8.77-.02-.63-.03-1.32-.03-2.07s.02-1.52,.06-2.27c.04-.77,.11-1.47,.21-2.1h8.33c-.08,1.44-.13,2.86-.15,4.25s.03,2.68,.15,3.84c.08,.73,.3,1.34,.65,1.83,.37,.47,.91,.81,1.59,1.01v7.35h0Zm2.95,0v-7.35c.63-.22,1.11-.56,1.45-1.03s.54-1.07,.62-1.8c.08-.67,.13-1.33,.15-1.98,.04-.67,.04-1.33,0-1.98-.02-.67-.07-1.34-.15-2.01-.08-.83-.33-1.57-.77-2.25-.43-.67-1.12-1.12-2.07-1.36l-4.84-1.24c-2.05-.53-3.67-1.29-4.87-2.27-1.2-1.01-2.08-2.25-2.63-3.72-.53-1.48-.83-3.2-.89-5.17-.02-.87-.03-1.63-.03-2.3s0-1.4,.03-2.13c.16-4,1.06-6.91,2.72-8.74s4.43-2.84,8.33-3.04v7.35c-.67,.2-1.18,.53-1.54,1.01-.33,.45-.55,1.04-.65,1.77-.12,1.01-.18,2.02-.18,3.04s.06,2.04,.18,3.04c.1,.79,.37,1.5,.83,2.16,.45,.65,1.18,1.09,2.18,1.33l4.19,1.01c2.2,.53,3.94,1.32,5.2,2.36,1.28,1.02,2.2,2.3,2.74,3.84,.57,1.52,.89,3.29,.97,5.32,.02,.45,.03,.93,.03,1.42s0,.98-.03,1.48c-.02,.49-.04,.96-.06,1.42-.16,4-1.06,6.92-2.72,8.77s-4.39,2.87-8.21,3.07h0l.02-.02h0Zm2.13-30.08c.06-1.36,.1-2.72,.12-4.08s0-2.72-.06-4.08c-.02-.71-.23-1.29-.62-1.74-.37-.47-.89-.81-1.57-1.01v-7.38c3.66,.2,6.33,1.22,8,3.07,1.67,1.83,2.59,4.73,2.74,8.71,.04,.84,.04,1.88,0,3.1-.02,1.22-.06,2.35-.12,3.4h-8.49Z"/><path class="cls-2" d="M882.17,425.36v-7.15c0-1.64-1.51-2.87-3.12-2.53l-6.97,1.48c-.36,.08-.74,.07-1.1,0l-6.33-1.42c-1.62-.36-3.15,.87-3.15,2.52v3.65c.07,9.4,1.45,27.89,6.36,26.65,4.28-1.08,8.06-.67,9.96-.21,.47,.12,.96,.08,1.18-.35,1.28-2.51,3.17-12.87,3.17-19.69"/><path class="cls-11" d="M872.69,404.01c.33-2.16,2.19-3.75,4.38-3.75h3.63l-1.5,5.89c-.5,1.97-2.27,3.34-4.29,3.34h-3.07l.85-5.48h0Z"/><rect class="cls-14" x="841.2" y="414.65" width="8.49" height="7.01"/><path class="cls-6" d="M133.02,780.72c0,9.83-10.13,14.95-17.88,14.95s-14.84-6.54-14.84-16.38,10.93-16.38,18.68-16.38,14.04,7.97,14.04,17.81Z"/><path class="cls-1" d="M473.11,358.82s35.25,81.8,62.73-15.24"/><path class="cls-5" d="M339.95,634.7c4.06,1.87,8.03,3.96,11.96,6.08,9.03,4.88,17.84,10.2,26.24,16.1,9.39,6.59,18.48,13.96,25.85,22.81,3.54,4.25,6.67,8.9,8.61,14.1,2.28,6.13,3.27,12.68,3.68,19.19,.87,13.99-.78,27.99-2.12,41.89-.15,1.58-.3,3.15-.44,4.73-.17,1.92,2.83,1.91,3,0,1.23-13.98,3.08-27.96,2.75-42.02-.16-6.76-.8-13.6-2.57-20.15-1.57-5.8-4.17-11.08-7.71-15.93-6.9-9.43-15.89-17.17-25.23-24.1-8.73-6.47-17.97-12.24-27.46-17.52-4.85-2.7-9.77-5.36-14.82-7.66-.08-.04-.15-.07-.23-.11-1.74-.8-3.27,1.78-1.51,2.59h0Z"/><path class="cls-1" d="M442.23,346.66s-20.26,85.27,62.25,44.39"/><path class="cls-1" d="M510.57,390.58s81.03,22.3,43.2-71.77"/><path class="cls-10" d="M533.87,176.24c16.52-41.8,76.6-36.26,48.41,64.53l-48.41-64.53Z"/><path class="cls-10" d="M533.62,142.28c195.06,199.26-127.94,287.35-184.58,151.02-88.23,3.32-39.86-109.55,0-60.83-18.88-142.63,180.38-161.5,184.58-90.19h0Z"/><path class="cls-12" d="M349.04,232.47s-30.58-36.23-49.29,19.58c-53.53-14.66-46.94-208.5,106.46-215.87,16.52-64.67,97.81-28.32,64.67-.94,124.67-9.91,109.98,150.1,29.18,93.74,17.81,19.59-30.67,81-94.66,31.22-11.64,80.57-56.36,72.27-56.36,72.27"/><path class="cls-12" d="M428.31,199.6c-2.7,.66-5.39-1.58-4.96-4.33,.11-.73,.43-1.42,1-1.94,0,0,6.14-6.34,26.01-10.25,3.47-.02,4.67,4.46,4.04,7.06-.08,.35-.3,.64-.61,.81-6.31,3.38-15.67,6.24-25.47,8.65h-.01Z"/><path class="cls-12" d="M510.3,166.19c-3.48,1.05-6.9-2.31-5.61-5.71,.39-1.02,1.09-1.79,2.21-2.01,0,0,5.52-4.23,23.91-3.46,1.48,.06,2.91,.65,3.94,1.72l.09,.09c2.76,2.92,.52,7.73-3.49,7.64-5.62-.13-13.05-.68-21.04,1.73h-.01Z"/><path class="cls-12" d="M495.59,221.38c8.52,2.36,15.44,9.51,19.69,17.01,3.85,6.78,6.57,16.18,1.91,23.26-2.93,4.44-8.17,6.49-13.18,7.46-1.89,.37-1.09,3.26,.8,2.89,5.11-1,10.33-3.1,13.74-7.2,2.86-3.44,4.15-7.79,4.07-12.23-.18-9.73-5.75-19.23-12.6-25.84-3.84-3.7-8.45-6.81-13.63-8.24-1.86-.52-2.66,2.38-.8,2.89h0Z"/><ellipse class="cls-12" cx="444.8" cy="229.27" rx="5.88" ry="4.65" transform="translate(-53.63 184.8) rotate(-22.17)"/><ellipse class="cls-12" cx="532.76" cy="208.61" rx="4.98" ry="3.95" transform="translate(-39.33 216.46) rotate(-22.17)"/><path class="cls-12" d="M428.33,277.86c.66,1.55,1.6,3.02,2.54,4.41,2.5,3.7,5.52,7.06,8.88,9.99,5.06,4.41,10.84,7.85,17.04,10.41,8.36,3.46,17.37,5.16,26.38,5.66,12.71,.71,25.5-.98,37.86-3.85,1.85-.43,3.68-.89,5.52-1.37s1.07-3.39-.8-2.89c-12.58,3.31-25.55,5.48-38.59,5.26-9.14-.15-18.28-1.52-26.89-4.65-6.12-2.23-12.12-5.53-17.05-9.56-1.98-1.61-3.84-3.36-5.57-5.24-.73-.79-1.43-1.61-2.11-2.44-.14-.18-.28-.36-.43-.54-.18-.23,.01,.02-.04-.05-.09-.11-.18-.23-.26-.34-.26-.34-.51-.69-.76-1.04-1.18-1.66-2.03-3.47-3.1-5.19-.01-.02-.02-.05-.03-.08-.76-1.77-3.34-.24-2.59,1.51h0Z"/><path class="cls-12" d="M548.48,158.5c3.89,4.25,7.59,8.67,11.21,13.15,7.07,8.74,13.87,17.83,19.45,27.6,2.73,4.78,5.28,9.81,6.55,15.2,.44,1.88,3.34,1.08,2.89-.8-1.14-4.83-3.3-9.41-5.65-13.75-2.75-5.09-5.91-9.95-9.23-14.68-5.88-8.38-12.28-16.4-18.97-24.15-1.36-1.58-2.74-3.16-4.14-4.7-1.31-1.43-3.42,.7-2.12,2.12h0Z"/><path class="cls-12" d="M558.36,116.09c4.65-9.48,6.98-20.02,6.18-30.58-.73-9.74-3.95-19.22-9.23-27.43-11.05-17.17-30.27-27.9-50.66-28.47-13.6-.38-26.91,3.7-38.68,10.37-1.68,.95-.17,3.54,1.51,2.59,10.15-5.75,21.47-9.54,33.19-9.94,9.97-.35,19.97,1.74,28.89,6.22,16.75,8.43,29.06,24.8,31.63,43.48,1.52,11.03-.55,22.28-5.44,32.25-.85,1.73,1.74,3.25,2.59,1.51h.02Z"/><circle class="cls-12" cx="508.14" cy="409.32" r="5.93"/><circle class="cls-12" cx="508.14" cy="438.93" r="5.93"/><path class="cls-8" d="M448.25,557.3c3.49-.81,6.08-3.73,6.47-7.29,4.98-45.08,13.85-98.1,22.02-101.42,7.23-7.37,157.68-27.88,219.25-26.03,9.2,.28,15.93,8.76,14.08,17.78-7.22,35.25-22.37,94.73-33.65,126.38-3.35,9.38-11.27,16.4-21.02,18.45-48.54,10.25-185.2,20.24-206.37,17.77-.86-.1-1.72-.04-2.58,.12-10.67,2-65.83-29.03-67.09-42.63,24.18,5.98,55.96-.13,68.89-3.14h0Z"/><path class="cls-9" d="M586.74,492.03c-1.53,1.73-3.84,1.25-5.59-.05-5.55-4.12-17.68,2.87-20,14.08-3.88,13.08,5.13,34.17,11.75,33.49,9.05,.8,7.26-6.49,18.92-1.91h0c8.15,.4,16.98-15.79,14.22-20.29-9.23-.68-6.73-15.63,2.94-17.79-.38-12.71-17.57-12.84-22.26-7.53h.02Z"/><path class="cls-9" d="M584.66,485.04c1.91-.62,4.43-2.05,5.97-5.32,2.19-4.62,.55-6.05-3.9-3.4-2.92,1.74-3.39,5.67-3.43,7.74-.01,.66,.73,1.19,1.35,.99h.01Z"/><path class="cls-12" d="M454.72,550.01s-3.93,26.09-3.48,29.99c.63,5.48-30.4-11.03-33.87-17.71,16.06-1.94,37.35-4.27,37.35-12.29h0Z"/></svg>