<?xml version="1.0" encoding="utf-8"?>
<!-- Generator: Adobe Illustrator 26.3.1, SVG Export Plug-In . SVG Version: 6.00 Build 0)  -->
<svg version="1.1" id="_層_2" xmlns="http://www.w3.org/2000/svg" xmlns:xlink="http://www.w3.org/1999/xlink" x="0px" y="0px"
	 viewBox="0 0 1118.8 693.3" style="enable-background:new 0 0 1118.8 693.3;" xml:space="preserve">
<style type="text/css">
	.st0{fill:#E5C1A3;}
	.st1{fill:#3D3D59;}
	.st2{fill:#749EB5;}
	.st3{fill:#7070A0;}
	.st4{fill:#E5B5A3;}
	.st5{fill:#874866;}
	.st6{fill:#E2A098;}
	.st7{fill:#AEB9D3;}
	.st8{fill:#C3CBE5;}
	.st9{fill:#BFD2DB;}
	.st10{fill:#C66782;}
	.st11{fill:none;stroke:#3D3D59;stroke-width:9;}
	.st12{fill:#FFFFFF;}
</style>
<g>
	<ellipse class="st0" cx="304.8" cy="58.2" rx="46" ry="46"/>
	<path class="st1" d="M313.4,41c-1.7-3.3-4.7-5.5-8.3-5.9c-3.3-0.4-6.7,0.7-9.5,2.5s-5.2,4.5-6.1,7.8c-1,3.5,0,6.9,2.4,9.6
		c3,3.5,7.3,4.5,11.8,4.1c3.7-0.3,8.1-1.7,11.5,0.3c2.7,1.6,4.9,5.4,4.4,8.5c-0.4,2.6-2.5,4.6-4.7,5.9c-4.3,2.5-13.7,4.2-15.8-1.7
		c-0.6-1.8-3.5-1-2.9,0.8c2.2,6.2,9.7,6.9,15.3,5.5c5.5-1.4,11.9-6,11.1-12.6c-0.5-3.9-3.3-7.9-6.9-9.5c-3.9-1.7-8-0.6-12-0.3
		s-8.1-0.5-10.5-4.3c-1.6-2.7-1.2-5.7,0.5-8.2c1.9-2.8,5.3-4.9,8.7-5.4c3.7-0.5,6.8,1.1,8.5,4.4C311.7,44.2,314.3,42.7,313.4,41
		L313.4,41L313.4,41L313.4,41z"/>
	<path class="st1" d="M289,34.8l7.4,15.8l11.8,25.1l2.7,5.8c0.8,1.8,3.4,0.2,2.6-1.5L306,64.2l-11.8-25.1l-2.7-5.8
		C290.7,31.6,288.2,33.1,289,34.8L289,34.8z"/>
	<path class="st1" d="M295.9,32.1l7.4,15.8L315,73l2.7,5.8c0.8,1.8,3.4,0.2,2.6-1.5L313,61.4l-11.8-25.1l-2.7-5.8
		C297.7,28.8,295.1,30.3,295.9,32.1L295.9,32.1z"/>
</g>
<path class="st2" d="M451.8,462.5c-15-38.4,13.1-263.1,86.2-240.8c82.4,25.2,157.5,53.4,102.8,194.6c27,100.2,21.3,153.3,19.7,188.5
	c-71.4-4.3-212.9-2.3-212.9-2.3L451.8,462.5L451.8,462.5L451.8,462.5z"/>
<path class="st3" d="M208.8,590.6c-53.5-11.2-106.2-215.3,31.6-158.6C378.3,488.7,266.2,602.6,208.8,590.6L208.8,590.6z"/>
<path class="st4" d="M519.8,296.4c0,0,19.3,63.5,31.6,63.5c12.2,0,44.6-50.8,38.9-63.5C584.6,283.7,519.8,296.4,519.8,296.4z"/>
<path class="st4" d="M628.6,289.8c42.6-37,146.5,206.4,0,213.7c-78.6,3.9-50.1-71.9-21.8-138.2C621.2,331.7,614.6,302,628.6,289.8
	L628.6,289.8L628.6,289.8z"/>
<path class="st5" d="M561.9,338c0-22.2,134.8-8.4,133.5,9.6s-13.7,143.2-33,150.9C641.3,507,551,512.4,546,492.2
	C541.1,471.9,561.9,338,561.9,338L561.9,338L561.9,338z"/>
<path class="st4" d="M464.5,299.8c-8.5-31.6-187.2,224.4,48.2,216.5C647,489,633.8,317.9,620.9,330c-7.4-16.9-19.8-9.7-20.8-5.6
	c-4.5-8.8-20.5-11.6-21.9,0s-5.8,42-14.1,27.1s-21.7-7.8-14.8,8.3c20.2,46.4-102.1,102.7-58.3,4
	C519.4,300.1,464.5,299.8,464.5,299.8L464.5,299.8L464.5,299.8z"/>
<path class="st1" d="M12.5,628.9c5.7-0.1,11.5-1.1,17.1-1.6c15.6-1.4,31.2-2.8,46.9-4c56.2-4.5,112.4-8.1,168.6-11
	c81-4.2,162.1-6.8,243.2-7.8c96.2-1.2,192.4-0.1,288.6,4c100.9,4.3,201.7,11.8,301.9,24.3c12.7,1.6,25.4,3.3,38.1,5
	c1.9,0.3,2.7-2.6,0.8-2.9c-99.8-13.8-200.4-22.4-301-27.6c-97.3-5-194.8-6.8-292.2-6.2c-83.9,0.5-167.7,2.9-251.5,6.8
	c-60.2,2.8-120.3,6.5-180.4,11.1c-18.1,1.4-36.2,2.9-54.3,4.5c-8.1,0.7-16.6,0.9-24.7,2.3c-0.4,0.1-0.8,0.1-1.2,0.1
	C10.6,625.9,10.6,628.9,12.5,628.9L12.5,628.9L12.5,628.9L12.5,628.9z"/>
<path class="st4" d="M200.5,395.1c-16.2,19.2,4.8,87.9,64.4,61.3S200.5,395.1,200.5,395.1L200.5,395.1z"/>
<path class="st4" d="M529.2,48.5c-38.4,18.4-279,255.8,18.4,255C809.8,292.5,619.1-10.2,529.2,48.5L529.2,48.5z"/>
<path class="st1" d="M828.1,434.5c-22.4-12.9-50.9,25.1-73.7,31.4c-9.8,29.8,3.7,45,23.1,33.4C828.1,469,828.1,434.5,828.1,434.5
	L828.1,434.5L828.1,434.5z"/>
<polygon class="st1" points="775.1,526.8 924.9,556.1 924.9,435.4 837.2,418.2 "/>
<path class="st5" d="M835.7,431.9c-7.2-24.7-91.3,96.8-68.8,142.8s177.8,65.4,187,37.8c9.2-27.6,56.2-133.8-17.4-162.4
	c-28.9-3.1-54.5,60.1-63.2,86.6c-18.1,11.6-83.8-12.7-83.7-16C790.5,489.6,835.7,431.8,835.7,431.9L835.7,431.9L835.7,431.9z"/>
<path class="st4" d="M821.7,209.8c-60.2,23-51.8,115.9-70.5,119.7c-36.9,5.4-63.8,89.8,77.6,124.3c187.7,14.1,168.8-81.9,163.6-84.7
	c26.4,0,16.4-131.9-41.8-77.4C900.9,314.2,941.1,164.2,821.7,209.8L821.7,209.8L821.7,209.8z"/>
<path class="st3" d="M837,232.8c33.1-8.4,38.8,31.1,64.2,79.1c15.7,36.8,61.3,19.9,61.2,69.3c0.4,22.5-25.9,71.9-25.9,71.9
	s201.2,15.6,90.5-214.2c0-91.3-222.4-129.6-210.5-49.9c-32-33.9-110.6,93.2-54.7,125.4C767.7,296.1,777.1,209.4,837,232.8L837,232.8
	L837,232.8z"/>
<path class="st4" d="M703.9,483.6c-26.7,6.6-46.8-47.8-36.8-83.6s-24.1-34.9-28.9-7.1c-2.5,14.6-11.9-5.4-18.1-14.5
	c-8.9-12.9-32.7,1.4-27.7,14.5c-18.1,4.5-14.9,24-11,25c-19.2,3,3.4,165.2,164.1,147.5C780.5,526.6,703.9,483.6,703.9,483.6
	L703.9,483.6L703.9,483.6z"/>
<path class="st2" d="M745.5,565.4c11.3,6,53.5,19.3,64.1,9.3s-22.2-88.8-37.3-105.1c-9.2-9.9-74.4-22.5-74.4,0
	C697.9,487.6,735.3,560,745.5,565.4L745.5,565.4L745.5,565.4z"/>
<path class="st1" d="M745.6,485.1c-0.7-3.1,0.3-4.1,3.4-4.7c4.8-1,11.5,1.1,14.1,3.2c5.7,4.8,8.7,19.5,5.9,21.3
	c-3,1.9-11.2,0.5-14.2-1.8S746.6,489.7,745.6,485.1z"/>
<path class="st4" d="M906.7,515.7c-13.4,38.9,6,132.5-77,68.3c-5.8-5.8-8.6-13.9-7.8-22.1c4.2-40.4-22.9-40.1-27.8-14.6
	c-2.5,13.1-24.2,7.2-30.1-4.7c-12.2-24.5-42-8.5-25.3,14.7c-17.2-2.8-11.1,34.1,0,35.2c-12.8,7.3-1,43.7,46.7,48.2
	c21.3,71,234.2,103.5,195.5-126C945.5,444.1,906.7,515.7,906.7,515.7L906.7,515.7L906.7,515.7z"/>
<path class="st1" d="M944,465.9c-50.3,9.1-56.8,73.8-50.7,88.7c30.8-31.6,82.8-39.4,93.6-20C1001.9,510.2,963.4,462.4,944,465.9
	L944,465.9L944,465.9z"/>
<path class="st1" d="M461.3,24.5c-55.5-20.7-157.9,329.6,9.2,316.4c0.3,0,0.6-0.1,0.9-0.1c24.6-5.2,43.3-29.5,37.6-45
	c-1-2.8-4.1-4.4-7-3.6c-26.8,6.9-60.9-8.1-65.5-56.8c-0.2-1.8-1.1-3.4-2.6-4.4c-31.6-21.8-27.1-69.8,9.8-54.6
	c29.8,12.3,42.5-13.2,46.6-24.5c1-2.8,3.9-4.4,6.8-3.9c18.7,3.6,81.9,9.3,94.5-73.1c0.6-3.9,4.7-6.2,8.3-4.5
	c30.7,13.9,105.8,173.2,7.3,222.9c-3.4,1.7-4.4,6.2-1.9,9.1c16.6,19.4,111.4,33.5,95.3-118.1c0-0.2,0-0.4,0-0.6
	C700.3,4.4,536.2-31.2,467,23.5C465.4,24.8,463.3,25.2,461.3,24.5L461.3,24.5L461.3,24.5z"/>
<path class="st4" d="M81.5,286c-7.3-30.1-58.7,74,14.2,87.8c-25.3,78.9,130.6,63.9,144.8,58.2c14.2-5.7,219.9-36.9,37.4-223.6
	C136,63.3,121.3,248.7,81.5,286L81.5,286L81.5,286z"/>
<circle class="st6" cx="311.4" cy="350.3" r="30.6"/>
<path class="st5" d="M56.8,327.1c-28.6-3.8-48.1-54.7-20.8-69.5c-19-50.8,51.3-111.4,81.8-98.1c0-55.2,111.8-62.3,91.4-20.9
	c53.8-27.5,133.3,21.4,114.3,68.2c-17.2,42.2-57.1,48-93.3,25.1c8.2,32.4-43.8,28.6-68.6-1.9c4.8,42.4-29.2,45.1-49.5,18.9
	c24.8,40.1,4.2,92.3-12.2,77.6C62.1,292.7,56.8,327.1,56.8,327.1L56.8,327.1L56.8,327.1z"/>
<path class="st1" d="M549.5,355.3c-0.7-3-1.3-8.2,1.8-9.9s7.6,2,9.9,4.3c1.2,1.3,2.4,2.7,3.4,4.1c0.8,1.1,1.4,2.4,2.3,3.4
	c0.8,0.9,1.9,1.4,3,1.1c2.4-0.6,3.6-3.8,4.4-5.9c2.4-6.2,3.7-13,4.9-19.6c0.6-3.1,1.4-6.2,2.7-8.9c0.6-1.2,1.4-2.6,2.2-3.5
	s1.8-1.8,2.8-2.2c1.3-0.5,2.4-0.5,3.8,0c2,0.7,3.7,2.2,5.2,3.6c1.1,1.1,2.1,2.3,3.1,3.5c0.7,0.9,2.2,0.3,2.5-0.7
	c0.5-2,1.5-3.8,3.6-4.3c2-0.4,4.1,0.3,5.9,1.1c2.1,1,4,2.4,5.7,4.1c0.7,0.7,1.3,1.5,1.9,2.3c0.2,0.3,0.4,0.8,0.5,1s0.2,0.4,0.2,0.6
	c0,0.1,0.1,0.6,0.1,0.4c0.1,1.4,2,2.2,2.8,0.8c0.2-0.4,0-0.1,0.1-0.2c0.2-0.3-0.2,0,0,0c-0.4,0.1,0,0.1-0.3,0.1
	c-0.1,0-0.2-0.1-0.2-0.1l0.1,0.1c0.2,0.2-0.3-0.2,0,0c0.1,0.1,0.2,0.2,0.3,0.3c0.2,0.2,0.3,0.4,0.6,0.9c1.4,2.4,2.2,5.1,2.9,7.8
	c2.3,8.8,3.1,18.1,2.5,27.2c-0.4,6.1-1.4,12.1-3.3,17.8c-0.6,1.8,2.3,2.6,2.9,0.8c3.5-11,4.2-22.8,3-34.2c-0.5-4.5-1.3-9.1-2.5-13.5
	c-0.8-2.8-1.7-5.8-3.5-8.2c-1.4-1.9-3.9-2.8-5.2-0.4l2.8,0.8c-0.4-4-4-7.2-7.1-9.4c-3.4-2.3-8.2-4.4-12.2-2.5
	c-2.4,1.1-3.8,3.4-4.4,5.9l2.5-0.7c-2.9-3.7-6.8-8-11.8-8.4c-3.3-0.3-6,1.6-8,4.1c-2.4,3.1-4.2,7.2-4.8,11.1
	c-1.1,6.2-2.3,12.4-4.1,18.4c-0.5,1.5-1,3.1-1.7,4.5c-0.3,0.6-0.6,1.1-0.9,1.7c-0.1,0.1-0.1,0.2-0.2,0.3c0.2-0.2,0,0-0.1,0.1
	s-0.2,0.1-0.2,0.2c-0.2,0.2,0.1-0.1,0,0s-0.2,0.1-0.2,0.1c-0.1,0.1,0.3,0,0,0c0.1,0,0.3,0.1,0.2,0c0.2,0.1-0.1-0.1,0,0
	c-0.1-0.1-0.2-0.1-0.2-0.2c-0.2-0.3,0,0.1-0.1-0.1c-2-2.9-3.9-5.8-6.5-8.3c-2.9-2.8-7.5-6-11.8-4.4c-4,1.4-5.1,6-4.8,9.7
	c0.1,1.3,0.3,2.7,0.6,4C547.1,357.9,550,357.2,549.5,355.3L549.5,355.3z"/>
<path class="st7" d="M276.4,604c-21.8-38.9-38.1-173.9-7.1-207.5c35.6-38.5,193.4-72.7,255.2-57.8c68.5,16.4,40.6,218.9,16.3,239.8
	C510.8,604.1,297.6,641.7,276.4,604L276.4,604L276.4,604z"/>
<path class="st8" d="M384.9,499.1c0-53.7,66.5-40.7,72.2-27.2s47.8,169.8,44,189.2s-81.8,28.7-91.3,23.7s-72.5-16-72.9-35
	c-0.3-13.8,45.3-20.9,66.9-26.2C404,619.4,384.9,499.1,384.9,499.1L384.9,499.1L384.9,499.1z"/>
<path class="st4" d="M144.7,444.1c-101,82.8-60.2,224.1,82.9,222.8c108.5,12.2,145.9-66.1,121.1-56.5c13.6-25.7-5.7-48.1-28.8-25.7
	c15.7-18.8-6-39.9-19.6-22.5c-5.4,7-14.2,22.5-33.2,22.5c36.3-44.2-3.3-43-25.7-22.5c-11.1,10.2-82.6,4.6-55.8-57
	C210.6,447.6,144.7,444.1,144.7,444.1z"/>
<path class="st3" d="M148.6,431.9C97.8,425.3,77,541.8,87,535.5c26.8-16.9,102.4,0,102.4,0C215.6,544.4,231.5,428.6,148.6,431.9
	L148.6,431.9z"/>
<path class="st3" d="M968.5,431.9c9.9-6.6,47.8-4.5,47.9,33.1c0.1,11.6-1.4,17,14.1,18.1c18.2,1.2,27.2,1.5,35.7,5.9
	c58,29.9,3.4,93.1-32.4,113.6c-20.8,11.9,10.1,17.8,15.8,30.5c5.7,12.7-87.9,15-87-13.1c0.7-25,21.9-14.8,18-41.6
	c-9.2-63.5-44.3-21.2-62.4-68.2C896.5,454.1,945,447.5,968.5,431.9L968.5,431.9L968.5,431.9z"/>
<path class="st1" d="M408,397.3c-1.2,1.7-3.3,1.5-5,0.5c-5.3-3.1-15.4,4.2-16.4,14.3c-2.2,11.9,7.7,29.8,13.5,28.5
	c8.1-0.1,5.8-6.4,16.6-3.5l0,0c7.2-0.4,13.5-15.5,10.7-19.3c-8.2,0.3-7.4-13.2,1-16C426.9,390.7,411.6,392.2,408,397.3L408,397.3
	L408,397.3L408,397.3z"/>
<path class="st1" d="M406.7,391.7c1.6-0.7,3.7-2.2,4.8-5.3c1.5-4.3-0.1-5.4-3.8-2.6c-2.4,1.8-2.5,5.3-2.3,7.2
	C405.5,391.6,406.2,392,406.7,391.7L406.7,391.7L406.7,391.7z"/>
<circle class="st7" cx="425.9" cy="503.1" r="18.2"/>
<g>
	<path class="st9" d="M731.2,18.2h148.2c6.6,0,12,5.4,12,12v74.9c0,6.6-5.4,12-12,12H731.2c-6.6,0-12-5.4-12-12V30.2
		C719.2,23.6,724.5,18.2,731.2,18.2z"/>
	<ellipse class="st1" cx="838.5" cy="65.1" rx="5.6" ry="6.8"/>
	<ellipse class="st1" cx="803.7" cy="65.1" rx="5.6" ry="6.8"/>
	<ellipse class="st1" cx="767.1" cy="65.1" rx="5.6" ry="6.8"/>
	<path class="st9" d="M787.6,99.8c2.8,8,2.4,30.4,2,42.9c-0.1,3.6-3.6,5.3-5.8,2.9c-9.2-10.1-26.4-30.6-22.3-39.1
		c4.5-9.3,18.2-9.6,23.1-9.3C785.9,97.3,787.1,98.3,787.6,99.8L787.6,99.8z"/>
</g>
<ellipse class="st1" cx="794.5" cy="321.9" rx="4.6" ry="6.3"/>
<ellipse class="st1" cx="841.5" cy="328.6" rx="4.7" ry="6.8"/>
<g>
	<g>
		<path class="st5" d="M819.1,420.2c-13.8,4-44.3-22.5-20.3-58.7c11.1-16.6,28.3-12.5,35.7-2.5C843,370.6,848.2,411.9,819.1,420.2
			L819.1,420.2z"/>
		<path class="st1" d="M818.8,418.8c-3.7,1-7.9-0.4-11.4-2.4c-4.7-2.7-8.6-6.8-11.4-11.5c-3.3-5.7-4.8-12.3-4.5-18.9
			c0.5-8.7,4.1-17.1,9-24.2c4.2-6,10.6-10.4,18.2-10c5.8,0.3,11.5,3.6,14.8,8.3c2.5,3.5,3.8,7.8,4.7,12c1.2,5.4,1.7,11,1.4,16.6
			c-0.7,11.5-5.4,23.2-16.4,28.4C821.8,417.8,820.3,418.3,818.8,418.8c-1.9,0.5-1.1,3.4,0.8,2.9c6.5-1.9,12.1-5.7,16.1-11.1
			c3.7-5.1,5.7-11.2,6.5-17.4c0.9-6.2,0.7-12.4-0.4-18.5c-0.8-4.9-2.2-10-4.7-14.4c-3-5.3-8.3-9.2-14.2-10.8
			c-7.4-1.9-14.9,0.4-20.5,5.5c-3.7,3.4-6.4,7.8-8.6,12.2c-2.1,4.1-3.7,8.4-4.6,12.9c-1.5,7.4-0.9,15,2,22c2.5,5.9,6.4,11,11.5,14.9
			c3.9,2.9,8.8,5.3,13.8,5.2c1,0,2.1-0.2,3-0.4C821.4,421.1,820.6,418.2,818.8,418.8L818.8,418.8L818.8,418.8z"/>
	</g>
	<path class="st10" d="M796.3,410.5c-0.2-4,19.2-21.3,45.8-18.3C843.1,403.7,822.2,441,796.3,410.5z"/>
</g>
<path class="st1" d="M592.5,422.4c-0.1-2.2-1.5-4.1-3.1-5.5c-1.9-1.6-4.3-2.5-6.7-2c-3.1,0.7-4.9,3.7-5.8,6.5
	c-1.9,5.7-1.7,12.3-1.2,18.2c0.9,11.8,3.3,23.6,6.1,35.1c0.5,1.9,1,3.8,1.4,5.8s3.4,1.1,2.9-0.8c-3-11.8-5.8-23.8-7.1-35.9
	c-0.7-6.3-1.2-13.3,0.1-19.3c0.2-1,0.5-1.9,0.8-2.8c0-0.1,0.3-0.7,0.1-0.3c0.1-0.2,0.2-0.4,0.2-0.5c0.2-0.3,0.3-0.6,0.5-1
	c0.1-0.1,0.2-0.3,0.3-0.4c0.3-0.4-0.1,0.1,0.1-0.1c0.2-0.2,0.4-0.4,0.6-0.6c0.1-0.1,0.2-0.2,0.3-0.3c0,0-0.3,0.1,0.1,0
	c0.2-0.1,0.4-0.2,0.7-0.4c0.3-0.2-0.4,0.1,0,0c0.1,0,0.2-0.1,0.3-0.1s0.2,0,0.3-0.1c0.4-0.1,0.2,0,0.1,0c0.2,0,0.5,0,0.7,0
	c0.1,0,0.2,0,0.3,0c0.4,0-0.4-0.1,0.1,0c0.2,0.1,0.5,0.1,0.7,0.2s0.9,0.4,0.4,0.1c0.4,0.2,0.8,0.4,1.2,0.7c0.1,0.1,0.2,0.2,0.3,0.2
	c0,0-0.2-0.2,0,0s0.4,0.4,0.6,0.5c0.2,0.2,0.3,0.4,0.5,0.6c0.2,0.3,0.1,0.1,0,0.1c0.1,0.1,0.2,0.2,0.2,0.3c0.1,0.2,0.3,0.4,0.4,0.6
	c0.1,0.1,0.1,0.2,0.2,0.3c0.2,0.4-0.1-0.4,0,0c0.1,0.2,0.1,0.4,0.2,0.6c0,0.1,0,0.2,0.1,0.3c0,0,0-0.4,0,0
	C589.5,424.3,592.5,424.3,592.5,422.4L592.5,422.4L592.5,422.4L592.5,422.4z"/>
<path class="st1" d="M602,397.4c-2.7-4.8-8.1-7.3-13.5-5.9s-9.5,6.6-10.5,12.2c-0.8,4.4-0.1,8.9,1.4,13c0.7,1.8,3.5,1,2.9-0.8
	c-2-5.7-2.7-12.4,1.1-17.5c1.2-1.6,3.1-3.1,4.9-3.7c2-0.7,3.8-0.8,5.8-0.3c2.2,0.7,4,2.3,5.2,4.5C600.3,400.6,602.9,399.1,602,397.4
	L602,397.4L602,397.4z"/>
<circle class="st6" cx="887.5" cy="381.3" r="30.6"/>
<ellipse class="st6" cx="753.3" cy="368.1" rx="21.8" ry="26.9"/>
<path class="st1" d="M593.8,392.5c-1.7-5.5,0.6-11.1,5.1-14.7s11.2-4.5,16.7-1.7c3.7,1.9,6.6,4.9,8.8,8.4c1.5,2.3,2.7,4.8,3.8,7.4
	c0.6,1.5,0.9,3.1,1.7,4.4c1,1.7,2.5,3.5,4.7,3.4c1.5-0.1,2.7-1.2,3.5-2.5c1.4-2.3,2-5.1,2.5-7.8c0.9-4.7,3.4-8.6,7-11.9
	c1.6-1.5,3.4-2.7,5.6-3.7c0.2-0.1,0.1,0,0.5-0.2c0.3-0.1,0.5-0.2,0.8-0.3c0.5-0.2,1-0.3,1.5-0.4l0.4-0.1c0.3,0,0,0,0.1,0
	c0.2,0,0.5,0,0.8-0.1c0.5,0,1,0,1.4,0c0.3,0,0,0,0,0c0.1,0,0.2,0,0.3,0.1c0.2,0,0.5,0.1,0.7,0.2s0.4,0.1,0.6,0.2
	c0.3,0.1-0.2-0.1,0.1,0c0.1,0.1,0.2,0.1,0.4,0.2c1,0.5,1.3,0.8,2.1,1.7c0.3,0.4,0.5,0.6,0.8,1.2c0.3,0.5,0.6,1.2,0.8,1.6
	c0.5,1.2,1,2.8,1.2,4.3c0.8,4.2,0.6,8.6,0.3,12.9c-0.3,3-0.7,5.9-1.2,8.9c-0.5,2.6-1.1,5.3-1.5,8c-1.4,10-0.1,20.5,2.1,30.2
	c2.5,11.2,6.7,22.4,13.4,31.8c1.5,2.2,3.2,4.3,5.1,6.3c1.3,1.4,3.4-0.7,2.1-2.1c-7.9-8.5-12.9-19.5-16.1-30.5
	c-3-10.3-4.7-21.2-4-31.9c0.4-5.4,1.8-10.6,2.6-16c0.7-4.9,1.1-10,0.6-15c-0.5-5.4-2.2-12-7.8-14.2c-4.2-1.7-9,0-12.6,2.4
	c-4.2,2.8-7.7,6.8-9.6,11.4c-1.5,3.6-1.5,7.8-3.5,11.2c-0.2,0.3-0.4,0.6-0.5,0.7c-0.3,0.4-0.2,0.2-0.5,0.4c-0.1,0,0,0,0,0
	c-0.2,0-0.2,0,0,0c-0.1,0-0.2,0-0.3-0.1c0.2,0.1-0.1,0-0.3-0.2s0,0,0,0c-0.1-0.1-0.2-0.2-0.3-0.3c-0.2-0.1-0.3-0.3-0.4-0.5
	c-0.2-0.2,0,0,0,0c-0.1-0.1-0.1-0.2-0.2-0.3c-0.5-0.7-0.7-1.2-0.9-2c-1-2.8-2.2-5.6-3.6-8.2c-2.2-4-5.2-7.8-9.1-10.4
	c-5.8-3.9-13.3-4.4-19.5-1c-5.4,2.9-9.5,8.7-9.5,15c0,1.6,0.2,3.1,0.7,4.6C591.5,395.2,594.4,394.4,593.8,392.5L593.8,392.5
	L593.8,392.5z"/>
<path class="st1" d="M823,209.1c-1.1-2.4-2-5-2.7-7.6c-0.6-2.3-1-4.2-1.1-6.4c-0.1-0.9-0.1-1.9,0-2.9c0-0.5,0.1-0.9,0.1-1.4
	c0-0.4,0,0.1,0-0.3c0-0.3,0.1-0.5,0.1-0.8c0.2-0.8,0.4-1.6,0.6-2.4l0.2-0.6c0.1-0.4-0.1,0.2,0.1-0.3c0.2-0.4,0.3-0.7,0.5-1.1
	c0.2-0.3,0.4-0.6,0.5-0.9c0.1-0.2,0.2-0.3,0.3-0.5c0.3-0.4-0.1,0.1,0.2-0.3c0.5-0.6,1-1.1,1.5-1.6c0.1-0.1,0.3-0.2,0.4-0.4
	c0.3-0.3,0-0.1,0.2-0.1c0.3-0.2,0.7-0.5,1-0.7c0.6-0.4,1.3-0.7,2-1.1c0.3-0.1-0.3,0.1,0,0c0.1,0,0.2-0.1,0.3-0.1
	c0.2-0.1,0.3-0.1,0.5-0.2c0.4-0.1,0.8-0.3,1.2-0.4c0.8-0.2,1.6-0.4,2.4-0.5c0.5-0.1,0,0,0.4-0.1c0.2,0,0.5-0.1,0.7-0.1
	c0.5,0,0.9-0.1,1.4-0.1c0.9,0,1.8,0,2.8,0c2.2,0.1,3.7,0.4,5.9,0.9s4.5,1.2,6.7,2.1c4.7,1.8,9.5,4.5,13.9,7.4
	c11.1,7.6,20.4,17.7,27.7,28.9c9.8,14.9,16.5,31.7,20.6,49c2.5,10.5,4,21.3,4.7,32c0.2,3.3,0.5,6.4,1.5,9.6c0.7,2.1,1.5,4.2,2.7,6.2
	c4.2,7.3,11.5,11.8,19,15.3c7.9,3.7,16.3,6.6,23.7,11.4c8.2,5.2,14.2,12.8,17.3,22.2c2.1,6.5,2.9,13.3,3,20.1
	c0.1,9.6-1,19.1-2.7,28.5c-1.1,5.9-2.4,11.8-3.9,17.6c-0.5,1.9,2.4,2.7,2.9,0.8c2.8-11.2,5.1-22.6,6.2-34.1
	c0.8-8.2,0.8-16.6-0.4-24.7c-1.7-10.9-6.4-21.2-14.8-28.6c-7-6-15.5-9.6-23.9-13.2c-3.9-1.7-7.8-3.4-11.5-5.5s-6.5-4.1-9.3-7.3
	s-4.6-6.9-5.7-11s-1-8.2-1.3-12.3c-0.5-5.5-1.2-11.1-2.2-16.6c-3.2-18.7-9.2-37-18.6-53.5c-7.2-12.6-16.4-24.2-27.8-33.2
	c-8.3-6.6-18-12.3-28.6-14.2c-7.1-1.3-15.5-1-20.9,4.4c-5.8,5.8-5.4,14.9-3.3,22.2c0.8,2.6,1.7,5.2,2.8,7.7
	C821.2,212.3,823.7,210.8,823,209.1L823,209.1L823,209.1z"/>
<path class="st1" d="M824.5,568.2c1.7-8,1.8-16.5-0.2-24.4c-1.5-5.8-4.1-12-9.1-15.5c-4.3-3.1-9.3-2.4-13.2,1
	c-2.6,2.3-4.5,5.5-6,8.6c-1,2.2-1.9,4.5-2.7,6.8s-1.5,4.3-3.2,6c-5.4,5.2-14.3,2.1-19.2-2.2c-3.2-2.9-5.1-6.7-7.8-10
	c-1.8-2.2-3.9-4.2-6.3-5.7c-7.1-4.5-18.7-5-23.1,3.6c-2.3,4.5-1.5,9.6,0.5,14c3.3,7.5,9.7,13.5,16,18.5c2.2,1.8,4.6,3.4,6.9,5
	c1.4,1,3-1.2,1.8-2.4c-3.5-3.4-7.2-6.6-11.3-9.3c-2.7-1.8-5.6-3.3-8.8-4.1c-4.3-1-8.7,0.1-11,4s-2.1,8.8-1.3,13.1
	c1,5.1,3.3,10,6.7,14c3.9,4.6,9.5,7.7,15.6,7.5c1.7,0,2.1-2.5,0.4-3c-3.8-1-8.2-1.7-12,0.2c-2.9,1.4-4.4,4.3-4.7,7.4
	c-0.4,3.5,0.5,7.2,1.9,10.5c1.7,4.1,4.1,7.9,7,11.2c3.5,4,7.7,7.4,12.5,9.5c1.7,0.8,3.3-1.8,1.5-2.6c-7.5-3.4-13.6-9.8-17.3-17.2
	c-1.5-2.9-2.6-6.1-2.7-9.4c0-1.4,0-2.5,0.5-3.8c0.3-0.9,1.1-1.9,1.8-2.4c2.9-2.2,7.3-1.4,10.7-0.5l0.4-3c-4.7,0.1-9-1.9-12.3-5.3
	s-5.5-7.6-6.7-12c-0.6-2.2-0.9-4-0.9-6.3c0-2,0.2-3.4,0.9-5.4c0.1-0.3,0,0,0.2-0.4c0.1-0.2,0.2-0.3,0.3-0.5s0.2-0.3,0.3-0.5
	c0.1-0.1,0.5-0.7,0.2-0.3c0.6-0.8,1-1.1,1.6-1.4c0.2-0.1,0.3-0.2,0.5-0.3c0.1,0,0.1-0.1,0.2-0.1c0.3-0.2-0.3,0.1,0.1,0
	c0.4-0.2,0.8-0.3,1.2-0.3c0.1,0,0.2,0,0.4-0.1c-0.3,0-0.1,0,0,0c0.2,0,0.5,0,0.7,0c0.5,0,1.1,0,1.6,0.1c-0.2,0,0.5,0.1,0.7,0.1
	c0.3,0.1,0.6,0.1,1,0.2c0.7,0.2,1.4,0.4,2,0.7c1.5,0.6,3,1.4,4.4,2.3c4.3,2.6,8.1,6,11.7,9.4l1.8-2.4c-7.4-5-14.9-10.8-19.7-18.5
	c-2.5-4-4.5-8.9-3.2-13.4c0.9-3.2,3.5-5.6,6.8-6.5c3.8-1.1,8-0.4,11.6,1.6c2.2,1.2,4.2,2.8,5.8,4.6c2.5,2.8,4.2,6.2,6.6,9
	c4.4,5,11.4,8.9,18.3,8.1c4.2-0.5,8-3.1,10-6.9c1.1-2.1,1.6-4.5,2.5-6.7c0.8-2,1.6-3.9,2.7-5.7c1.4-2.5,3.1-5,5.6-6.6
	c1.7-1.1,3.5-1.5,5.3-1c4.5,1.1,7.5,6.2,9.2,10.4c2.7,6.8,3.4,14.2,2.8,21.5c-0.2,2.1-0.5,4.2-0.9,6.2
	C821.2,569.3,824,570.1,824.5,568.2L824.5,568.2L824.5,568.2z"/>
<path class="st3" d="M801,283.3c-3.9-0.7-8.5,0-11.7,2.3c-1.6,1.1-2.8,2.6-3.7,4.4c-0.4,0.7-0.2,1.6,0.5,2s1.7,0.2,2-0.5
	c0.7-1.3,1.4-2.3,2.5-3.2c0.2-0.2,0,0,0.2-0.1c0.1-0.1,0.3-0.2,0.4-0.3c0.3-0.2,0.5-0.3,0.8-0.5c0.1-0.1,0.3-0.1,0.4-0.2
	c0.1,0,0.4-0.2,0.3-0.2c-0.1,0,0.2-0.1,0.3-0.1c0.2-0.1,0.3-0.1,0.5-0.2c0.5-0.2,1.1-0.3,1.7-0.4c0.2,0,0.3,0,0.4-0.1
	c0.1,0,0.4-0.1,0.2,0s0.2,0,0.2,0c0.1,0,0.3,0,0.4,0c0.9-0.1,1.8-0.1,2.6,0c0.3,0,0.6,0.1,0.9,0.1c0.1,0-0.5-0.1-0.1,0h0.1
	c0.8,0.1,1.6-0.2,1.8-1C802.3,284.4,801.8,283.4,801,283.3L801,283.3L801,283.3L801,283.3z"/>
<path class="st3" d="M854.5,293.1c-2.2-3.2-5.9-6-9.8-6.7c-1.9-0.3-3.9-0.2-5.7,0.4s-1,3.5,0.8,2.9c3.2-1.1,6.2-0.3,8.9,1.6
	c0.4,0.3,0.8,0.6,1.3,1.1c0.4,0.4,0.8,0.8,1.1,1.2c0.2,0.2,0.3,0.3,0.4,0.5c0.1,0.1,0.4,0.6,0.1,0.1c0.1,0.1,0.2,0.2,0.3,0.4
	c0.5,0.7,1.3,1,2,0.5C854.6,294.7,854.9,293.7,854.5,293.1L854.5,293.1L854.5,293.1z"/>
<path class="st1" d="M975.8,450.3c-6,0.9-11.9,3-17.5,5.4c-10.1,4.4-19.9,11.4-24.4,21.8c-3.7,8.5-3.9,19,1,27
	c3.7,6.1,9.9,10.2,16.1,13.5c6.9,3.6,14.2,6.4,21.2,9.9c6.8,3.4,13.4,7.2,18.3,13.1c5.3,6.3,7.4,14.5,7.1,22.8
	c-0.2,5.9-1.5,11.8-3.2,17.5c-1.9,6.3-4.2,12.6-7.5,18.3c-2.9,5.1-6.3,10.9-6.1,17c0.2,6.8,5.7,10.9,11.7,12.8
	c4.6,1.5,9.7,1.7,14.5,1.6c7.5-0.1,14.9-0.8,22.4-1.3c5-0.3,10.1-0.7,15.1-1c1.9-0.1,1.9-3.1,0-3c-9.2,0.5-18.4,1.2-27.6,1.8
	c-5.8,0.4-11.7,0.8-17.5,0.2c-4.8-0.5-10.4-2-13.6-5.8c-3.9-4.7-1.3-11.2,1.1-16c1.2-2.5,2.7-4.8,4-7.3c1.6-2.9,2.7-6.1,3.9-9.2
	c2.3-6.2,4.2-12.6,5.2-19.1c1.3-9,0.8-18.5-3.8-26.6c-3.8-6.7-9.9-11.5-16.5-15.3s-14-6.8-21-10c-6.4-3-12.9-6.2-17.8-11.1
	c-5.2-5.2-7.2-12-6.6-19.5c1-11.7,9-20.6,18.8-26.3c6.8-3.9,14.4-6.6,22.2-8.2c0.4-0.1,0.9-0.2,1.3-0.2
	C978.6,452.9,977.8,450,975.8,450.3L975.8,450.3L975.8,450.3z"/>
<ellipse class="st1" cx="532.5" cy="198.8" rx="5" ry="7"/>
<ellipse class="st1" cx="581.8" cy="198.8" rx="5" ry="7"/>
<path class="st1" d="M521.1,302.7c13.6,1.8,51.7-0.2,69.8-4.2l-61.1,26.9L521.1,302.7L521.1,302.7z"/>
<path class="st1" d="M242.5,562.3c7-7.2,17.2-12.8,27.3-13.4c2-0.1,3.8,0,5.7,0.4c1,0.2,1.5,0.4,2.2,0.8c0.3,0.2,0.7,0.4,1,0.6
	c0.3,0.2,0,0,0.3,0.2c0.2,0.1,0.3,0.3,0.5,0.4c0.6,0.6,0.8,0.8,1.2,1.7c0.2,0.4,0.5,1.3,0.6,2.1c0,0.1,0.1,0.8,0.1,1.2
	c0,0.5,0,1-0.1,1.5c-0.1,1-0.4,2.2-0.7,3.3c-1,3.5-2.8,6.7-4.8,9.7c-2.9,4.5-6.2,8.7-9.8,12.7c-0.8,0.9-0.3,2.6,1.1,2.6
	c9.8-0.1,19.8-4,25.7-12c1.1-1.5,2-3.2,3-4.7c1.9-2.8,4.1-5.4,6.6-7.6s5.7-4.4,9.1-4.5c2.5-0.1,4.7,0.8,6.7,2.2c4,2.9,6,8,5.5,13.1
	c-1,10.1-10.3,17.8-18.2,23c-1.6,1-0.1,3.7,1.5,2.6c8-5.3,16.5-12.5,19.1-22.2c1.5-5.9,0.3-12.3-3.9-16.8c-1.8-1.9-4-3.4-6.4-4.2
	c-3.4-1.2-6.9-0.6-10.1,0.9c-6,2.9-10.6,8.7-14,14.3c-5.3,8.6-14.8,12.8-24.7,12.9l1.1,2.6c5.8-6.6,11.6-13.8,14.7-22
	c1.5-4.1,2.5-9.3-0.2-13.2c-2.4-3.4-6.6-4.6-10.6-4.7c-5.1-0.2-10.2,1.2-14.9,3.1c-6.3,2.6-12,6.3-16.8,11.2
	C239,561.5,241.2,563.7,242.5,562.3L242.5,562.3L242.5,562.3L242.5,562.3z"/>
<path class="st1" d="M347.7,610.4C347.4,610.9,348.1,610.1,347.7,610.4c0.1-0.1,0.3-0.2,0.5-0.3c0.1,0-0.4,0.1,0,0
	c0.1,0,0.2-0.1,0.3-0.1c0.2,0,1-0.2,0.5-0.1c0.6-0.1,1.2-0.1,1.8,0c-0.5-0.1,0.3,0.1,0.5,0.1c0.1,0,0.3,0.1,0.4,0.1s0.6,0.3,0.2,0.1
	c0.3,0.1,0.5,0.2,0.8,0.4c0.1,0.1,0.3,0.2,0.4,0.3c-0.2-0.2,0,0,0.2,0.2c0.1,0.1,0.2,0.2,0.3,0.3c0.3,0.3,0,0,0.1,0.1
	c0.2,0.3,0.4,0.6,0.5,0.9c-0.2-0.4,0,0.1,0.1,0.2c0,0.2,0.1,0.3,0.1,0.5c0.1,0.2,0.1,0.5,0.1,0.3c0,0.2,0,0.5,0,0.7
	c0,1.1-0.1,1.6-0.4,2.7c-0.9,3-2.6,5.7-4.4,8.2c-3.1,4.3-6.7,8.2-10.5,11.8c-4.6,4.5-9.5,8.6-15,12c-5.1,3.1-10.6,5.7-16.1,8.1
	c-12.4,5.4-25.4,8.8-38.9,9.7c-1.9,0.1-1.9,3.1,0,3c12.9-0.8,25.3-3.8,37.2-8.7c5.8-2.4,11.6-5,17.1-8.2c6-3.4,11.4-7.7,16.4-12.4
	c4.2-4,8.3-8.3,11.8-13c2.1-2.8,4-5.9,5.1-9.3c1.1-3.7,0.8-8.1-2.9-10.1c-2.6-1.4-6.9-1.6-8.8,1C344,610.5,346.6,612,347.7,610.4
	L347.7,610.4L347.7,610.4z"/>
<path class="st1" d="M322,585.8c5.1-6.4,13.8-9.9,21.5-6.1c3.3,1.6,5.9,4.4,7.1,7.9c1.5,4.3,0.9,9-0.7,13.2
	c-3,7.8-9.2,14.2-15.5,19.5c-1.5,1.2,0.7,3.4,2.1,2.1c6.2-5.3,12.1-11.5,15.5-19c2.2-4.8,3.3-10.3,1.9-15.5
	c-2.4-8.8-11.3-13.9-20.1-12.7c-5.6,0.8-10.5,4-13.9,8.3C318.7,585.2,320.8,587.3,322,585.8L322,585.8L322,585.8z"/>
<path class="st1" d="M200.9,437c0,0,38.6-2.2,54.8-8.2c0,0-0.2,3.8-1.3,7.6c-14,6.7-15.3,7.8-40.8,17.2
	C209.9,453.7,199.8,440.1,200.9,437L200.9,437L200.9,437z"/>
<ellipse class="st1" cx="211.6" cy="337.1" rx="6.6" ry="8"/>
<ellipse class="st1" cx="268.5" cy="323.6" rx="5.5" ry="7.2"/>
<path class="st5" d="M188.7,296.9l25.7,1.9c3,0.2,5.2,3.1,4.6,6.1l-0.6,3.6c-0.5,2.6-2.8,4.5-5.4,4.4l-25.8-1.5
	c-3.1-0.2-5.3-3-4.7-6.1l0.7-4C183.8,298.6,186.1,296.7,188.7,296.9L188.7,296.9L188.7,296.9z"/>
<path class="st5" d="M283.2,288.4l-23.7,8.8c-2.8,1-5.9-0.6-6.6-3.6l-0.9-3.5c-0.6-2.5,0.6-5.1,3-6.1l23.6-9.1
	c2.8-1.1,5.9,0.6,6.7,3.6l1,3.9C287,284.9,285.6,287.5,283.2,288.4L283.2,288.4L283.2,288.4z"/>
<ellipse class="st6" cx="510.1" cy="232" rx="30.6" ry="30.6"/>
<circle class="st6" cx="600.7" cy="236.3" r="30.6"/>
<path class="st1" d="M535.8,219.7c-0.7,2.8-0.3,5.8,0.4,8.6c0.8,3.4,2.2,6.7,4.2,9.6s4.5,5.4,7.8,6.6c3.6,1.4,7.5,0.8,10.9-0.8
	c6.4-3,11.1-9,15.1-14.7c1.1-1.6-1.5-3.1-2.6-1.5c-3.4,4.8-7.3,9.8-12.5,12.8c-2.8,1.6-6.1,2.5-9.2,1.6c-5.7-1.7-9-8.1-10.5-13.4
	c-0.4-1.5-0.7-3-0.8-4.4s-0.1-2.6,0.2-3.6C539.1,218.7,536.2,217.9,535.8,219.7L535.8,219.7L535.8,219.7z"/>
<circle class="st6" cx="174.6" cy="368.1" r="30.6"/>
<path class="st1" d="M173.5,367.2c4.4,3.5,10.4,5,15.9,6.1c8.1,1.6,16.3,2.3,24.5,2.5c9.2,0.3,18.4,0.1,27.6-0.7
	c8.3-0.7,16.7-1.9,24.8-3.9c6.2-1.6,13.5-3.6,18.2-8.4c1.4-1.4-0.8-3.5-2.1-2.1c-1.6,1.6-3.7,2.8-5.9,3.9c-2.8,1.3-5.7,2.3-8.7,3.1
	c-7.6,2.1-15.5,3.3-23.4,4.1c-9,0.9-18,1.2-27,1.1c-8.1-0.1-16.2-0.6-24.2-2c-3.6-0.6-7.2-1.4-10.7-2.5c-1.4-0.5-2.6-0.9-3.9-1.6
	c-0.6-0.3-1.1-0.6-1.7-0.9c-0.2-0.1-0.5-0.3-0.7-0.5c-0.3-0.2-0.5-0.4-0.5-0.4C174.2,363.9,172,366,173.5,367.2L173.5,367.2
	L173.5,367.2z"/>
<path class="st1" d="M415,488.6c-6,5.5-9.3,13.7-6,21.6c2.7,6.5,9.2,11.1,16.3,11.1c4.8,0,9.1-2.1,12.7-5.1c1.5-1.2-0.7-3.4-2.1-2.1
	c-5.1,4.3-12,5.7-17.9,2.2c-5-3-8-9-7.1-14.9c0.7-4.3,3.2-7.8,6.3-10.7C418.5,489.4,416.4,487.3,415,488.6L415,488.6L415,488.6z"/>
<path class="st7" d="M403.9,623.6c0,0-62.1,6.8-66.9,26.2c-2.9,11.9,44.1,29.7,76.7,36c17.2,3.3,77.9-5.6,86.4-21.9
	c-29.2,13.4-54.7,14.4-69.4,13.1c-7.4-0.6-13.9-5.1-17.2-11.7c-1.5-3.1-2.6-5.4-2.6-5.4C411.3,654.1,403.9,623.6,403.9,623.6"/>
<path class="st1" d="M413.4,658.3c-0.6-0.8-1-1.7-1.4-2.6c-0.1-0.3-0.1-0.3-0.1-0.2c-0.1-0.2-0.1-0.3-0.2-0.5
	c-0.1-0.3-0.2-0.7-0.4-1c-0.3-0.7-0.5-1.4-0.7-2.1c-1.2-3.8-2.1-7.6-3-11.5c-2.4-10.6-4.2-21.4-5.9-32.1
	c-1.9-12.1-3.6-24.2-5.3-36.4c-1.4-10.1-2.6-20.2-3.8-30.4c-0.6-4.9-1.1-9.7-1.7-14.6c0-0.1,0-0.1,0-0.2c-0.2-1.9-3.2-1.9-3,0
	c0.4,4,0.9,8,1.4,12.1c1.2,9.8,2.4,19.6,3.7,29.4c1.6,12.2,3.3,24.3,5.2,36.5c1.7,11.2,3.6,22.3,5.9,33.3c0.9,4.2,1.8,8.3,3,12.5
	c0.8,2.7,1.6,5.6,3,8.1c0.2,0.4,0.4,0.8,0.7,1.1C411.9,661.3,414.5,659.8,413.4,658.3L413.4,658.3L413.4,658.3z"/>
<path class="st1" d="M182.9,497.3c-1.4,11.9-2.5,23.8-3.4,35.7c-0.1,1.9,2.9,1.9,3,0c0.9-11.9,2-23.8,3.4-35.7
	C186.2,495.4,183.2,495.4,182.9,497.3L182.9,497.3z"/>
<path class="st3" d="M4.8,442.8h51.4c6.4,0,6.5-10,0-10H4.8C-1.6,432.8-1.6,442.8,4.8,442.8L4.8,442.8z"/>
<path class="st3" d="M24.9,401v57.4c0,6.4,10,6.5,10,0V401C34.9,394.6,24.9,394.6,24.9,401L24.9,401z"/>
<path class="st5" d="M209.9,139.9c9-5,18.9-8.6,29.1-10c9.2-1.2,18.5-0.7,27.4,1.4s16.6,5.5,24.1,10.2s13.6,9.9,19.3,16.3
	c5.2,5.9,9.7,12.5,13,19.7c1.4,3.1,2.7,6.6,3.7,10.2s1.4,6.5,1.6,10c0.1,1.6,0.1,3.3,0,4.9c-0.1,1.9-0.2,2.8-0.6,4.6
	c-0.3,1.6-0.8,3.1-1.3,4.6c-0.3,0.8-0.6,1.5-0.8,1.9c-0.3,0.7-0.7,1.4-1,2.1c-1.6,3-3.3,5.2-5.8,7.6c-2.6,2.5-5.3,4.4-8.6,6.1
	c-8,4.2-17.5,6-26.6,6.6c-13.6,0.9-27.3-0.7-40.6-3.3c-4.1-0.8-8.1-1.7-12.1-2.6c-1.9-0.4-2.7,2.4-0.8,2.9c14.8,3.5,30,6.1,45.2,6.2
	c10.4,0.1,21.1-1,30.9-4.7c7.2-2.8,13.8-7.1,18.4-13.3c4.1-5.4,6.2-12,6.7-18.7c0.5-7.1-0.9-14.4-3.3-21.1
	c-2.7-7.5-6.8-14.6-11.6-20.9c-5.3-6.9-11.6-13.1-18.7-18.2s-15.3-9.5-23.8-12.4s-18.3-4.4-27.7-4c-10.4,0.4-20.6,3-30.1,7.3
	c-2.5,1.1-5,2.4-7.4,3.7C206.7,138.2,208.3,140.8,209.9,139.9L209.9,139.9L209.9,139.9z"/>
<path class="st5" d="M117.3,158.1c-4.1,1.1-8.2,2.4-12.2,3.8c-9.5,3.2-18.8,7-27.8,11.4c-10.7,5.2-21,11.3-30,19
	c-8.5,7.2-16,16.1-19.5,26.8c-3.8,11.7-1.5,24,4.2,34.8c0.8,1.6,1.8,3.1,2.7,4.6c1,1.6,3.6,0.1,2.6-1.5c-6.4-10.1-10.2-22-7.5-33.9
	c2.5-10.4,9.2-19.2,17-26.4c8.6-7.8,18.6-14,29-19.2c9-4.6,18.3-8.4,27.8-11.8c4.7-1.7,9.5-3,14.3-4.5c0.1,0,0.1,0,0.2-0.1
	C120,160.5,119.2,157.6,117.3,158.1L117.3,158.1L117.3,158.1z"/>
<path class="st3" d="M858.8,157.2c18.2-6.5,37.7-8.7,57-7.4c18.3,1.2,36.6,5.6,53.5,12.9c14.7,6.3,28.9,14.8,40.3,26.2
	c8.6,8.6,16.2,19.8,16.9,32.3s-6.5,23.7-16.1,31.6c-1.5,1.3-3.2,2.4-4.8,3.6c-1.6,1.2-0.1,3.7,1.5,2.6c11.3-7.8,21.2-18.8,22.4-33.1
	c1.1-12.9-5.3-25-13.5-34.5c-10.4-12.2-24.3-21.4-38.6-28.3c-16.9-8.1-35.2-13.3-53.8-15.5c-19.5-2.3-39.6-1-58.5,4.5
	c-2.3,0.7-4.7,1.4-7,2.3C856.2,154.9,857,157.8,858.8,157.2L858.8,157.2L858.8,157.2z"/>
<path class="st3" d="M977.1,233.5c1.9,0,1.9-3,0-3S975.2,233.5,977.1,233.5L977.1,233.5z"/>
<path class="st3" d="M1020.4,606.1c18.4-8.2,36.5-18.1,51.7-31.5c9.8-8.7,18.7-19.2,22.8-31.8c3.1-9.3,2.9-19.5-1.5-28.3
	s-12.5-15.4-21.3-19.5c-11.5-5.3-24.3-7.1-36.8-6.7c-1.8,0-3.6,0.1-5.3,0.3c-1.9,0.1-1.9,3.1,0,3c12.5-0.9,25.4,0.1,37.2,4.6
	c8.8,3.4,17.2,9,22.2,17.1c4.8,7.7,5.9,16.8,3.7,25.6c-2.9,11.8-10.7,22-19.3,30.3c-13.5,13-30,22.8-46.8,30.8
	c-2.6,1.2-5.2,2.4-7.8,3.6C1017.1,604.3,1018.7,606.8,1020.4,606.1L1020.4,606.1L1020.4,606.1z"/>
<path class="st1" d="M978.3,430.2c75.4-50.2,31.3,65.7-2.1,21.5C936.4,487.7,922.2,367.8,978.3,430.2z"/>
<path class="st3" d="M964.9,351.8c1.9,0,1.9-3,0-3S963,351.8,964.9,351.8L964.9,351.8z"/>
<path class="st3" d="M977.5,233.5c7-2.2,14.6-3.1,21.8-2s13.4,3.7,19.2,7.6c6.2,4.1,11.5,9.4,16,15.3c5.1,6.5,9.2,13.8,12.6,21.3
	c3.7,8.2,6.5,16.7,8.7,25.4s3.7,18.3,4.4,27.6s0.7,19-0.2,28.4c-0.9,9.1-2.6,18.2-5.2,27s-6,16.4-10.6,23.8
	c-4.4,7.2-9.9,13.7-16.4,19c-1.6,1.3-2.5-11.9-4.1-10.8s-2.2,8.5,0,14.3c7.2-4.9,14.2-8.4,19.4-15.5s9.3-15.2,12.4-23.5
	s5.4-17.8,6.7-27s1.8-19.3,1.5-28.9s-1.5-19.3-3.5-28.8s-4.5-18.1-7.9-26.7c-3.2-8.1-7.2-15.9-12.1-23c-4.4-6.5-9.7-12.5-15.8-17.4
	c-5.8-4.5-12.3-8.1-19.4-10s-15-2-22.4-0.5c-2,0.4-3.9,0.9-5.8,1.5S975.7,234,977.5,233.5L977.5,233.5L977.5,233.5L977.5,233.5z"/>
<path class="st1" d="M593.2,58.3c0.3,13.1-0.6,26.4-3.9,39.1c-2.7,10.7-7.2,21.2-14.2,29.8s-15.5,14.6-25.6,18.3
	c-12.2,4.4-25.3,5.2-38.1,4.2c-17.6-1.4-34.9-6.3-51.5-12.4c-2.4-0.9-4.8-1.8-7.2-2.8c-1.8-0.7-2.6,2.2-0.8,2.9
	c17.4,6.9,35.6,12.5,54.2,14.8c13.5,1.6,27.4,1.4,40.5-2.6c10.7-3.2,20.4-9.1,28-17.3c7.7-8.4,13-18.8,16.2-29.7
	c3.8-12.6,5.2-25.9,5.3-39c0-1.8,0-3.5-0.1-5.3C596.1,56.4,593.1,56.4,593.2,58.3L593.2,58.3L593.2,58.3z"/>
<path class="st1" d="M594,69c1.9,0,1.9-3,0-3S592.1,69,594,69L594,69z"/>
<path class="st1" d="M679.2,184.4c1.9,0,1.9-3,0-3S677.3,184.4,679.2,184.4L679.2,184.4z"/>
<path class="st1" d="M456.3,28c-7.6,6.4-9,10.4-15.5,18c-11.5,13.6-21.9,28.1-31,43.4c-11.2,18.7-20.6,38.5-27.1,59.3
	c-7.2,22.8-11,46.8-9.8,70.8c1.3,26.9,8.8,53.1,21.4,76.8c1.7,3.2,3.5,6.3,5.4,9.4c1,1.6,3.6,0.1,2.6-1.5
	c-14-23.3-23.2-49.3-25.8-76.4c-2.2-23.8,0.5-47.9,6.9-70.9c5.9-21.1,14.8-41.2,25.7-60.2c9-15.7,19.3-30.7,30.8-44.7
	c7-8.5,11.8-14.7,20-22c0.5-0.4-0.5,0.4,0,0c1.5-1.2-3-4.6-4.4-3.4l-0.5,1.3L456.3,28z"/>
<path class="st3" d="M532.5,625.4v-6.7h8.5v6.7H532.5z M532.5,666v-35.4h8.5V666H532.5z"/>
<path class="st3" d="M595.3,666.6c-3.8-0.2-6.5-1.2-8.2-3.1c-1.6-1.9-2.5-4.8-2.7-8.8v-2.1c0-0.8,0-1.5,0.1-2.3
	c0-0.8,0.1-1.5,0.2-2.1h8.3c-0.1,1.4-0.1,2.9-0.2,4.2s0,2.7,0.2,3.8c0.1,0.7,0.3,1.3,0.7,1.8s0.9,0.8,1.6,1L595.3,666.6L595.3,666.6
	L595.3,666.6z M598.2,666.6v-7.4c0.6-0.2,1.1-0.6,1.5-1s0.5-1.1,0.6-1.8s0.1-1.3,0.2-2v-2c0-0.7-0.1-1.3-0.2-2
	c-0.1-0.8-0.3-1.6-0.8-2.2c-0.4-0.7-1.1-1.1-2.1-1.4l-4.8-1.2c-2-0.5-3.7-1.3-4.9-2.3s-2.1-2.2-2.6-3.7s-0.8-3.2-0.9-5.2V630
	c0.2-4,1.1-6.9,2.7-8.7s4.4-2.8,8.3-3v7.4c-0.7,0.2-1.2,0.5-1.5,1s-0.5,1-0.7,1.8c-0.1,1-0.2,2-0.2,3s0.1,2,0.2,3
	c0.1,0.8,0.4,1.5,0.8,2.2c0.5,0.6,1.2,1.1,2.2,1.3l4.2,1c2.2,0.5,3.9,1.3,5.2,2.4c1.3,1,2.2,2.3,2.7,3.8c0.6,1.5,0.9,3.3,1,5.3v2.9
	c0,0.5,0,1-0.1,1.4c-0.2,4-1.1,6.9-2.7,8.8S602,666.4,598.2,666.6L598.2,666.6L598.2,666.6z M600.3,636.5c0.1-1.4,0.1-2.7,0.1-4.1
	s0-2.7-0.1-4.1c0-0.7-0.2-1.3-0.6-1.7c-0.4-0.5-0.9-0.8-1.6-1v-7.4c3.7,0.2,6.3,1.2,8,3.1c1.7,1.8,2.6,4.7,2.7,8.7v3.1
	c0,1.2-0.1,2.4-0.1,3.4H600.3L600.3,636.5z"/>
<path class="st11" d="M573.5,639.1V632c0-1.6-1.5-2.9-3.1-2.5l-7,1.5c-0.4,0.1-0.7,0.1-1.1,0l-6.3-1.4c-1.6-0.4-3.2,0.9-3.2,2.5v3.6
	c0.1,9.4,1.5,27.9,6.4,26.6c4.3-1.1,8.1-0.7,10-0.2c0.5,0.1,1,0.1,1.2-0.4c1.3-2.5,3.2-12.9,3.2-19.7"/>
<path class="st1" d="M564,617.7c0.3-2.2,2.2-3.8,4.4-3.8h3.6l-1.5,5.9c-0.5,2-2.3,3.3-4.3,3.3h-3.1L564,617.7L564,617.7L564,617.7z"
	/>
<rect x="532.5" y="628.3" class="st3" width="8.5" height="7"/>
<path class="st1" d="M639.6,669.1c-1,0-1.8-0.2-2.6-0.5s-1.3-0.7-1.8-1.4c-0.4-0.6-0.6-1.4-0.6-2.3c0-0.2,0-0.5,0-0.9s0-0.9,0.1-1.4
	c0-0.5,0-1,0.1-1.5c0-0.5,0-0.9,0-1.3c0-0.4,0-0.6,0-0.7c0-0.7-0.1-1.2-0.4-1.4s-0.6-0.4-1.1-0.4h-0.5v-2.2h0.6
	c0.5,0,0.8-0.1,1.1-0.3s0.4-0.7,0.4-1.4c0-0.1,0-0.4,0-0.7s0-0.8,0-1.3s0-1-0.1-1.5c0-0.5,0-1-0.1-1.4c0-0.4,0-0.7,0-1
	c0-1,0.2-1.8,0.6-2.4s1-1.1,1.8-1.3c0.7-0.3,1.6-0.5,2.6-0.5v1.1c-0.6,0-1.1,0.1-1.5,0.4c-0.5,0.2-0.8,0.6-1,1.1s-0.4,1-0.4,1.6
	c0,0.2,0,0.5,0,0.8c0,0.4,0,0.8,0,1.2c0,0.5,0,0.9,0.1,1.3c0,0.5,0,0.8,0,1.2c0,0.3,0,0.6,0,0.8c0,0.9-0.2,1.6-0.5,2.2
	c-0.3,0.6-0.8,0.9-1.5,1v0.4c0.7,0.1,1.2,0.5,1.5,1c0.3,0.6,0.5,1.3,0.5,2.1c0,0.2,0,0.4,0,0.8s0,0.7,0,1.2s0,0.9-0.1,1.3
	c0,0.5,0,0.8,0,1.2s0,0.7,0,0.8c0,0.6,0.1,1.1,0.4,1.6s0.6,0.8,1,1.1c0.5,0.3,0.9,0.4,1.5,0.4L639.6,669.1L639.6,669.1L639.6,669.1
	L639.6,669.1z M659,664.1c-1.4,0-2.4-0.3-3-0.8s-1-1.5-1-2.7c0-1.3,0-2.5,0-3.6s0-2.3,0-3.4s0-2.2,0-3.3c0-1.2,0-2.3,0-3.6
	c0-1.2,0.3-2.2,1-2.7c0.6-0.6,1.7-0.8,3-0.8s2.4,0.3,3,0.8c0.6,0.6,1,1.5,1,2.7c0,0.5,0,0.9,0,1.3c0,0.4,0,0.8,0,1.2s0,0.8,0,1.3h-2
	c0-0.5,0-0.9,0-1.3c0-0.4,0-0.8,0-1.2s0-0.8,0-1.3c0-0.7-0.2-1.1-0.5-1.3s-0.8-0.4-1.5-0.4s-1.2,0.1-1.5,0.4
	c-0.3,0.2-0.5,0.7-0.5,1.3c0,1.3,0,2.6-0.1,3.7c0,1.1,0,2.2,0,3.3s0,2.2,0,3.3s0,2.4,0.1,3.7c0,0.7,0.2,1.1,0.5,1.3s0.8,0.4,1.5,0.4
	c0.8,0,1.3-0.1,1.6-0.4s0.5-0.7,0.5-1.3c0-0.4,0-0.8,0-1.2s0-0.8,0-1.3s0-1.1,0-1.7h2c0,0.8,0,1.6,0,2.2c0,0.6,0,1.3,0,1.9
	c0,1.3-0.4,2.2-1.1,2.7C661.4,663.8,660.4,664.1,659,664.1L659,664.1z M669.8,663.9v-20.7h2V662h4.8v1.8L669.8,663.9L669.8,663.9z
	 M686,664.1c-1.4,0-2.4-0.3-3-0.8s-0.9-1.4-0.9-2.7c0-2.9,0-5.8,0-8.7s0-5.8,0-8.7h2c0,1.9,0,3.9,0,5.8s0,3.9,0,5.8s0,3.9,0,5.8
	c0,0.6,0.2,1,0.4,1.2c0.3,0.2,0.8,0.3,1.5,0.3s1.2-0.1,1.5-0.3s0.4-0.6,0.4-1.2c0-1.9,0-3.9,0-5.8s0-3.9,0-5.8s0-3.9,0-5.8h2
	c0,2.9,0,5.8,0,8.7s0,5.8,0,8.7c0,1.2-0.3,2.1-0.9,2.7C688.4,663.8,687.4,664.1,686,664.1L686,664.1z M696.8,663.9v-20.7h3.9
	c1.4,0,2.4,0.3,3,0.8s0.9,1.4,0.9,2.6c0,0.9,0,1.6,0,2.2s0,1.2,0,1.8c0,0.7-0.2,1.3-0.5,1.7s-0.7,0.7-1.3,0.9v0.4
	c0.7,0.2,1.1,0.5,1.4,0.9c0.3,0.4,0.5,1,0.5,1.7c0,0.8,0,1.4,0,2.1c0,0.6,0,1.3,0,2c0,1.2-0.4,2.1-1,2.6s-1.6,0.8-2.9,0.8
	L696.8,663.9L696.8,663.9z M698.9,662h1.9c0.7,0,1.2-0.1,1.4-0.3c0.3-0.2,0.4-0.6,0.4-1.2c0-0.7,0-1.4,0-2s0-1.3,0-2
	s-0.2-1.3-0.4-1.5c-0.2-0.3-0.7-0.4-1.4-0.4h-2L698.9,662L698.9,662L698.9,662z M698.9,652.6h2c0.6,0,1-0.2,1.3-0.4
	c0.2-0.3,0.4-0.8,0.4-1.5s0-1.4,0-2s0-1.3,0-2c0-0.5-0.2-0.9-0.4-1.2c-0.3-0.2-0.7-0.3-1.4-0.3H699L698.9,652.6L698.9,652.6
	L698.9,652.6z M719.8,669.1V668c0.6,0,1.1-0.1,1.5-0.4c0.5-0.2,0.8-0.6,1-1.1s0.4-1,0.4-1.6c0-0.2,0-0.5,0-0.8c0-0.4,0-0.8,0-1.2
	c0-0.5,0-0.9-0.1-1.3c0-0.5,0-0.8-0.1-1.2c0-0.4,0-0.6,0-0.8c0-0.8,0.2-1.6,0.5-2.1c0.3-0.6,0.8-0.9,1.5-1V656
	c-0.7-0.1-1.2-0.5-1.5-1c-0.3-0.6-0.5-1.3-0.5-2.2c0-0.2,0-0.4,0-0.8c0-0.4,0-0.7,0.1-1.2c0-0.5,0-0.9,0.1-1.3c0-0.5,0-0.8,0-1.2
	s0-0.7,0-0.8c0-0.6-0.1-1.1-0.4-1.6s-0.6-0.8-1-1.1s-0.9-0.4-1.5-0.4v-1.1c1,0,1.8,0.2,2.5,0.5s1.3,0.7,1.8,1.3
	c0.4,0.6,0.6,1.4,0.6,2.4c0,0.2,0,0.5,0,1s0,0.9,0,1.4s0,1-0.1,1.5c0,0.5,0,0.9-0.1,1.3c0,0.4,0,0.6,0,0.7c0,0.7,0.1,1.2,0.4,1.4
	s0.6,0.3,1.1,0.3h0.6v2.2H726c-0.5,0-0.8,0.1-1.1,0.4s-0.4,0.7-0.4,1.4c0,0.1,0,0.4,0,0.7c0,0.4,0,0.8,0.1,1.3c0,0.5,0,1,0.1,1.5
	c0,0.5,0,1,0.1,1.4s0,0.7,0,0.9c0,1-0.2,1.7-0.6,2.3c-0.4,0.6-1,1.1-1.8,1.4C721.6,668.9,720.7,669.1,719.8,669.1L719.8,669.1
	L719.8,669.1L719.8,669.1z"/>
<path class="st1" d="M350.6,360.3c1.7-0.5,3.4-1,5.1-1.5c4.6-1.3,9.2-2.6,13.8-3.8c6.8-1.8,13.7-3.5,20.6-5.1
	c8.4-2,16.9-3.7,25.3-5.3c9.3-1.8,18.6-3.3,27.9-4.5s19.2-2.2,28.8-2.7s18.4-0.5,27.5,0.2c8.1,0.6,16.2,1.9,24,4.2
	c6.5,2,13.2,4.9,18.4,9s8.9,9.1,11.1,15c0.6,1.6,1,3.2,1.4,4.8c0.4,1.9,3.3,1.1,2.9-0.8c-1.5-6.7-4.7-12.8-9.4-17.7
	s-11-8.6-17.5-11.1c-7.4-3-15.3-4.6-23.2-5.6c-9-1.2-18-1.5-27.1-1.3c-9.6,0.2-19.3,0.9-28.9,2s-19.3,2.5-28.9,4.2
	c-8.9,1.5-17.8,3.3-26.6,5.3c-7.5,1.6-14.9,3.4-22.3,5.3c-5.3,1.4-10.6,2.8-15.9,4.3c-2.5,0.7-5,1.4-7.5,2.2c-0.1,0-0.2,0.1-0.3,0.1
	C348,357.9,348.8,360.8,350.6,360.3L350.6,360.3L350.6,360.3L350.6,360.3z"/>
<path class="st1" d="M297.7,520.3c-0.4-0.5-0.6-1-0.9-1.6c-0.1-0.3,0,0.2-0.1-0.2l-0.2-0.5c-0.2-0.4-0.3-0.9-0.5-1.3
	c-0.6-2.1-1.1-4.2-1.6-6.3c-1.2-5.9-2.1-12-2.8-18c-1.6-13.9-2.7-27.9-2.6-41.9c0-5.4,0-11.1,1.1-16.2c0.4-1.9-2.5-2.7-2.9-0.8
	c-1,4.7-1.1,9.7-1.2,14.5c-0.1,6.8,0.2,13.6,0.5,20.4c0.8,13.7,2,27.4,4.6,40.9c0.5,2.6,1.1,5.2,1.8,7.7c0.5,1.6,1,3.4,2,4.8
	C296.3,523.4,298.9,521.9,297.7,520.3L297.7,520.3L297.7,520.3z"/>
<path class="st12" d="M546.8,451.7c0.4-13,0.2-26.1-1.2-39.1c-1-9.2-2.6-18.4-5.8-27.1c-2.2-6.2-5.3-12.2-9.8-17.1
	c-3.7-4-8.2-7.1-13.3-9c-5.7-2.1-11.9-2.7-18-2.5c-1.9,0.1-1.9,3.1,0,3c10.3-0.3,20.4,1.9,27.9,9.3c4.3,4.2,7.3,9.6,9.5,15.2
	c3.2,8.1,5,16.7,6,25.3c1.8,13.9,2,28,1.6,42.1C543.7,453.7,546.7,453.7,546.8,451.7L546.8,451.7L546.8,451.7L546.8,451.7z"/>
</svg>
